{
.appVersion = "3316";
.formatVersion = 3;
DisplayStrings = (
"au·à la
du·de la
ce·tte
cet·te
celle·ux
ell·ui
ho·femme
nationaux·les
beaux·lles
I·el"
);
axes = (
{
name = Weight;
tag = wght;
},
{
name = Italic;
tag = ital;
}
);
classes = (
{
code = "A Aacute Acircumflex Adieresis Agrave Atilde B C Ccedilla D E Eacute Ecircumflex Edieresis Egrave Emacron F G H I Iacute Icircumflex Idieresis J K L M N Ntilde O Oacute Ocircumflex Odieresis Otilde OE P Q R S T U Uacute Ucircumflex Udieresis Ugrave V W X Y Z AE W_W_W Enb Afem Amasc Agravefem Cfem Cmasc Dfem Dmasc Efem Emasc Ffem Fmasc Hfem Hmasc Imasc Ifem Idieresisfem Lfem Lmasc Mfem Nfem Omasc Pmasc Qfem Rfem Rmasc Sfem Smasc Tfem Ufem Umasc Vfem Xmasc Pmasc Mfem A_O A_E A_U_L_A F_V C_H C_Q D_U_D_E_L_A N_N R_S X_C X_S U_L E_S_S S_L L_E L_E_U L_U R_I G_U S_C O_Idieresis E_A M_P P_M S_T L_L S_S T_T O_T O_F X_L
";
name = Uppercase;
}
);
customParameters = (
{
name = "Use Typo Metrics";
value = 1;
},
{
disabled = 1;
name = glyphOrder;
value = (
);
},
{
name = unicodeRanges;
value = (
0,
1,
2,
3,
31,
33
);
},
{
name = codePageRanges;
value = (
"1252",
"bit 29",
"863",
"860",
"850",
"437"
);
},
{
disabled = 1;
name = panose;
value = (
2,
0,
0,
0,
5,
0,
0,
0,
0,
3
);
},
{
name = "Enforce Compatibility Check";
value = 0;
}
);
date = "2022-03-10 11:22:59 +0000";
familyName = Adelphe;
featurePrefixes = (
{
automatic = 1;
code = "languagesystem DFLT dflt;
";
name = Languagesystems;
}
);
features = (
{
automatic = 1;
code = "feature lnum;
feature pnum;
feature tnum;
feature onum;
feature case;
feature ss01;
feature ss02;
";
tag = aalt;
},
{
automatic = 1;
code = "sub zero.osf by zero;
sub one.osf by one;
sub two.osf by two;
sub three.osf by three;
sub four.osf by four;
sub five.osf by five;
sub six.osf by six;
sub seven.osf by seven;
sub eight.osf by eight;
sub nine.osf by nine;
";
tag = lnum;
},
{
automatic = 1;
code = "sub zero.tf by zero;
sub one.tf by one;
sub two.tf by two;
sub three.tf by three;
sub four.tf by four;

glyphs = (
{
color = 5;
glyphname = A;
kernLeft = A;
kernRight = A;
lastChange = "2024-09-05 11:36:22 +0000";
layers = (
{
anchors = (
{
name = bottom;
pos = (302,0);
},
{
name = top;
pos = (317,700);
}
);
layerId = m01;
shapes = (
{
closed = 1;
nodes = (
(224,0,l),
(224,28,l),
(147,32,o),
(119,76,o),
(144,140,cs),
(312,574,l),
(282,575,l),
(446,151,ls),
(478,67,o),
(439,30,o),
(365,29,c),
(365,0,l),
(662,0,l),
(662,27,l),
(605,40,o),
(583,71,o),
(557,137,cs),
(339,700,l),
(299,700,l),
(77,129,ls),
(55,72,o),
(30,42,o),
(-25,29,c),
(-25,0,l)
);
},
{
closed = 1;
nodes = (
(432,215,l),
(432,268,l),
(164,268,l),
(164,215,l)
);
}
);
width = 642;
},
{
anchors = (
{
name = bottom;
pos = (282,0);
},
{
name = top;
pos = (316,700);
}
);
layerId = "B693E737-F65C-4B63-97BA-EB353033066E";
shapes = (
{
closed = 1;
nodes = (
(214,0,l),
(214,27,l),
(137,39,o),
(108,76,o),
(132,140,cs),
(292,574,l),
(253,575,l),
(407,151,ls),
(432,81,o),
(409,31,o),
(355,27,c),
(355,0,l),
(660,0,l),
(660,27,l),
(625,39,o),
(599,71,o),
(574,137,cs),
(364,700,l),
(279,700,l),
(56,129,ls),
(35,76,o),
(12,40,o),
(-35,27,c),
(-35,0,l)
);
},
{
closed = 1;
nodes = (
(412,215,l),
(412,268,l),
(144,268,l),
(144,215,l)
);
}
);
width = 645;
},
{
anchors = (
{
name = bottom;
pos = (317,0);
},
{
name = top;
pos = (326,700);
}
);
associatedMasterId = m01;
layerId = "1230E7B2-4C9B-4295-A195-DF3A9F087C47";
shapes = (
{
closed = 1;
nodes = (
(236,0,l),
(236,28,l),
(159,29,o),
(131,76,o),
(156,140,cs),
(327,574,l),
(300,575,l),
(467,151,ls),
(502,62,o),
(457,29,o),
(377,29,c),
(377,0,l),
(671,0,l),
(671,27,l),
(607,40,o),
(586,71,o),
(560,137,cs),
(339,700,l),
(314,700,l),
(92,129,ls),
(70,71,o),
(44,42,o),
(-13,29,c),
(-13,0,l)
);
},
{
closed = 1;
nodes = (
(447,215,l),
(447,268,l),
(179,268,l),
(179,215,l)
);
}
);
width = 657.66667;
},
{
anchors = (
{
name = bottom;
pos = (238,0);
},
{
name = top;
pos = (518,700);
}
);
layerId = "77A919B5-A12B-4FB4-B82B-A665849CE577";
shapes = (
{
closed = 1;
nodes = (
(158,0,l),
(161,18,l),
(70,34,l),
(470,651,l),
(460,663,l),
(451,34,l),
(341,18,l),
(338,0,l),
(597,0,l),
(599,18,l),
(541,33,l),
(550,700,l),
(472,700,l),
(-26,32,l),
(-85,18,l),
(-87,0,l)
);
},
{
closed = 1;
nodes = (
(459,217,l),
(464,258,l),
(192,258,l),
(176,217,l)
);
}
);
width = 657;
},
{
anchors = (
{
name = bottom;
pos = (237,0);
},
{
name = top;
pos = (541,700);
}
);
layerId = m004;
shapes = (
{
closed = 1;
nodes = (
(177,0,l),
(180,18,l),
(89,34,l),
(469,651,l),
(459,663,l),
(450,34,l),
(340,18,l),
(337,0,l),
(644,0,l),
(646,18,l),
(588,33,l),
(597,700,l),
(471,700,l),
(-37,32,l),
(-96,18,l),
(-98,0,l)
);
},
{
closed = 1;
nodes = (
(458,217,l),
(463,258,l),
(191,258,l),
(175,217,l)
);
}
);
width = 700;
}
);
unicode = 65;
},
{
color = 5;
glyphname = B;
kernLeft = H;
kernRight = B;
lastChange = "2022-07-11 11:10:04 +0000";
layers = (
{
layerId = m01;
shapes = (
{
closed = 1;
nodes = (
(301,0,ls),
(461,0,o),
(573,66,o),
(573,198,cs),
(573,302,o),
(464,365,o),
(380,378,c),
(436,397,o),
(521,467,o),
(521,542,cs),
(521,630,o),
(452,700,o),
(264,700,cs),
(30,700,l),
(30,673,l),
(87,662,o),
(118,643,o),
(118,557,cs),
(118,133,ls),
(118,47,o),
(87,38,o),
(30,27,c),
(30,0,l)
);
},
{
closed = 1;
nodes = (
(264,47,o),
(216,65,o),
(216,133,cs),
(216,345,l),
(264,345,ls),
(398,345,o),
(473,278,o),
(473,188,cs),
(473,106,o),
(415,47,o),
(332,47,cs)
);
},
{
closed = 1;
nodes = (
(216,647,l),
(258,647,ls),
(392,647,o),
(422,580,o),
(422,525,cs),
(422,458,o),
(360,398,o),
(251,398,cs),
(216,398,l)
);
}
);
width = 603;
},
{
layerId = "B693E737-F65C-4B63-97BA-EB353033066E";
shapes = (
{
closed = 1;
nodes = (
(320,0,ls),
(468,0,o),
(612,66,o),
(612,205,cs),
(612,302,o),
(503,365,o),
(409,380,c),
(486,401,o),
(566,465,o),
(566,533,cs),
(566,630,o),
(459,700,o),
(261,700,cs),
(40,700,l),
(40,674,l),
(87,663,o),
(88,643,o),
(88,557,cs),
(88,143,ls),
(88,57,o),
(87,38,o),
(40,27,c),
(40,0,l)
);
},
{
closed = 1;
nodes = (
(285,47,o),
(246,68,o),
(246,142,cs),
(246,345,l),
(268,345,ls),
(391,345,o),
(455,278,o),
(455,188,cs),
(455,106,o),
(402,47,o),
(339,47,cs)
);
},
{
closed = 1;
nodes = (
(246,647,l),
(268,647,ls),
(379,647,o),
(410,580,o),
(410,525,cs),
(410,448,o),
(363,398,o),
(268,398,cs),
(246,398,l)
);
}
);
width = 647;
},
{
associatedMasterId = m01;
layerId = "1230E7B2-4C9B-4295-A195-DF3A9F087C47";
shapes = (
{
closed = 1;
nodes = (
(313,0,ls),
(477,0,o),
(578,66,o),
(578,196,cs),
(578,302,o),
(469,365,o),
(389,377,c),
(438,396,o),
(524,468,o),
(524,545,cs),
(524,630,o),
(468,700,o),
(283,700,cs),
(45,700,l),
(45,673,l),
(105,662,o),
(146,643,o),
(146,557,cs),
(146,130,ls),
(146,44,o),
(105,38,o),
(45,27,c),
(45,0,l)
);
},
{
closed = 1;
nodes = (
(275,47,o),
(224,64,o),
(224,130,cs),
(224,345,l),
(281,345,ls),
(419,345,o),
(497,278,o),
(497,188,cs),
(497,106,o),
(438,47,o),
(348,47,cs)
);
},
{
closed = 1;
nodes = (
(224,647,l),
(273,647,ls),
(415,647,o),
(444,580,o),
(444,525,cs),
(444,461,o),
(377,398,o),
(264,398,cs),
(224,398,l)
);
}
);
width = 613.33333;
},
{
layerId = "77A919B5-A12B-4FB4-B82B-A665849CE577";
shapes = (
{
closed = 1;
nodes = (
(152,0,ls),
(423,0,o),
(551,91,o),
(551,197,cs),
(551,282,o),
(457,333,o),
(351,361,c),
(491,392,o),
(601,473,o),
(601,549,cs),
(601,623,o),
(505,700,o),
(327,700,cs),
(170,700,l),
(166,685,l),
(245,672,l),
(53,33,l),
(-30,15,l),
(-35,0,l)
);
},
{
closed = 1;
nodes = (
(242,353,l),
(360,341,o),
(453,270,o),
(453,193,cs),
(453,95,o),
(359,37,o),
(148,37,c)
);
},
{
closed = 1;
nodes = (
(346,373,o),
(252,383,c),
(335,658,l),
(456,653,o),
(503,599,o),
(503,542,cs),
(503,438,o)
);
}
);
width = 618;
},
{
associatedMasterId = "77A919B5-A12B-4FB4-B82B-A665849CE577";
layerId = "30AE9628-F89F-4064-A4B7-CC895B668667";
name = "17 févr. 22 à 18:04";
shapes = (
{
closed = 1;
nodes = (
(152,0,ls),
(422,0,o),
(560,90,o),
(560,199,cs),
(560,343,o),
(298,384,o),
(206,376,c),
(198,349,l),
(316,346,o),
(458,291,o),
(458,183,cs),
(458,94,o),
(356,37,o),
(145,37,c),
(332,658,l),
(453,653,o),
(510,599,o),
(510,542,cs),
(510,486,o),
(451,418,o),
(334,359,c),
(346,341,l),
(485,389,o),
(609,469,o),
(609,549,cs),
(609,623,o),
(505,700,o),
(327,700,cs),
(170,700,l),
(166,685,l),
(248,672,l),
(55,33,l),
(-30,15,l),
(-35,0,l)
);
}
);
width = 622;
},
{
associatedMasterId = "77A919B5-A12B-4FB4-B82B-A665849CE577";
layerId = "39544DF1-9651-45CA-A000-621873861EE2";
name = "21 mars 22 à 16:17";
shapes = (
{
closed = 1;
nodes = (
(152,0,ls),
(423,0,o),
(551,91,o),
(551,197,cs),
(551,282,o),
(457,333,o),
(361,361,c),
(491,392,o),
(601,473,o),
(601,549,cs),
(601,623,o),
(505,700,o),
(327,700,cs),
(170,700,l),
(166,685,l),
(245,672,l),
(53,33,l),
(-30,15,l),
(-35,0,l)
);
},
{
closed = 1;
nodes = (
(241,346,l),
(359,334,o),
(456,270,o),
(456,183,cs),
(456,94,o),
(359,37,o),
(148,37,c)
);
},
{
closed = 1;
nodes = (
(277,378,o),
(266,380,o),
(252,383,c),
(335,658,l),
(456,653,o),
(505,599,o),
(505,542,cs),
(505,469,o),
(415,401,o),
(292,376,c)
);
}
);
width = 618;
},
{
layerId = m004;
shapes = (
{
closed = 1;
nodes = (
(180,0,ls),
(451,0,o),
(592,91,o),
(592,197,cs),
(592,282,o),
(485,333,o),
(379,361,c),
(519,392,o),
(642,473,o),
(642,549,cs),
(642,623,o),
(533,700,o),
(355,700,cs),
(154,700,l),
(150,685,l),
(229,672,l),
(37,33,l),
(-46,15,l),
(-51,0,l)
);
},
{
closed = 1;
nodes = (
(270,353,l),
(388,341,o),
(447,270,o),
(447,200,cs),
(447,102,o),
(367,37,o),
(176,37,c)
);
},
{
closed = 1;
nodes = (
(374,375,o),
(280,383,c),
(363,658,l),
(474,653,o),
(497,599,o),
(497,542,cs),
(497,438,o)
);
}
);
width = 640;
},
{
associatedMasterId = m004;
layerId = "EE2F476B-0769-4443-A60D-E3B41CB01EA4";
name = "17 févr. 22 à 18:04";
shapes = (
{
closed = 1;
nodes = (
(152,0,ls),
(422,0,o),
(560,90,o),
(560,199,cs),
(560,343,o),
(298,384,o),
(206,376,c),
(198,349,l),
(316,346,o),
(458,291,o),
(458,183,cs),
(458,94,o),
(356,37,o),
(145,37,c),
(332,658,l),
(453,653,o),
(510,599,o),
(510,542,cs),
(510,486,o),
(451,418,o),
(334,359,c),
(346,341,l),
(485,389,o),
(609,469,o),
(609,549,cs),
(609,623,o),
(505,700,o),
(327,700,cs),
(170,700,l),
(166,685,l),
(248,672,l),
(55,33,l),
(-30,15,l),
(-35,0,l)
);
}
);
width = 622;
},
{
associatedMasterId = m004;
layerId = "B472F4C9-CFB1-4011-A4AC-38C1595029C9";
name = "21 mars 22 à 16:17";
shapes = (
{
closed = 1;
nodes = (
(152,0,ls),
(423,0,o),
(551,91,o),
(551,197,cs),
(551,282,o),
(457,333,o),
(361,361,c),
(491,392,o),
(601,473,o),
(601,549,cs),
(601,623,o),
(505,700,o),
(327,700,cs),
(170,700,l),
(166,685,l),
(245,672,l),
(53,33,l),
(-30,15,l),
(-35,0,l)
);
},
{
closed = 1;
nodes = (
(241,346,l),
(359,334,o),
(456,270,o),
(456,183,cs),
(456,94,o),
(359,37,o),
(148,37,c)
);
},
{
closed = 1;
nodes = (
(277,378,o),
(266,380,o),
(252,383,c),
(335,658,l),
(456,653,o),
(505,599,o),
(505,542,cs),
(505,469,o),
(415,401,o),
(292,376,c)
);
}
);
width = 618;
}
);
metricLeft = H;
unicode = 66;
},
{
color = 5;
glyphname = C;
kernLeft = O;
kernRight = C;
lastChange = "2022-07-11 11:16:16 +0000";
layers = (
{
anchors = (
{
name = bottom;
pos = (381,0);
}
);
layerId = m01;
shapes = (
{
closed = 1;
nodes = (
(488,-14,o),
(585,18,o),
(646,47,c),
(667,215,l),
(644,219,l),
(594,111,o),
(531,40,o),
(439,40,cs),
(289,40,o),
(140,177,o),
(140,372,cs),
(140,523,o),
(239,659,o),
(362,659,cs),
(467,659,o),
(546,601,o),
(616,484,c),
(639,492,l),
(617,664,l),
(556,693,o),
(470,714,o),
(386,714,cs),
(187,714,o),
(30,548,o),
(30,349,cs),
(30,150,o),
(194,-14,o),
(404,-14,cs)
);
}
);
width = 692;
},
{
anchors = (
{
name = bottom;
pos = (401,0);
}
);
layerId = "B693E737-F65C-4B63-97BA-EB353033066E";
shapes = (
{
closed = 1;
nodes = (
(508,-14,o),
(621,18,o),
(682,47,c),
(686,222,l),
(663,226,l),
(600,121,o),
(531,43,o),
(459,43,cs),
(329,43,o),
(222,217,o),
(222,389,cs),
(222,530,o),
(281,658,o),
(382,658,cs),
(467,658,o),
(545,591,o),
(635,480,c),
(658,488,l),
(653,664,l),
(592,693,o),
(490,714,o),
(406,714,cs),
(207,714,o),
(35,558,o),
(35,349,cs),
(35,140,o),
(214,-14,o),
(424,-14,cs)
);
}
);
width = 716;
},
{
anchors = (
{
name = bottom;
pos = (381,0);
}
);
associatedMasterId = m01;
layerId = "1230E7B2-4C9B-4295-A195-DF3A9F087C47";
shapes = (
{
closed = 1;
nodes = (
(488,-14,o),
(580,18,o),
(641,47,c),
(667,213,l),
(644,217,l),
(599,108,o),
(538,39,o),
(439,39,cs),
(282,39,o),
(119,164,o),
(119,366,cs),
(119,521,o),
(232,658,o),
(362,658,cs),
(474,658,o),
(553,604,o),
(616,485,c),
(639,493,l),
(612,664,l),
(551,693,o),
(470,714,o),
(386,714,cs),
(187,714,o),
(35,545,o),
(35,349,cs),
(35,153,o),
(194,-14,o),
(404,-14,cs)
);
}
);
width = 697.33333;
},
{
anchors = (
{
name = bottom;
pos = (327,0);
}
);
layerId = "77A919B5-A12B-4FB4-B82B-A665849CE577";
shapes = (
{
closed = 1;
nodes = (
(347,-13,o),
(426,2,o),
(455,13,c),
(510,190,l),
(493,197,l),
(433,105,ls),
(392,43,o),
(359,28,o),
(323,28,cs),
(202,28,o),
(160,165,o),
(160,248,cs),
(160,435,o),
(337,670,o),
(470,670,cs),
(504,670,o),
(539,655,o),
(565,634,c),
(593,487,l),
(610,489,l),
(646,666,l),
(580,698,o),
(544,713,o),
(494,713,cs),
(284,713,o),
(57,438,o),
(57,224,cs),
(57,115,o),
(134,-13,o),
(293,-13,cs)
);
}
);
width = 589;
},
{
anchors = (
{
name = bottom;
pos = (330,0);
}
);
layerId = m004;
shapes = (
{
closed = 1;
nodes = (
(350,-13,o),
(449,0,o),
(478,6,c),
(542,201,l),
(525,208,l),
(455,124,ls),
(380,35,o),
(341,28,o),
(326,28,cs),
(234,28,o),
(193,155,o),
(193,248,cs),
(193,435,o),
(340,670,o),
(473,670,cs),
(507,670,o),
(524,662,o),
(548,646,c),
(604,477,l),
(621,479,l),
(661,676,l),
(595,708,o),
(547,713,o),
(497,713,cs),
(287,713,o),
(40,438,o),
(40,224,cs),
(40,107,o),
(137,-13,o),
(296,-13,cs)
);
}
);
width = 599;
}
);
metricLeft = O;
unicode = 67;
},
{
color = 5;
glyphname = D;
kernLeft = H;
kernRight = O;
lastChange = "2022-07-11 10:28:37 +0000";
layers = (
{
layerId = m01;
shapes = (
{
closed = 1;
nodes = (
(311,0,ls),
(544,0,o),
(707,139,o),
(707,367,cs),
(707,585,o),
(541,700,o),
(288,700,cs),
(30,700,l),
(30,673,l),
(87,662,o),
(118,643,o),
(118,557,cs),
(118,143,ls),
(118,57,o),
(87,38,o),
(30,27,c),
(30,0,l)
);
},
{
closed = 1;
nodes = (
(264,53,o),
(216,75,o),
(216,146,cs),
(216,647,l),
(265,647,ls),
(481,647,o),
(605,528,o),
(605,344,cs),
(605,184,o),
(496,53,o),
(353,53,cs)
);
}
);
width = 737;
},
{
layerId = "B693E737-F65C-4B63-97BA-EB353033066E";
shapes = (
{
closed = 1;
nodes = (
(351,0,ls),
(588,0,o),
(745,131,o),
(745,367,cs),
(745,574,o),
(585,700,o),
(304,700,cs),
(40,700,l),
(40,673,l),
(87,662,o),
(108,643,o),
(108,557,cs),
(108,143,ls),
(108,57,o),
(87,38,o),
(40,27,c),
(40,0,l)
);
},
{
closed = 1;
nodes = (
(305,53,o),
(266,79,o),
(266,147,cs),
(266,647,l),
(313,647,ls),
(485,647,o),
(583,529,o),
(583,344,cs),
(583,176,o),
(501,53,o),
(375,53,cs)
);
}
);
width = 780;
},
{
associatedMasterId = m01;
layerId = "1230E7B2-4C9B-4295-A195-DF3A9F087C47";
shapes = (
{
closed = 1;
nodes = (
(316,0,ls),
(548,0,o),
(713,142,o),
(713,367,cs),
(713,589,o),
(545,700,o),
(301,700,cs),
(45,700,l),
(45,673,l),
(105,662,o),
(140,643,o),
(140,557,cs),
(140,143,ls),
(140,57,o),
(105,38,o),
(45,27,c),
(45,0,l)
);
},
{
closed = 1;
nodes = (
(269,53,o),
(218,74,o),
(218,146,cs),
(218,647,l),
(267,647,ls),
(498,647,o),
(631,528,o),
(631,344,cs),
(631,187,o),
(513,53,o),
(364,53,cs)
);
}
);
width = 747.66667;
},
{
layerId = "77A919B5-A12B-4FB4-B82B-A665849CE577";
shapes = (
{
closed = 1;
nodes = (
(139,0,ls),
(429,0,o),
(661,245,o),
(661,435,cs),
(661,564,o),
(557,700,o),
(332,700,cs),
(169,700,l),
(165,685,l),
(244,672,l),
(51,33,l),
(-31,15,l),
(-34,0,l)
);
},
{
closed = 1;
nodes = (
(336,665,l),
(498,665,o),
(560,534,o),
(560,433,cs),
(560,276,o),
(403,37,o),
(146,37,c)
);
}
);
width = 669;
},
{
layerId = m004;
shapes = (
{
closed = 1;
nodes = (
(167,0,ls),
(457,0,o),
(691,245,o),
(691,435,cs),
(691,564,o),
(585,700,o),
(360,700,cs),
(153,700,l),
(149,685,l),
(228,672,l),
(35,33,l),
(-47,15,l),
(-50,0,l)
);
},
{
closed = 1;
nodes = (
(364,665,l),
(496,665,o),
(541,534,o),
(541,433,cs),
(541,276,o),
(431,37,o),
(174,37,c)
);
}
);
width = 685;
}
);
metricLeft = H;
unicode = 68;
},
{
color = 5;
glyphname = E;
kernLeft = H;
kernRight = E;
lastChange = "2022-07-11 12:56:40 +0000";
layers = (
{
anchors = (
{
name = bottom;
pos = (319,0);
},
{
name = top;
pos = (319,700);
}
);
layerId = m01;
shapes = (
{
closed = 1;
nodes = (
(216,49,l),
(216,700,l),
(30,700,l),
(30,675,l),
(87,664,o),
(118,645,o),
(118,559,cs),
(118,49,l)
);
},
{
closed = 1;
nodes = (
(558,0,l),
(581,173,l),
(555,177,l),
(527,88,o),
(466,53,o),
(350,53,cs),
(243,53,o),
(216,95,o),
(216,141,c),
(118,141,l),
(118,55,o),
(87,36,o),
(30,25,c),
(30,0,l)
);
},
{
closed = 1;
nodes = (
(446,235,l),
(446,483,l),
(419,483,l),
(411,427,o),
(389,386,o),
(303,386,cs),
(203,386,l),
(203,333,l),
(303,333,ls),
(389,333,o),
(410,295,o),
(419,235,c)
);
},
{
closed = 1;
nodes = (
(561,520,l),
(535,700,l),
(181,700,l),
(181,647,l),
(348,647,ls),
(436,647,o),
(494,605,o),
(535,513,c)
);
}
);
width = 601;
},
{
anchors = (
{
name = bottom;
pos = (329,0);
},
{
name = top;
pos = (317,700);
}
);
layerId = "B693E737-F65C-4B63-97BA-EB353033066E";
shapes = (
{
closed = 1;
nodes = (
(256,49,l),
(256,700,l),
(40,700,l),
(40,675,l),
(87,664,o),
(98,645,o),
(98,559,cs),
(98,49,l)
);
},
{
closed = 1;
nodes = (
(568,0,l),
(592,182,l),
(566,186,l),
(535,114,o),
(462,53,o),
(370,53,cs),
(265,53,o),
(256,95,o),
(256,141,c),
(98,141,l),
(98,55,o),
(87,36,o),
(40,25,c),
(40,0,l)
);
},
{
closed = 1;
nodes = (
(446,227,l),
(446,495,l),
(419,495,l),
(411,430,o),
(369,388,o),
(293,388,cs),
(221,388,l),
(221,335,l),
(293,335,ls),
(369,335,o),
(411,294,o),
(419,227,c)
);
},
{
closed = 1;
nodes = (
(573,510,l),
(545,700,l),
(191,700,l),
(191,647,l),
(345,647,ls),
(436,647,o),
(499,594,o),
(547,503,c)
);
}
);
width = 622;
},
{
anchors = (
{
name = bottom;
pos = (334,0);
},
{
name = top;
pos = (338,700);
}
);
associatedMasterId = m01;
layerId = "1230E7B2-4C9B-4295-A195-DF3A9F087C47";
shapes = (
{
closed = 1;
nodes = (
(221,49,l),
(221,700,l),
(45,700,l),
(45,675,l),
(105,664,o),
(143,645,o),
(143,559,cs),
(143,49,l)
);
},
{
closed = 1;
nodes = (
(573,0,l),
(596,170,l),
(570,174,l),
(543,79,o),
(486,53,o),
(362,53,cs),
(254,53,o),
(221,95,o),
(221,141,c),
(143,141,l),
(143,55,o),
(105,36,o),
(45,25,c),
(45,0,l)
);
},
{
closed = 1;
nodes = (
(464,238,l),
(464,479,l),
(437,479,l),
(429,426,o),
(414,385,o),
(325,385,cs),
(215,385,l),
(215,332,l),
(325,332,ls),
(414,332,o),
(428,295,o),
(437,238,c)
);
},
{
closed = 1;
nodes = (
(575,523,l),
(550,700,l),
(196,700,l),
(196,647,l),
(367,647,ls),
(454,647,o),
(511,609,o),
(549,516,c)
);
}
);
width = 625.66667;
},
{
anchors = (
{
name = bottom;
pos = (304,0);
},
{
name = top;
pos = (464,700);
}
);
layerId = "77A919B5-A12B-4FB4-B82B-A665849CE577";
shapes = (
{
closed = 1;
nodes = (
(239,0,l),
(240,18,l),
(144,18,l),
(342,682,l),
(430,682,l),
(434,700,l),
(180,700,l),
(176,686,l),
(243,664,l),
(56,37,l),
(-30,18,l),
(-31,0,l)
);
},
{
closed = 1;
nodes = (
(524,0,l),
(578,171,l),
(562,178,l),
(481,66,l),
(135,33,l),
(146,0,l)
);
},
{
closed = 1;
nodes = (
(495,464,l),
(478,470,l),
(418,381,l),
(236,356,l),
(231,330,l),
(404,320,l),
(414,220,l),
(432,219,l)
);
},
{
closed = 1;
nodes = (
(627,512,l),
(653,700,l),
(300,700,l),
(287,673,l),
(580,644,l),
(609,509,l)
);
}
);
width = 633;
},
{
anchors = (
{
name = bottom;
pos = (332,0);
},
{
name = top;
pos = (492,700);
}
);
layerId = m004;
shapes = (
{
closed = 1;
nodes = (
(267,0,l),
(268,18,l),
(172,18,l),
(370,682,l),
(458,682,l),
(462,700,l),
(164,700,l),
(160,686,l),
(227,664,l),
(40,37,l),
(-46,18,l),
(-47,0,l)
);
},
{
closed = 1;
nodes = (
(552,0,l),
(609,201,l),
(593,208,l),
(447,58,l),
(163,33,l),
(174,0,l)
);
},
{
closed = 1;
nodes = (
(519,469,l),
(502,475,l),
(407,378,l),
(261,356,l),
(256,330,l),
(397,324,l),
(436,211,l),
(454,210,l)
);
},
{
closed = 1;
nodes = (
(654,485,l),
(681,700,l),
(328,700,l),
(315,673,l),
(549,651,l),
(636,482,l)
);
}
);
width = 661;
}
);
metricLeft = H;
unicode = 69;
},
{
color = 5;
glyphname = F;
kernLeft = H;
kernRight = F;
lastChange = "2022-07-10 14:06:54 +0000";
layers = (
{
anchors = (
{
name = bottom;
pos = (192,0);
}
);
layerId = m01;
shapes = (
{
closed = 1;
nodes = (
(216,49,l),
(216,700,l),
(30,700,l),
(30,675,l),
(87,664,o),
(118,645,o),
(118,559,cs),
(118,49,l)
);
},
{
closed = 1;
nodes = (
(343,0,l),
(343,27,l),
(268,36,o),
(216,45,o),
(216,141,c),
(118,141,l),
(118,55,o),
(78,37,o),
(30,27,c),
(30,0,l)
);
},
{
closed = 1;
nodes = (
(435,224,l),
(435,482,l),
(408,482,l),
(400,425,o),
(378,385,o),
(292,385,cs),
(179,385,l),
(179,332,l),
(292,332,ls),
(378,332,o),
(398,288,o),
(408,224,c)
);
},
{
closed = 1;
nodes = (
(549,520,l),
(523,700,l),
(169,700,l),
(169,647,l),
(320,647,ls),
(424,647,o),
(482,605,o),
(523,513,c)
);
}
);
width = 564;
},
{
anchors = (
{
name = bottom;
pos = (208,0);
}
);
layerId = "B693E737-F65C-4B63-97BA-EB353033066E";
shapes = (
{
closed = 1;
nodes = (
(254,49,l),
(254,700,l),
(40,700,l),
(40,675,l),
(84,668,o),
(96,645,o),
(96,559,cs),
(96,49,l)
);
},
{
closed = 1;
nodes = (
(353,0,l),
(353,27,l),
(288,39,o),
(254,54,o),
(254,141,c),
(96,141,l),
(96,55,o),
(87,33,o),
(40,27,c),
(40,0,l)
);
},
{
closed = 1;
nodes = (
(433,216,l),
(433,494,l),
(406,494,l),
(398,437,o),
(366,387,o),
(280,387,cs),
(195,387,l),
(195,334,l),
(280,334,ls),
(366,334,o),
(396,280,o),
(406,216,c)
);
},
{
closed = 1;
nodes = (
(560,511,l),
(531,700,l),
(177,700,l),
(177,647,l),
(312,647,ls),
(422,647,o),
(487,596,o),
(534,504,c)
);
}
);
width = 570;
},
{
anchors = (
{
name = bottom;
pos = (207,0);
}
);
associatedMasterId = "B693E737-F65C-4B63-97BA-EB353033066E";
layerId = "33410CBF-A3E6-42EC-83BA-6ED866AB66B6";
name = "6 mai 21 à 12:51";
shapes = (
{
closed = 1;
nodes = (
(231,49,l),
(231,700,l),
(55,700,l),
(55,675,l),
(102,664,o),
(133,645,o),
(133,559,cs),
(133,49,l)
);
},
{
closed = 1;
nodes = (
(368,0,l),
(368,27,l),
(294,38,o),
(231,45,o),
(231,141,c),
(133,141,l),
(133,55,o),
(102,38,o),
(55,27,c),
(55,0,l)
);
},
{
closed = 1;
nodes = (
(430,226,l),
(430,484,l),
(403,484,l),
(395,427,o),
(373,387,o),
(287,387,cs),
(192,387,l),
(192,334,l),
(287,334,ls),
(373,334,o),
(393,290,o),
(403,226,c)
);
},
{
closed = 1;
nodes = (
(564,520,l),
(538,700,l),
(184,700,l),
(184,647,l),
(335,647,ls),
(439,647,o),
(497,605,o),
(538,513,c)
);
},
{
closed = 1;
nodes = (
(261,49,l),
(261,700,l),
(55,700,l),
(55,670,l),
(102,659,o),
(103,645,o),
(103,559,cs),
(103,49,l)
);
},
{
closed = 1;
nodes = (
(573,0,l),
(597,178,l),
(562,185,l),
(534,116,o),
(481,68,o),
(399,68,cs),
(318,68,ls),
(269,68,o),
(261,95,o),
(261,141,c),
(103,141,l),
(103,55,o),
(102,41,o),
(55,30,c),
(55,0,l)
);
},
{
closed = 1;
nodes = (
(446,237,l),
(446,485,l),
(414,485,l),
(406,429,o),
(374,396,o),
(298,396,cs),
(216,396,l),
(216,328,l),
(298,328,ls),
(374,328,o),
(405,297,o),
(414,237,c)
);
},
{
closed = 1;
nodes = (
(577,516,l),
(550,700,l),
(196,700,l),
(196,632,l),
(363,632,ls),
(451,632,o),
(501,584,o),
(541,504,c)
);
}
);
width = 600;
},
{
anchors = (
{
name = bottom;
pos = (205,0);
}
);
associatedMasterId = m01;
layerId = "1230E7B2-4C9B-4295-A195-DF3A9F087C47";
shapes = (
{
closed = 1;
nodes = (
(222,49,l),
(222,700,l),
(45,700,l),
(45,675,l),
(106,663,o),
(144,645,o),
(144,559,cs),
(144,49,l)
);
},
{
closed = 1;
nodes = (
(358,0,l),
(358,27,l),
(280,35,o),
(222,42,o),
(222,141,c),
(144,141,l),
(144,55,o),
(93,38,o),
(45,27,c),
(45,0,l)
);
},
{
closed = 1;
nodes = (
(454,227,l),
(454,478,l),
(427,478,l),
(419,421,o),
(400,384,o),
(314,384,cs),
(192,384,l),
(192,331,l),
(314,331,ls),
(400,331,o),
(417,291,o),
(427,227,c)
);
},
{
closed = 1;
nodes = (
(564,523,l),
(539,700,l),
(185,700,l),
(185,647,l),
(341,647,ls),
(443,647,o),
(499,608,o),
(538,516,c)
);
}
);
width = 591;
},
{
anchors = (
{
name = bottom;
pos = (198,0);
},
{
name = top;
pos = (-59,700);
}
);
layerId = "77A919B5-A12B-4FB4-B82B-A665849CE577";
shapes = (
{
closed = 1;
nodes = (
(239,0,l),
(240,18,l),
(150,38,l),
(342,682,l),
(430,682,l),
(434,700,l),
(180,700,l),
(176,686,l),
(243,664,l),
(56,37,l),
(-30,18,l),
(-31,0,l)
);
},
{
closed = 1;
nodes = (
(495,464,l),
(478,470,l),
(419,385,l),
(236,356,l),
(231,331,l),
(403,316,l),
(414,220,l),
(432,219,l)
);
},
{
closed = 1;
nodes = (
(627,511,l),
(653,700,l),
(300,700,l),
(287,673,l),
(570,638,l),
(609,508,l)
);
}
);
width = 575;
},
{
anchors = (
{
name = bottom;
pos = (226,0);
},
{
name = top;
pos = (-31,700);
}
);
layerId = m004;
shapes = (
{
closed = 1;
nodes = (
(267,0,l),
(268,18,l),
(178,38,l),
(370,682,l),
(458,682,l),
(462,700,l),
(164,700,l),
(160,686,l),
(227,664,l),
(40,37,l),
(-46,18,l),
(-47,0,l)
);
},
{
closed = 1;
nodes = (
(523,464,l),
(506,470,l),
(417,379,l),
(264,356,l),
(259,331,l),
(401,321,l),
(442,220,l),
(460,219,l)
);
},
{
closed = 1;
nodes = (
(651,491,l),
(681,700,l),
(328,700,l),
(315,673,l),
(548,648,l),
(633,488,l)
);
}
);
width = 601;
}
);
metricLeft = H;
unicode = 70;
},
{
color = 5;
glyphname = G;
kernLeft = O;
kernRight = G;
lastChange = "2022-07-11 10:47:42 +0000";
layers = (
{
layerId = m01;
shapes = (
{
closed = 1;
nodes = (
(495,-14,o),
(572,14,o),
(601,25,c),
(641,-14,l),
(665,-6,l),
(665,220,ls),
(665,305,o),
(677,324,o),
(730,335,c),
(730,362,l),
(416,362,l),
(416,335,l),
(512,329,o),
(567,304,o),
(567,219,cs),
(567,73,l),
(525,54,o),
(486,43,o),
(448,43,cs),
(290,43,o),
(139,182,o),
(139,384,cs),
(139,535,o),
(240,664,o),
(371,664,cs),
(476,664,o),
(556,591,o),
(625,484,c),
(648,492,l),
(626,664,l),
(565,693,o),
(479,714,o),
(395,714,cs),
(188,714,o),
(30,550,o),
(30,351,cs),
(30,152,o),
(188,-14,o),
(406,-14,cs)
);
}
);
width = 755;
},
{
associatedMasterId = m01;
layerId = "37BFCB5D-21D4-49FE-B61A-069847CE9392";
name = "17 mars 21 à 12:32";
shapes = (
{
closed = 1;
nodes = (
(529,-14,o),
(605,25,o),
(676,67,c),
(652,112,l),
(582,70,o),
(519,43,o),
(459,43,cs),
(301,43,o),
(150,190,o),
(150,384,cs),
(150,535,o),
(251,664,o),
(382,664,cs),
(487,664,o),
(565,589,o),
(636,482,c),
(659,492,l),
(637,664,l),
(576,693,o),
(490,714,o),
(406,714,cs),
(199,714,o),
(35,550,o),
(35,351,cs),
(35,152,o),
(199,-14,o),
(417,-14,cs)
);
},
{
closed = 1;
nodes = (
(658,-7,l),
(676,-2,l),
(676,219,l),
(676,220,ls),
(676,305,o),
(688,324,o),
(731,335,c),
(731,362,l),
(412,362,l),
(412,335,l),
(523,329,o),
(578,304,o),
(578,219,cs),
(578,71,l)
);
}
);
width = 761;
},
{
layerId = "B693E737-F65C-4B63-97BA-EB353033066E";
shapes = (
{
closed = 1;
nodes = (
(527,-14,o),
(592,10,o),
(628,25,c),
(683,-12,l),
(708,-8,l),
(708,220,ls),
(708,305,o),
(722,324,o),
(755,335,c),
(755,362,l),
(434,362,l),
(434,335,l),
(505,329,o),
(550,304,o),
(550,219,cs),
(550,73,l),
(530,55,o),
(498,43,o),
(469,43,cs),
(331,43,o),
(222,210,o),
(222,384,cs),
(222,535,o),
(281,663,o),
(392,663,cs),
(484,663,o),
(570,576,o),
(649,478,c),
(672,486,l),
(663,664,l),
(602,693,o),
(500,714,o),
(416,714,cs),
(203,714,o),
(35,550,o),
(35,351,cs),
(35,152,o),
(209,-14,o),
(427,-14,cs)
);
}
);
width = 785;
},
{
associatedMasterId = "B693E737-F65C-4B63-97BA-EB353033066E";
layerId = "9DFC0D68-50C3-422F-B643-2C4F263F6BC0";
name = "20 mai 21 à 14:26";
shapes = (
{
closed = 1;
nodes = (
(495,-14,o),
(592,18,o),
(653,47,c),
(674,215,l),
(651,219,l),
(588,114,o),
(518,43,o),
(446,43,cs),
(316,43,o),
(209,217,o),
(209,389,cs),
(209,530,o),
(268,662,o),
(369,662,cs),
(454,662,o),
(533,595,o),
(623,484,c),
(646,492,l),
(624,664,l),
(563,693,o),
(477,714,o),
(393,714,cs),
(194,714,o),
(35,548,o),
(35,349,cs),
(35,150,o),
(201,-14,o),
(411,-14,cs)
);
}
);
width = 758;
},
{
associatedMasterId = m01;
layerId = "1230E7B2-4C9B-4295-A195-DF3A9F087C47";
shapes = (
{
closed = 1;
nodes = (
(491,-14,o),
(572,15,o),
(599,25,c),
(634,-15,l),
(657,-5,l),
(657,220,ls),
(657,305,o),
(669,324,o),
(728,335,c),
(728,362,l),
(417,362,l),
(417,335,l),
(521,329,o),
(579,304,o),
(579,219,cs),
(579,73,l),
(530,54,o),
(489,43,o),
(448,43,cs),
(283,43,o),
(118,173,o),
(118,384,cs),
(118,535,o),
(233,664,o),
(371,664,cs),
(480,664,o),
(558,596,o),
(624,486,c),
(647,494,l),
(620,664,l),
(559,693,o),
(479,714,o),
(395,714,cs),
(190,714,o),
(35,550,o),
(35,351,cs),
(35,152,o),
(188,-14,o),
(406,-14,cs)
);
}
);
width = 758.33333;
},
{
anchors = (
{
name = bottom;
pos = (304,0);
}
);
layerId = "77A919B5-A12B-4FB4-B82B-A665849CE577";
shapes = (
{
closed = 1;
nodes = (
(486,-14,l),
(568,282,l),
(634,299,l),
(638,317,l),
(340,317,l),
(337,300,l),
(475,281,l),
(417,73,l),
(402,55,o),
(360,28,o),
(319,28,cs),
(208,28,o),
(161,159,o),
(161,251,cs),
(161,430,o),
(337,670,o),
(471,670,cs),
(505,670,o),
(540,655,o),
(566,634,c),
(594,487,l),
(611,489,l),
(647,666,l),
(581,698,o),
(545,713,o),
(495,713,cs),
(285,713,o),
(58,436,o),
(58,229,cs),
(58,100,o),
(146,-13,o),
(293,-13,cs),
(343,-13,o),
(391,8,o),
(438,45,c),
(471,-14,l)
);
}
);
width = 659;
},
{
associatedMasterId = "77A919B5-A12B-4FB4-B82B-A665849CE577";
layerId = "1A4331EF-C3BA-4F93-9E2C-C05D51D8A77E";
name = "17 mars 21 à 12:32";
shapes = (
{
closed = 1;
nodes = (
(529,-14,o),
(605,25,o),
(676,67,c),
(652,112,l),
(582,70,o),
(519,43,o),
(459,43,cs),
(301,43,o),
(150,190,o),
(150,384,cs),
(150,535,o),
(251,664,o),
(382,664,cs),
(487,664,o),
(565,589,o),
(636,482,c),
(659,492,l),
(637,664,l),
(576,693,o),
(490,714,o),
(406,714,cs),
(199,714,o),
(35,550,o),
(35,351,cs),
(35,152,o),
(199,-14,o),
(417,-14,cs)
);
},
{
closed = 1;
nodes = (
(658,-7,l),
(676,-2,l),
(676,219,l),
(676,220,ls),
(676,305,o),
(688,324,o),
(731,335,c),
(731,362,l),
(412,362,l),
(412,335,l),
(523,329,o),
(578,304,o),
(578,219,cs),
(578,71,l)
);
}
);
width = 761;
},
{
anchors = (
{
name = bottom;
pos = (317,0);
}
);
layerId = m004;
shapes = (
{
closed = 1;
nodes = (
(532,-14,l),
(611,282,l),
(677,299,l),
(681,317,l),
(343,317,l),
(340,300,l),
(474,281,l),
(416,63,l),
(401,49,o),
(373,28,o),
(332,28,cs),
(221,28,o),
(194,159,o),
(194,251,cs),
(194,430,o),
(340,670,o),
(474,670,cs),
(508,670,o),
(524,663,o),
(549,646,c),
(605,477,l),
(622,479,l),
(662,676,l),
(596,706,o),
(558,713,o),
(498,713,cs),
(287,713,o),
(41,436,o),
(41,229,cs),
(41,100,o),
(159,-13,o),
(306,-13,cs),
(355,-13,o),
(410,6,o),
(456,25,c),
(517,-14,l)
);
}
);
width = 678;
},
{
associatedMasterId = m004;
layerId = "7E4DC93A-486D-40A2-B525-5332313AF4D7";
name = "17 mars 21 à 12:32";
shapes = (
{
closed = 1;
nodes = (
(529,-14,o),
(605,25,o),
(676,67,c),
(652,112,l),
(582,70,o),
(519,43,o),
(459,43,cs),
(301,43,o),
(150,190,o),
(150,384,cs),
(150,535,o),
(251,664,o),
(382,664,cs),
(487,664,o),
(565,589,o),
(636,482,c),
(659,492,l),
(637,664,l),
(576,693,o),
(490,714,o),
(406,714,cs),
(199,714,o),
(35,550,o),
(35,351,cs),
(35,152,o),
(199,-14,o),
(417,-14,cs)
);
},
{
closed = 1;
nodes = (
(658,-7,l),
(676,-2,l),
(676,219,l),
(676,220,ls),
(676,305,o),
(688,324,o),
(731,335,c),
(731,362,l),
(412,362,l),
(412,335,l),
(523,329,o),
(578,304,o),
(578,219,cs),
(578,71,l)
);
}
);
width = 761;
}
);
metricLeft = O;
unicode = 71;
},
{
color = 5;
glyphname = H;
kernLeft = H;
kernRight = H;
lastChange = "2022-07-11 10:35:43 +0000";
layers = (
{
anchors = (
{
name = bottom;
pos = (404,0);
}
);
layerId = m01;
shapes = (
{
closed = 1;
nodes = (
(682,51,l),
(682,623,l),
(584,623,l),
(584,51,l)
);
},
{
closed = 1;
nodes = (
(333,0,l),
(333,27,l),
(270,34,o),
(216,57,o),
(216,141,c),
(118,141,l),
(118,57,o),
(87,38,o),
(30,27,c),
(30,0,l)
);
},
{
closed = 1;
nodes = (
(216,51,l),
(216,623,l),
(118,623,l),
(118,51,l)
);
},
{
closed = 1;
nodes = (
(769,0,l),
(769,27,l),
(716,38,o),
(682,57,o),
(682,141,c),
(584,141,l),
(584,57,o),
(543,34,o),
(476,27,c),
(476,0,l)
);
},
{
closed = 1;
nodes = (
(645,332,l),
(645,385,l),
(183,385,l),
(183,332,l)
);
},
{
closed = 1;
nodes = (
(216,557,l),
(216,643,o),
(270,666,o),
(333,673,c),
(333,700,l),
(30,700,l),
(30,673,l),
(87,662,o),
(118,643,o),
(118,557,c)
);
},
{
closed = 1;
nodes = (
(682,557,l),
(682,643,o),
(716,662,o),
(769,673,c),
(769,700,l),
(476,700,l),
(476,673,l),
(543,666,o),
(584,643,o),
(584,557,c)
);
}
);
width = 799;
},
{
anchors = (
{
name = bottom;
pos = (414,0);
}
);
layerId = "B693E737-F65C-4B63-97BA-EB353033066E";
shapes = (
{
closed = 1;
nodes = (
(712,51,l),
(712,623,l),
(554,623,l),
(554,51,l)
);
},
{
closed = 1;
nodes = (
(343,0,l),
(343,27,l),
(290,34,o),
(266,57,o),
(266,141,c),
(108,141,l),
(108,57,o),
(87,38,o),
(40,27,c),
(40,0,l)
);
},
{
closed = 1;
nodes = (
(266,51,l),
(266,623,l),
(108,623,l),
(108,51,l)
);
},
{
closed = 1;
nodes = (
(779,0,l),
(779,27,l),
(736,38,o),
(712,57,o),
(712,141,c),
(554,141,l),
(554,57,o),
(543,34,o),
(486,27,c),
(486,0,l)
);
},
{
closed = 1;
nodes = (
(655,332,l),
(655,385,l),
(193,385,l),
(193,332,l)
);
},
{
closed = 1;
nodes = (
(266,557,l),
(266,643,o),
(290,666,o),
(343,673,c),
(343,700,l),
(40,700,l),
(40,673,l),
(87,662,o),
(108,643,o),
(108,557,c)
);
},
{
closed = 1;
nodes = (
(712,557,l),
(712,643,o),
(736,662,o),
(779,673,c),
(779,700,l),
(486,700,l),
(486,673,l),
(543,666,o),
(554,643,o),
(554,557,c)
);
}
);
width = 819;
},
{
anchors = (
{
name = bottom;
pos = (419,0);
}
);
associatedMasterId = m01;
layerId = "1230E7B2-4C9B-4295-A195-DF3A9F087C47";
shapes = (
{
closed = 1;
nodes = (
(690,51,l),
(690,623,l),
(612,623,l),
(612,51,l)
);
},
{
closed = 1;
nodes = (
(348,0,l),
(348,27,l),
(282,34,o),
(218,57,o),
(218,141,c),
(140,141,l),
(140,57,o),
(105,38,o),
(45,27,c),
(45,0,l)
);
},
{
closed = 1;
nodes = (
(218,51,l),
(218,623,l),
(140,623,l),
(140,51,l)
);
},
{
closed = 1;
nodes = (
(784,0,l),
(784,27,l),
(728,38,o),
(690,57,o),
(690,141,c),
(612,141,l),
(612,57,o),
(561,34,o),
(491,27,c),
(491,0,l)
);
},
{
closed = 1;
nodes = (
(660,332,l),
(660,385,l),
(198,385,l),
(198,332,l)
);
},
{
closed = 1;
nodes = (
(218,557,l),
(218,643,o),
(282,666,o),
(348,673,c),
(348,700,l),
(45,700,l),
(45,673,l),
(105,662,o),
(140,643,o),
(140,557,c)
);
},
{
closed = 1;
nodes = (
(690,557,l),
(690,643,o),
(728,662,o),
(784,673,c),
(784,700,l),
(491,700,l),
(491,673,l),
(561,666,o),
(612,643,o),
(612,557,c)
);
}
);
width = 829;
},
{
anchors = (
{
name = bottom;
pos = (303,0);
}
);
layerId = "77A919B5-A12B-4FB4-B82B-A665849CE577";
shapes = (
{
closed = 1;
nodes = (
(616,334,l),
(631,376,l),
(196,376,l),
(180,334,l)
);
},
{
ref = I;
},
{
pos = (435,0);
ref = I;
}
);
width = 777;
},
{
anchors = (
{
name = bottom;
pos = (293,0);
}
);
layerId = m004;
shapes = (
{
closed = 1;
nodes = (
(618,334,l),
(633,376,l),
(198,376,l),
(182,334,l)
);
},
{
ref = I;
},
{
pos = (425,0);
ref = I;
}
);
width = 783;
}
);
metricLeft = I;
metricRight = I;
unicode = 72;
},
{
color = 5;
glyphname = I;
kernLeft = H;
kernRight = H;
lastChange = "2022-07-07 09:31:49 +0000";
layers = (
{
anchors = (
{
name = top;
pos = (166,700);
}
);
layerId = m01;
shapes = (
{
closed = 1;
nodes = (
(216,51,l),
(216,623,l),
(118,623,l),
(118,51,l)
);
},
{
closed = 1;
nodes = (
(303,0,l),
(303,27,l),
(250,38,o),
(216,57,o),
(216,143,c),
(118,143,l),
(118,57,o),
(87,38,o),
(30,27,c),
(30,0,l)
);
},
{
closed = 1;
nodes = (
(216,557,l),
(216,643,o),
(250,662,o),
(303,673,c),
(303,700,l),
(30,700,l),
(30,673,l),
(87,662,o),
(118,643,o),
(118,557,c)
);
}
);
width = 333;
},
{
anchors = (
{
name = top;
pos = (176,700);
}
);
layerId = "B693E737-F65C-4B63-97BA-EB353033066E";
shapes = (
{
closed = 1;
nodes = (
(256,51,l),
(256,623,l),
(98,623,l),
(98,51,l)
);
},
{
closed = 1;
nodes = (
(313,0,l),
(313,27,l),
(270,34,o),
(256,57,o),
(256,143,c),
(98,143,l),
(98,57,o),
(87,34,o),
(40,27,c),
(40,0,l)
);
},
{
closed = 1;
nodes = (
(256,557,l),
(256,643,o),
(270,666,o),
(313,672,c),
(313,700,l),
(40,700,l),
(40,672,l),
(87,666,o),
(98,643,o),
(98,557,c)
);
}
);
width = 353;
},
{
anchors = (
{
name = top;
pos = (181,700);
}
);
associatedMasterId = m01;
layerId = "1230E7B2-4C9B-4295-A195-DF3A9F087C47";
shapes = (
{
closed = 1;
nodes = (
(221,51,l),
(221,623,l),
(143,623,l),
(143,51,l)
);
},
{
closed = 1;
nodes = (
(318,0,l),
(318,27,l),
(262,39,o),
(221,57,o),
(221,143,c),
(143,143,l),
(143,57,o),
(105,39,o),
(45,27,c),
(45,0,l)
);
},
{
closed = 1;
nodes = (
(221,557,l),
(221,643,o),
(262,661,o),
(318,673,c),
(318,700,l),
(45,700,l),
(45,673,l),
(105,661,o),
(143,643,o),
(143,557,c)
);
}
);
width = 363;
},
{
anchors = (
{
name = top;
pos = (311,700);
}
);
layerId = "77A919B5-A12B-4FB4-B82B-A665849CE577";
shapes = (
{
closed = 1;
nodes = (
(239,0,l),
(240,18,l),
(152,38,l),
(338,662,l),
(430,682,l),
(434,700,l),
(180,700,l),
(176,686,l),
(245,664,l),
(58,38,l),
(-30,18,l),
(-31,0,l)
);
}
);
width = 342;
},
{
anchors = (
{
name = top;
pos = (329,700);
}
);
layerId = m004;
shapes = (
{
closed = 1;
nodes = (
(267,0,l),
(268,18,l),
(180,38,l),
(367,662,l),
(459,682,l),
(463,700,l),
(165,700,l),
(161,686,l),
(230,664,l),
(42,38,l),
(-46,18,l),
(-47,0,l)
);
}
);
width = 358;
}
);
unicode = 73;
},
{
color = 5;
glyphname = J;
kernLeft = J;
kernRight = J;
lastChange = "2022-07-11 11:19:12 +0000";
layers = (
{
layerId = m01;
shapes = (
{
closed = 1;
nodes = (
(117,-195,o),
(213,-69,o),
(213,60,cs),
(213,623,l),
(115,623,l),
(115,76,ls),
(115,-46,o),
(97,-147,o),
(0,-231,c),
(14,-255,l)
);
},
{
closed = 1;
nodes = (
(213,557,l),
(213,643,o),
(247,662,o),
(300,673,c),
(300,700,l),
(17,700,l),
(17,673,l),
(85,663,o),
(115,643,o),
(115,557,c)
);
}
);
width = 330;
},
{
layerId = "B693E737-F65C-4B63-97BA-EB353033066E";
shapes = (
{
closed = 1;
nodes = (
(116,-188,o),
(242,-57,o),
(242,82,cs),
(242,623,l),
(84,623,l),
(84,76,ls),
(84,-46,o),
(81,-132,o),
(0,-231,c),
(13,-255,l)
);
},
{
closed = 1;
nodes = (
(242,557,l),
(242,643,o),
(256,666,o),
(299,673,c),
(299,700,l),
(16,700,l),
(16,673,l),
(74,667,o),
(84,643,o),
(84,557,c)
);
}
);
width = 339;
},
{
associatedMasterId = m01;
layerId = "1230E7B2-4C9B-4295-A195-DF3A9F087C47";
shapes = (
{
closed = 1;
nodes = (
(120,-197,o),
(206,-73,o),
(206,53,cs),
(206,623,l),
(128,623,l),
(128,76,ls),
(128,-46,o),
(105,-152,o),
(3,-231,c),
(17,-255,l)
);
},
{
closed = 1;
nodes = (
(206,557,l),
(206,643,o),
(247,661,o),
(303,673,c),
(303,700,l),
(20,700,l),
(20,673,l),
(91,662,o),
(128,643,o),
(128,557,c)
);
}
);
width = 338;
},
{
anchors = (
{
name = top;
pos = (-68,700);
}
);
layerId = "77A919B5-A12B-4FB4-B82B-A665849CE577";
shapes = (
{
closed = 1;
nodes = (
(-40,-162,o),
(120,-36,o),
(155,82,cs),
(328,662,l),
(411,682,l),
(415,700,l),
(161,700,l),
(157,686,l),
(235,664,l),
(69,108,ls),
(37,0,o),
(-48,-112,o),
(-152,-211,c),
(-142,-226,l)
);
}
);
width = 323;
},
{
anchors = (
{
name = top;
pos = (-74,700);
}
);
layerId = m004;
shapes = (
{
closed = 1;
nodes = (
(-10,-140,o),
(162,-23,o),
(201,108,cs),
(366,662,l),
(449,682,l),
(453,700,l),
(155,700,l),
(151,686,l),
(229,664,l),
(63,108,ls),
(31,0,o),
(-54,-112,o),
(-158,-211,c),
(-148,-226,l)
);
}
);
width = 348;
}
);
metricRight = H;
unicode = 74;
},
{
color = 5;
glyphname = K;
kernLeft = H;
kernRight = K;
lastChange = "2022-07-11 10:40:35 +0000";
layers = (
{
layerId = m01;
shapes = (
{
closed = 1;
nodes = (
(708,0,l),
(708,26,l),
(691,31,ls),
(635,48,o),
(545,144,o),
(461,242,cs),
(321,407,l),
(294,320,l),
(494,558,ls),
(563,641,o),
(621,668,o),
(656,671,c),
(656,700,l),
(404,700,l),
(404,672,l),
(456,670,o),
(484,636,o),
(445,590,cs),
(243,348,l),
(536,0,l)
);
},
{
closed = 1;
nodes = (
(320,0,l),
(320,27,l),
(265,34,o),
(216,55,o),
(216,141,cs),
(216,557,ls),
(216,643,o),
(250,662,o),
(293,673,c),
(293,700,l),
(30,700,l),
(30,673,l),
(87,662,o),
(118,643,o),
(118,557,cs),
(118,141,ls),
(118,55,o),
(87,38,o),
(30,27,c),
(30,0,l)
);
}
);
width = 678;
},
{
layerId = "B693E737-F65C-4B63-97BA-EB353033066E";
shapes = (
{
closed = 1;
nodes = (
(755,0,l),
(755,26,l),
(740,31,ls),
(710,41,o),
(630,142,o),
(552,244,cs),
(410,429,l),
(332,322,l),
(535,558,ls),
(605,640,o),
(661,668,o),
(686,671,c),
(686,700,l),
(444,700,l),
(444,672,l),
(496,670,o),
(524,636,o),
(485,590,cs),
(283,348,l),
(549,0,l)
);
},
{
closed = 1;
nodes = (
(353,0,l),
(353,27,l),
(285,34,o),
(256,55,o),
(256,141,cs),
(256,557,ls),
(256,643,o),
(270,662,o),
(313,673,c),
(313,700,l),
(40,700,l),
(40,673,l),
(87,662,o),
(98,643,o),
(98,557,cs),
(98,141,ls),
(98,55,o),
(87,38,o),
(40,27,c),
(40,0,l)
);
}
);
width = 715;
},
{
associatedMasterId = m01;
layerId = "1230E7B2-4C9B-4295-A195-DF3A9F087C47";
shapes = (
{
closed = 1;
nodes = (
(711,0,l),
(711,26,l),
(693,31,ls),
(628,50,o),
(535,145,o),
(449,241,cs),
(310,400,l),
(300,319,l),
(499,558,ls),
(567,641,o),
(626,668,o),
(664,671,c),
(664,700,l),
(409,700,l),
(409,672,l),
(461,670,o),
(489,636,o),
(450,590,cs),
(248,348,l),
(550,0,l)
);
},
{
closed = 1;
nodes = (
(327,0,l),
(327,27,l),
(277,34,o),
(221,55,o),
(221,141,cs),
(221,557,ls),
(221,643,o),
(262,662,o),
(305,673,c),
(305,700,l),
(45,700,l),
(45,673,l),
(105,662,o),
(143,643,o),
(143,557,cs),
(143,141,ls),
(143,55,o),
(105,38,o),
(45,27,c),
(45,0,l)
);
}
);
width = 690.66667;
},
{
layerId = "77A919B5-A12B-4FB4-B82B-A665849CE577";
shapes = (
{
closed = 1;
nodes = (
(581,0,l),
(588,17,l),
(308,390,l),
(293,338,l),
(705,671,l),
(754,682,l),
(756,700,l),
(536,700,l),
(532,683,l),
(589,669,l),
(259,349,l),
(468,0,l)
);
},
{
ref = I;
}
);
width = 638;
},
{
layerId = m004;
shapes = (
{
closed = 1;
nodes = (
(640,0,l),
(648,17,l),
(331,390,l),
(316,338,l),
(749,671,l),
(798,682,l),
(800,700,l),
(550,700,l),
(546,683,l),
(603,669,l),
(282,349,l),
(479,0,l)
);
},
{
ref = I;
}
);
width = 675;
}
);
metricLeft = H;
unicode = 75;
},
{
color = 5;
glyphname = L;
kernLeft = H;
kernRight = L;
lastChange = "2022-07-07 09:44:05 +0000";
layers = (
{
anchors = (
{
name = bottom;
pos = (302,0);
}
);
layerId = m01;
shapes = (
{
closed = 1;
nodes = (
(546,0,l),
(567,216,l),
(541,220,l),
(504,104,o),
(456,53,o),
(340,53,cs),
(233,53,o),
(216,85,o),
(216,141,cs),
(216,557,ls),
(216,643,o),
(258,664,o),
(311,673,c),
(311,700,l),
(30,700,l),
(30,673,l),
(87,662,o),
(118,643,o),
(118,557,cs),
(118,143,ls),
(118,57,o),
(87,38,o),
(30,27,c),
(30,0,l)
);
}
);
width = 582;
},
{
anchors = (
{
name = bottom;
pos = (312,0);
}
);
layerId = "B693E737-F65C-4B63-97BA-EB353033066E";
shapes = (
{
closed = 1;
nodes = (
(556,0,l),
(580,229,l),
(554,233,l),
(517,114,o),
(446,53,o),
(336,53,cs),
(273,53,o),
(256,85,o),
(256,131,cs),
(256,557,ls),
(256,643,o),
(280,662,o),
(323,673,c),
(323,700,l),
(40,700,l),
(40,673,l),
(87,662,o),
(98,643,o),
(98,557,cs),
(98,143,ls),
(98,57,o),
(87,38,o),
(40,27,c),
(40,0,l)
);
}
);
width = 590;
},
{
anchors = (
{
name = bottom;
pos = (317,0);
}
);
associatedMasterId = m01;
layerId = "1230E7B2-4C9B-4295-A195-DF3A9F087C47";
shapes = (
{
closed = 1;
nodes = (
(561,0,l),
(581,212,l),
(555,216,l),
(518,101,o),
(478,53,o),
(360,53,cs),
(238,53,o),
(221,85,o),
(221,144,cs),
(221,557,ls),
(221,643,o),
(269,665,o),
(325,673,c),
(325,700,l),
(45,700,l),
(45,673,l),
(105,662,o),
(143,643,o),
(143,557,cs),
(143,143,ls),
(143,57,o),
(105,38,o),
(45,27,c),
(45,0,l)
);
}
);
width = 622;
},
{
anchors = (
{
name = bottom;
pos = (250,0);
},
{
name = top;
pos = (424,700);
}
);
layerId = "77A919B5-A12B-4FB4-B82B-A665849CE577";
shapes = (
{
closed = 1;
nodes = (
(496,0,l),
(550,172,l),
(534,179,l),
(444,68,l),
(139,37,l),
(118,0,l)
);
},
{
ref = I;
}
);
width = 589;
},
{
anchors = (
{
name = bottom;
pos = (250,0);
},
{
name = top;
pos = (424,700);
}
);
layerId = m004;
shapes = (
{
closed = 1;
nodes = (
(496,0,l),
(558,196,l),
(542,203,l),
(392,58,l),
(139,37,l),
(118,0,l)
);
},
{
ref = I;
}
);
width = 587;
}
);
metricLeft = H;
metricRight = F;
unicode = 76;
},
{
color = 5;
glyphname = M;
kernLeft = M;
kernRight = M;
lastChange = "2022-07-11 12:58:33 +0000";
layers = (
{
layerId = m01;
shapes = (
{
closed = 1;
nodes = (
(265,0,l),
(265,27,l),
(208,33,o),
(153,64,o),
(161,141,cs),
(210,609,l),
(192,606,l),
(440,53,l),
(464,53,l),
(709,626,l),
(677,700,l),
(453,174,l),
(493,174,l),
(257,700,l),
(64,700,l),
(64,674,l),
(123,658,o),
(153,631,o),
(146,569,cs),
(102,154,ls),
(93,68,o),
(73,47,o),
(15,27,c),
(15,0,l)
);
},
{
closed = 1;
nodes = (
(924,0,l),
(924,27,l),
(868,38,o),
(839,72,o),
(831,141,cs),
(780,557,ls),
(771,633,o),
(810,662,o),
(863,673,c),
(863,700,l),
(678,700,l),
(733,141,ls),
(741,55,o),
(681,37,o),
(637,27,c),
(637,0,l)
);
}
);
width = 934;
},
{
layerId = "B693E737-F65C-4B63-97BA-EB353033066E";
shapes = (
{
closed = 1;
nodes = (
(277,0,l),
(277,27,l),
(208,33,o),
(156,64,o),
(164,148,cs),
(203,572,l),
(202,572,l),
(415,53,l),
(469,53,l),
(687,617,l),
(655,700,l),
(490,251,l),
(492,251,l),
(311,700,l),
(69,700,l),
(69,674,l),
(111,668,o),
(148,641,o),
(141,568,cs),
(101,154,ls),
(93,68,o),
(73,47,o),
(25,27,c),
(25,0,l)
);
},
{
closed = 1;
nodes = (
(924,0,l),
(924,27,l),
(887,36,o),
(873,55,o),
(863,141,cs),
(816,557,ls),
(807,633,o),
(826,662,o),
(869,673,c),
(869,700,l),
(654,700,l),
(705,141,ls),
(713,55,o),
(680,37,o),
(637,27,c),
(637,0,l)
);
}
);
width = 944;
},
{
associatedMasterId = m01;
layerId = "1230E7B2-4C9B-4295-A195-DF3A9F087C47";
shapes = (
{
closed = 1;
nodes = (
(284,0,l),
(284,27,l),
(231,33,o),
(175,64,o),
(183,139,cs),
(236,621,l),
(212,617,l),
(472,53,l),
(486,53,l),
(740,629,l),
(708,700,l),
(464,148,l),
(517,148,l),
(262,700,l),
(86,700,l),
(86,674,l),
(150,655,o),
(178,628,o),
(171,569,cs),
(126,154,ls),
(116,68,o),
(96,47,o),
(35,27,c),
(35,0,l)
);
},
{
closed = 1;
nodes = (
(947,0,l),
(947,27,l),
(885,39,o),
(851,78,o),
(844,141,cs),
(791,557,ls),
(782,633,o),
(828,662,o),
(884,673,c),
(884,700,l),
(709,700,l),
(766,141,ls),
(774,55,o),
(705,37,o),
(660,27,c),
(660,0,l)
);
}
);
width = 982.33333;
},
{
layerId = "77A919B5-A12B-4FB4-B82B-A665849CE577";
shapes = (
{
closed = 1;
nodes = (
(749,607,l),
(740,696,l),
(734,700,l),
(411,170,l),
(437,180,l),
(376,700,l),
(212,700,l),
(208,683,l),
(287,667,l),
(358,63,l),
(372,59,l)
);
},
{
closed = 1;
nodes = (
(184,0,l),
(184,17,l),
(113,33,l),
(306,643,l),
(291,678,l),
(14,33,l),
(-50,17,l),
(-50,0,l)
);
},
{
closed = 1;
nodes = (
(790,0,l),
(790,17,l),
(727,32,l),
(816,667,l),
(889,683,l),
(892,700,l),
(734,700,l),
(634,35,l),
(543,17,l),
(543,0,l)
);
}
);
width = 865;
},
{
associatedMasterId = "77A919B5-A12B-4FB4-B82B-A665849CE577";
layerId = "F35CFD71-FB89-4578-A45B-C20745B88C15";
name = "3 févr. 22 à 12:33";
shapes = (
{
closed = 1;
nodes = (
(383,49,l),
(751,616,l),
(739,696,l),
(733,700,l),
(406,160,l),
(445,170,l),
(376,700,l),
(211,700,l),
(210,676,l),
(280,651,l),
(359,49,l)
);
},
{
closed = 1;
nodes = (
(197,0,l),
(197,27,l),
(117,46,l),
(317,644,l),
(282,658,l),
(29,45,l),
(-37,26,l),
(-37,0,l)
);
},
{
closed = 1;
nodes = (
(813,0,l),
(813,26,l),
(754,45,l),
(821,653,l),
(891,675,l),
(891,700,l),
(733,700,l),
(656,48,l),
(566,26,l),
(566,0,l)
);
}
);
width = 882;
},
{
layerId = m004;
shapes = (
{
closed = 1;
nodes = (
(750,596,l),
(760,700,l),
(735,700,l),
(410,169,l),
(475,221,l),
(421,700,l),
(213,700,l),
(209,683,l),
(288,667,l),
(357,63,l),
(371,59,l)
);
},
{
closed = 1;
nodes = (
(188,0,l),
(188,17,l),
(117,33,l),
(310,643,l),
(295,678,l),
(-8,33,l),
(-72,17,l),
(-72,0,l)
);
},
{
closed = 1;
nodes = (
(852,0,l),
(852,17,l),
(789,32,l),
(885,667,l),
(958,683,l),
(961,700,l),
(755,700,l),
(651,35,l),
(560,17,l),
(560,0,l)
);
}
);
width = 913;
},
{
associatedMasterId = m004;
layerId = "FBB86F67-46D5-448D-B28E-C2006C1530B6";
name = "3 févr. 22 à 12:33";
shapes = (
{
closed = 1;
nodes = (
(383,49,l),
(751,616,l),
(739,696,l),
(733,700,l),
(406,160,l),
(445,170,l),
(376,700,l),
(211,700,l),
(210,676,l),
(280,651,l),
(359,49,l)
);
},
{
closed = 1;
nodes = (
(197,0,l),
(197,27,l),
(117,46,l),
(317,644,l),
(282,658,l),
(29,45,l),
(-37,26,l),
(-37,0,l)
);
},
{
closed = 1;
nodes = (
(813,0,l),
(813,26,l),
(754,45,l),
(821,653,l),
(891,675,l),
(891,700,l),
(733,700,l),
(656,48,l),
(566,26,l),
(566,0,l)
);
}
);
width = 882;
}
);
metricRight = "=H-20";
unicode = 77;
},
{
color = 5;
glyphname = N;
kernLeft = N;
kernRight = N;
lastChange = "2022-07-11 10:57:02 +0000";
layers = (
{
anchors = (
{
name = bottom;
pos = (406,0);
},
{
name = top;
pos = (396,700);
}
);
layerId = m01;
shapes = (
{
closed = 1;
nodes = (
(645,139,l),
(190,700,l),
(25,700,l),
(25,674,l),
(83,656,o),
(120,630,o),
(165,575,cs),
(631,0,l)
);
},
{
closed = 1;
nodes = (
(295,0,l),
(295,27,l),
(216,47,o),
(182,75,o),
(182,148,cs),
(182,700,l),
(120,700,l),
(120,148,ls),
(120,75,o),
(98,40,o),
(41,27,c),
(41,0,l)
);
},
{
closed = 1;
nodes = (
(677,0,l),
(677,536,ls),
(677,622,o),
(701,657,o),
(754,673,c),
(754,700,l),
(502,700,l),
(502,673,l),
(583,657,o),
(615,622,o),
(615,536,cs),
(615,70,l),
(631,0,l)
);
}
);
width = 779;
},
{
anchors = (
{
name = bottom;
pos = (426,0);
},
{
name = top;
pos = (396,700);
}
);
layerId = "B693E737-F65C-4B63-97BA-EB353033066E";
shapes = (
{
closed = 1;
nodes = (
(678,173,l),
(259,700,l),
(35,700,l),
(35,668,l),
(91,649,o),
(132,605,o),
(177,549,cs),
(615,0,l)
);
},
{
closed = 1;
nodes = (
(319,0,l),
(319,27,l),
(246,47,o),
(202,75,o),
(202,148,cs),
(202,700,l),
(139,700,l),
(139,148,ls),
(139,75,o),
(108,40,o),
(61,27,c),
(61,0,l)
);
},
{
closed = 1;
nodes = (
(697,0,l),
(697,536,ls),
(697,622,o),
(731,657,o),
(774,673,c),
(774,700,l),
(518,700,l),
(518,673,l),
(593,657,o),
(634,622,o),
(634,536,cs),
(634,120,l),
(615,0,l)
);
}
);
width = 809;
},
{
anchors = (
{
name = bottom;
pos = (401,0);
}
);
associatedMasterId = m01;
layerId = "1230E7B2-4C9B-4295-A195-DF3A9F087C47";
shapes = (
{
closed = 1;
nodes = (
(636,128,l),
(169,700,l),
(23,700,l),
(23,676,l),
(82,658,o),
(118,638,o),
(163,584,cs),
(638,0,l)
);
},
{
closed = 1;
nodes = (
(289,0,l),
(289,27,l),
(208,47,o),
(177,75,o),
(177,148,cs),
(177,700,l),
(115,700,l),
(115,148,ls),
(115,75,o),
(96,40,o),
(36,27,c),
(36,0,l)
);
},
{
closed = 1;
nodes = (
(672,0,l),
(672,536,ls),
(672,622,o),
(693,657,o),
(749,673,c),
(749,700,l),
(498,700,l),
(498,673,l),
(581,657,o),
(610,622,o),
(610,536,cs),
(610,53,l),
(638,0,l)
);
}
);
width = 759;
},
{
anchors = (
{
name = bottom;
pos = (305,0);
},
{
name = top;
pos = (499,700);
}
);
layerId = "77A919B5-A12B-4FB4-B82B-A665849CE577";
shapes = (
{
closed = 1;
nodes = (
(530,0,l),
(540,113,l),
(319,700,l),
(148,700,l),
(145,685,l),
(236,658,l),
(484,0,l)
);
},
{
closed = 1;
nodes = (
(219,0,l),
(221,16,l),
(132,34,l),
(280,700,l),
(249,700,l),
(38,32,l),
(-29,16,l),
(-31,0,l)
);
},
{
closed = 1;
nodes = (
(531,0,l),
(733,663,l),
(796,685,l),
(799,700,l),
(553,700,l),
(550,685,l),
(643,662,l),
(504,0,l)
);
}
);
width = 702;
},
{
anchors = (
{
name = bottom;
pos = (288,0);
},
{
name = top;
pos = (482,700);
}
);
layerId = m004;
shapes = (
{
closed = 1;
nodes = (
(536,0,l),
(563,110,l),
(350,700,l),
(131,700,l),
(128,685,l),
(219,658,l),
(456,0,l)
);
},
{
closed = 1;
nodes = (
(213,0,l),
(215,16,l),
(126,34,l),
(263,700,l),
(232,700,l),
(16,32,l),
(-51,16,l),
(-53,0,l)
);
},
{
closed = 1;
nodes = (
(537,0,l),
(754,663,l),
(817,685,l),
(820,700,l),
(557,700,l),
(554,685,l),
(647,662,l),
(513,0,l)
);
}
);
width = 710;
}
);
metricLeft = "=H-5";
metricRight = "=H-5";
unicode = 78;
},
{
color = 5;
glyphname = O;
kernLeft = O;
kernRight = O;
lastChange = "2022-07-11 11:20:54 +0000";
layers = (
{
anchors = (
{
name = bottom;
pos = (406,0);
},
{
name = top;
pos = (379,700);
}
);
layerId = m01;
shapes = (
{
closed = 1;
nodes = (
(587,-14,o),
(746,152,o),
(746,351,cs),
(746,550,o),
(587,714,o),
(388,714,cs),
(189,714,o),
(30,550,o),
(30,351,cs),
(30,152,o),
(189,-14,o),
(388,-14,cs)
);
},
{
closed = 1;
nodes = (
(277,40,o),
(135,190,o),
(135,384,cs),
(135,535,o),
(237,660,o),
(363,660,cs),
(481,660,o),
(641,552,o),
(641,318,cs),
(641,165,o),
(539,40,o),
(413,40,cs)
);
}
);
width = 776;
},
{
anchors = (
{
name = bottom;
pos = (411,0);
},
{
name = top;
pos = (385,700);
}
);
layerId = "B693E737-F65C-4B63-97BA-EB353033066E";
shapes = (
{
closed = 1;
nodes = (
(592,-14,o),
(751,152,o),
(751,351,cs),
(751,550,o),
(592,714,o),
(393,714,cs),
(194,714,o),
(35,550,o),
(35,351,cs),
(35,152,o),
(194,-14,o),
(393,-14,cs)
);
},
{
closed = 1;
nodes = (
(326,40,o),
(208,206,o),
(208,396,cs),
(208,526,o),
(256,660,o),
(352,660,cs),
(464,660,o),
(578,497,o),
(578,303,cs),
(578,174,o),
(532,40,o),
(437,40,cs)
);
}
);
width = 786;
},
{
anchors = (
{
name = bottom;
pos = (411,0);
},
{
name = top;
pos = (376,700);
}
);
associatedMasterId = "B693E737-F65C-4B63-97BA-EB353033066E";
layerId = "32F681DA-92E4-4228-B56F-7CF3189154E8";
name = "6 mai 21 à 12:36";
shapes = (
{
closed = 1;
nodes = (
(592,-14,o),
(751,152,o),
(751,351,cs),
(751,550,o),
(592,714,o),
(393,714,cs),
(194,714,o),
(35,550,o),
(35,351,cs),
(35,152,o),
(194,-14,o),
(393,-14,cs)
);
},
{
closed = 1;
nodes = (
(334,60,o),
(217,182,o),
(192,354,cs),
(190,372,o),
(188,389,o),
(188,406,cs),
(188,536,o),
(256,640,o),
(352,640,cs),
(442,640,o),
(565,553,o),
(594,347,cs),
(597,329,o),
(598,311,o),
(598,294,cs),
(598,165,o),
(531,60,o),
(436,60,cs)
);
}
);
width = 786;
},
{
anchors = (
{
name = bottom;
pos = (411,0);
},
{
name = top;
pos = (384,700);
}
);
associatedMasterId = m01;
layerId = "1230E7B2-4C9B-4295-A195-DF3A9F087C47";
shapes = (
{
closed = 1;
nodes = (
(592,-14,o),
(751,152,o),
(751,351,cs),
(751,550,o),
(592,714,o),
(393,714,cs),
(194,714,o),
(35,550,o),
(35,351,cs),
(35,152,o),
(194,-14,o),
(393,-14,cs)
);
},
{
closed = 1;
nodes = (
(267,40,o),
(117,185,o),
(117,380,cs),
(117,538,o),
(237,660,o),
(373,660,cs),
(493,660,o),
(669,570,o),
(669,323,cs),
(669,162,o),
(548,40,o),
(412,40,cs)
);
}
);
width = 786;
},
{
anchors = (
{
name = bottom;
pos = (334,0);
},
{
name = top;
pos = (482,700);
}
);
layerId = "77A919B5-A12B-4FB4-B82B-A665849CE577";
shapes = (
{
closed = 1;
nodes = (
(466,-14,o),
(681,278,o),
(681,491,cs),
(681,627,o),
(593,714,o),
(479,714,cs),
(280,714,o),
(57,433,o),
(57,223,cs),
(57,97,o),
(138,-14,o),
(265,-14,cs)
);
},
{
closed = 1;
nodes = (
(211,32,o),
(160,140,o),
(160,240,cs),
(160,400,o),
(300,668,o),
(439,668,cs),
(511,668,o),
(578,597,o),
(578,477,cs),
(578,315,o),
(450,32,o),
(302,32,cs)
);
}
);
width = 677;
},
{
anchors = (
{
name = bottom;
pos = (325,0);
},
{
name = top;
pos = (473,700);
}
);
layerId = m004;
shapes = (
{
closed = 1;
nodes = (
(457,-14,o),
(680,281,o),
(680,493,cs),
(680,617,o),
(584,714,o),
(470,714,cs),
(271,714,o),
(40,431,o),
(40,221,cs),
(40,107,o),
(129,-14,o),
(256,-14,cs)
);
},
{
closed = 1;
nodes = (
(222,32,o),
(192,140,o),
(192,240,cs),
(192,390,o),
(291,668,o),
(425,668,cs),
(482,668,o),
(528,597,o),
(528,477,cs),
(528,325,o),
(441,32,o),
(298,32,cs)
);
}
);
width = 662;
}
);
unicode = 79;
},
{
color = 5;
glyphname = OE;
kernLeft = O;
kernRight = E;
lastChange = "2024-09-05 08:41:56 +0000";
layers = (
{
layerId = m01;
shapes = (
{
closed = 1;
nodes = (
(627,0,l),
(627,700,l),
(456,700,ls),
(200,700,o),
(30,540,o),
(30,338,cs),
(30,124,o),
(187,0,o),
(375,0,cs)
);
},
{
closed = 1;
nodes = (
(256,48,o),
(136,169,o),
(136,349,cs),
(136,534,o),
(260,647,o),
(452,647,cs),
(529,647,l),
(529,134,ls),
(529,65,o),
(492,48,o),
(400,48,cs)
);
},
{
closed = 1;
nodes = (
(627,49,l),
(627,700,l),
(455,700,l),
(445,647,l),
(492,646,o),
(529,645,o),
(529,559,cs),
(529,49,l)
);
},
{
pos = (411,0);
ref = E;
}
);
width = 1012;
},
{
layerId = "B693E737-F65C-4B63-97BA-EB353033066E";
shapes = (
{
closed = 1;
nodes = (
(634,0,l),
(634,700,l),
(463,700,ls),
(217,700,o),
(35,540,o),
(35,338,cs),
(35,124,o),
(214,0,o),
(397,0,cs)
);
},
{
closed = 1;
nodes = (
(320,48,o),
(199,179,o),
(199,349,cs),
(199,524,o),
(309,647,o),
(459,647,cs),
(536,647,l),
(536,134,ls),
(536,65,o),
(509,48,o),
(452,48,cs)
);
},
{
closed = 1;
nodes = (
(634,49,l),
(634,700,l),
(462,700,l),
(452,647,l),
(499,646,o),
(536,645,o),
(536,559,cs),
(536,49,l)
);
},
{
pos = (438,0);
ref = E;
}
);
width = 1060;
},
{
associatedMasterId = m01;
layerId = "1230E7B2-4C9B-4295-A195-DF3A9F087C47";
shapes = (
{
closed = 1;
nodes = (
(631,0,l),
(631,700,l),
(460,700,ls),
(201,700,o),
(35,540,o),
(35,338,cs),
(35,124,o),
(185,0,o),
(374,0,cs)
);
},
{
closed = 1;
nodes = (
(241,48,o),
(122,166,o),
(122,349,cs),
(122,537,o),
(250,647,o),
(456,647,cs),
(533,647,l),
(533,134,ls),
(533,65,o),
(493,48,o),
(389,48,cs)
);
},
{
closed = 1;
nodes = (
(631,49,l),
(631,700,l),
(459,700,l),
(449,647,l),
(496,646,o),
(533,645,o),
(533,559,cs),
(533,49,l)
);
},
{
alignment = -1;
pos = (390,0);
ref = E;
}
);
width = 1016;
},
{
layerId = "77A919B5-A12B-4FB4-B82B-A665849CE577";
shapes = (
{
closed = 1;
nodes = (
(426,0,l),
(443,37,l),
(370,37,ls),
(211,37,o),
(160,140,o),
(160,240,cs),
(160,400,o),
(310,661,o),
(605,661,cs),
(630,661,l),
(640,700,l),
(617,700,ls),
(270,700,o),
(57,433,o),
(57,223,cs),
(57,97,o),
(138,0,o),
(333,0,cs)
);
},
{
closed = 1;
nodes = (
(611,0,l),
(612,18,l),
(516,18,l),
(714,682,l),
(802,682,l),
(806,700,l),
(626,700,l),
(615,664,l),
(428,37,l),
(342,18,l),
(341,0,l)
);
},
{
closed = 1;
nodes = (
(890,0,l),
(944,171,l),
(928,178,l),
(847,66,l),
(507,33,l),
(518,0,l)
);
},
{
closed = 1;
nodes = (
(861,464,l),
(844,470,l),
(784,381,l),
(608,356,l),
(603,330,l),
(770,320,l),
(780,220,l),
(798,219,l)
);
},
{
closed = 1;
nodes = (
(993,512,l),
(1019,700,l),
(672,700,l),
(659,673,l),
(946,644,l),
(975,509,l)
);
}
);
width = 999;
},
{
layerId = m004;
shapes = (
{
closed = 1;
nodes = (
(418,0,l),
(435,37,l),
(362,37,ls),
(253,37,o),
(192,140,o),
(192,240,cs),
(192,400,o),
(292,661,o),
(600,661,cs),
(622,661,l),
(632,700,l),
(595,700,ls),
(272,700,o),
(39,433,o),
(39,223,cs),
(39,97,o),
(130,0,o),
(325,0,cs)
);
},
{
closed = 1;
nodes = (
(626,0,l),
(627,18,l),
(531,18,l),
(729,682,l),
(817,682,l),
(821,700,l),
(595,700,l),
(586,664,l),
(399,37,l),
(313,18,l),
(312,0,l)
);
},
{
closed = 1;
nodes = (
(897,0,l),
(954,201,l),
(938,208,l),
(792,58,l),
(522,33,l),
(533,0,l)
);
},
{
closed = 1;
nodes = (
(864,469,l),
(847,475,l),
(752,378,l),
(620,356,l),
(615,330,l),
(742,324,l),
(781,211,l),
(799,210,l)
);
},
{
closed = 1;
nodes = (
(999,485,l),
(1026,700,l),
(687,700,l),
(674,673,l),
(894,651,l),
(981,482,l)
);
}
);
width = 1006;
}
);
metricLeft = O;
metricRight = E;
unicode = 338;
},
{
color = 5;
glyphname = P;
kernLeft = H;
kernRight = P;
lastChange = "2022-07-07 09:47:16 +0000";
layers = (
{
layerId = m01;
shapes = (
{
closed = 1;
nodes = (
(343,0,l),
(343,27,l),
(266,36,o),
(216,55,o),
(216,141,cs),
(216,647,l),
(244,647,ls),
(398,647,o),
(470,590,o),
(470,484,cs),
(470,384,o),
(405,310,o),
(293,297,c),
(295,265,l),
(440,266,o),
(572,359,o),
(572,493,cs),
(572,622,o),
(451,700,o),
(244,700,cs),
(30,700,l),
(30,673,l),
(87,662,o),
(118,643,o),
(118,557,cs),
(118,141,ls),
(118,55,o),
(87,38,o),
(30,27,c),
(30,0,l)
);
}
);
width = 602;
},
{
layerId = "B693E737-F65C-4B63-97BA-EB353033066E";
shapes = (
{
closed = 1;
nodes = (
(371,0,l),
(371,27,l),
(296,36,o),
(256,55,o),
(256,141,cs),
(256,647,l),
(279,647,ls),
(407,647,o),
(450,564,o),
(450,475,cs),
(450,392,o),
(412,315,o),
(316,294,c),
(318,266,l),
(452,266,o),
(612,341,o),
(612,487,cs),
(612,611,o),
(498,700,o),
(283,700,cs),
(40,700,l),
(40,673,l),
(87,662,o),
(98,643,o),
(98,557,cs),
(98,141,ls),
(98,55,o),
(87,38,o),
(40,27,c),
(40,0,l)
);
}
);
width = 647;
},
{
associatedMasterId = m01;
layerId = "1230E7B2-4C9B-4295-A195-DF3A9F087C47";
shapes = (
{
closed = 1;
nodes = (
(352,0,l),
(352,27,l),
(274,36,o),
(221,55,o),
(221,141,cs),
(221,647,l),
(247,647,ls),
(415,647,o),
(495,586,o),
(495,488,cs),
(495,404,o),
(420,333,o),
(306,298,c),
(316,266,l),
(444,291,o),
(577,376,o),
(577,502,cs),
(577,612,o),
(456,700,o),
(249,700,cs),
(45,700,l),
(45,673,l),
(105,662,o),
(143,643,o),
(143,557,cs),
(143,141,ls),
(143,55,o),
(105,38,o),
(45,27,c),
(45,0,l)
);
}
);
width = 612;
},
{
anchors = (
{
name = top;
pos = (-59,700);
}
);
layerId = "77A919B5-A12B-4FB4-B82B-A665849CE577";
shapes = (
{
closed = 1;
nodes = (
(239,0,l),
(240,18,l),
(149,38,l),
(336,666,l),
(445,662,o),
(509,584,o),
(509,516,cs),
(509,431,o),
(416,330,o),
(271,281,c),
(275,258,l),
(396,286,o),
(608,384,o),
(608,514,cs),
(608,613,o),
(498,700,o),
(330,700,cs),
(180,700,l),
(176,686,l),
(242,664,l),
(55,37,l),
(-30,18,l),
(-31,0,l)
);
}
);
width = 585;
},
{
anchors = (
{
name = top;
pos = (-31,700);
}
);
layerId = m004;
shapes = (
{
closed = 1;
nodes = (
(267,0,l),
(268,18,l),
(177,38,l),
(364,666,l),
(461,653,o),
(506,584,o),
(506,516,cs),
(506,431,o),
(444,330,o),
(299,281,c),
(303,258,l),
(424,286,o),
(651,384,o),
(651,514,cs),
(651,613,o),
(531,700,o),
(358,700,cs),
(164,700,l),
(160,686,l),
(226,664,l),
(39,37,l),
(-46,18,l),
(-47,0,l)
);
}
);
width = 604;
}
);
metricLeft = H;
unicode = 80;
},
{
color = 5;
glyphname = Q;
kernLeft = O;
kernRight = Q;
lastChange = "2022-07-11 11:13:11 +0000";
layers = (
{
anchors = (
{
name = top;
pos = (364,666);
}
);
layerId = m01;
shapes = (
{
alignment = -1;
ref = O;
},
{
pos = (732,0);
ref = "Q-queue";
}
);
width = 797;
},
{
anchors = (
{
name = top;
pos = (364,666);
}
);
layerId = "B693E737-F65C-4B63-97BA-EB353033066E";
shapes = (
{
alignment = -1;
ref = O;
},
{
pos = (732,0);
ref = "Q-queue";
}
);
width = 810;
},
{
anchors = (
{
name = top;
pos = (386,666);
}
);
associatedMasterId = m01;
layerId = "1230E7B2-4C9B-4295-A195-DF3A9F087C47";
shapes = (
{
closed = 1;
nodes = (
(777,-195,o),
(860,-158,o),
(957,-109,c),
(947,-85,l),
(879,-107,o),
(828,-120,o),
(765,-120,cs),
(563,-120,o),
(538,12,o),
(353,12,c),
(331,1,l),
(430,5,o),
(531,-195,o),
(668,-195,cs)
);
},
{
alignment = -1;
ref = O;
}
);
width = 797;
},
{
anchors = (
{
name = top;
pos = (386,666);
}
);
associatedMasterId = m01;
layerId = "B08F54A3-1BF2-4DF8-9E8B-C3DFE8A155C0";
name = "8 déc. 21 à 14:08";
shapes = (
{
closed = 1;
nodes = (
(773,-202,o),
(860,-159,o),
(957,-109,c),
(947,-85,l),
(879,-107,o),
(828,-119,o),
(765,-119,cs),
(566,-119,o),
(535,12,o),
(353,12,c),
(332,1,l),
(438,1,o),
(527,-202,o),
(667,-202,cs)
);
},
{
ref = O;
}
);
width = 777;
},
{
anchors = (
{
name = bottom;
pos = (336,0);
},
{
name = top;
pos = (548,666);
}
);
layerId = "77A919B5-A12B-4FB4-B82B-A665849CE577";
shapes = (
{
closed = 1;
nodes = (
(580,-168,o),
(705,-157,o),
(823,-141,c),
(822,-122,l),
(757,-124,o),
(618,-105,o),
(548,-95,c),
(492,-69,o),
(421,-19,o),
(370,15,c),
(335,7,l),
(375,-59,o),
(419,-118,o),
(458,-160,c)
);
},
{
ref = O;
}
);
width = 681;
},
{
anchors = (
{
name = top;
pos = (536,666);
}
);
associatedMasterId = "77A919B5-A12B-4FB4-B82B-A665849CE577";
layerId = "FCBB9740-63EF-4D8B-8E8F-7FFCB80A275F";
name = "27 janv. 22 à 14:26";
shapes = (
{
alignment = -1;
ref = O;
},
{
pos = (689,0);
ref = queueQ;
scale = (0.99,1);
}
);
width = 654;
},
{
anchors = (
{
name = bottom;
pos = (336,0);
},
{
name = top;
pos = (548,666);
}
);
associatedMasterId = "77A919B5-A12B-4FB4-B82B-A665849CE577";
layerId = "822A868D-4300-48FA-83C9-47454010C7EE";
name = "3 févr. 22 à 11:09";
shapes = (
{
closed = 1;
nodes = (
(298,297,l),
(308,284,o),
(323,263,o),
(323,229,cs),
(323,182,o),
(291,101,o),
(241,101,cs),
(197,101,o),
(145,143,o),
(145,247,cs),
(145,404,o),
(310,656,o),
(447,656,cs),
(513,656,o),
(587,597,o),
(587,473,cs),
(587,315,o),
(463,134,o),
(287,1,cs),
(49,-179,l),
(88,-251,l),
(148,-214,o),
(215,-187,o),
(261,-187,cs),
(338,-187,o),
(408,-264,o),
(489,-264,cs),
(551,-264,o),
(643,-218,o),
(738,-127,c),
(717,-103,l),
(659,-153,o),
(604,-174,o),
(561,-174,cs),
(478,-174,o),
(411,-98,o),
(331,-98,cs),
(295,-98,o),
(247,-114,o),
(185,-142,c),
(179,-131,l),
(315,-39,ls),
(546,117,o),
(692,286,o),
(692,480,cs),
(692,621,o),
(613,714,o),
(492,714,cs),
(288,714,o),
(42,447,o),
(42,220,cs),
(42,108,o),
(126,36,o),
(196,36,cs),
(304,36,o),
(429,201,o),
(429,293,cs),
(429,315,o),
(421,340,o),
(400,360,c)
);
}
);
width = 666;
},
{
anchors = (
{
name = bottom;
pos = (336,0);
},
{
name = top;
pos = (548,666);
}
);
layerId = m004;
shapes = (
{
closed = 1;
nodes = (
(576,-191,o),
(706,-169,o),
(823,-141,c),
(822,-122,l),
(757,-119,o),
(619,-103,o),
(549,-93,c),
(493,-67,o),
(422,-18,o),
(370,20,c),
(339,8,l),
(372,-59,o),
(420,-150,o),
(453,-194,c)
);
},
{
ref = O;
}
);
width = 677;
},
{
anchors = (
{
name = top;
pos = (536,666);
}
);
associatedMasterId = m004;
layerId = "99D0529C-C6BD-4CF8-A281-D1D3E69B7F85";
name = "27 janv. 22 à 14:26";
shapes = (
{
alignment = -1;
ref = O;
},
{
pos = (689,0);
ref = queueQ;
scale = (0.99,1);
}
);
width = 654;
},
{
anchors = (
{
name = bottom;
pos = (336,0);
},
{
name = top;
pos = (548,666);
}
);
associatedMasterId = m004;
layerId = "2F5E5B85-4964-42A6-9423-FD848C97EF49";
name = "3 févr. 22 à 11:09";
shapes = (
{
closed = 1;
nodes = (
(298,297,l),
(308,284,o),
(323,263,o),
(323,229,cs),
(323,182,o),
(291,101,o),
(241,101,cs),
(197,101,o),
(145,143,o),
(145,247,cs),
(145,404,o),
(310,656,o),
(447,656,cs),
(513,656,o),
(587,597,o),
(587,473,cs),
(587,315,o),
(463,134,o),
(287,1,cs),
(49,-179,l),
(88,-251,l),
(148,-214,o),
(215,-187,o),
(261,-187,cs),
(338,-187,o),
(408,-264,o),
(489,-264,cs),
(551,-264,o),
(643,-218,o),
(738,-127,c),
(717,-103,l),
(659,-153,o),
(604,-174,o),
(561,-174,cs),
(478,-174,o),
(411,-98,o),
(331,-98,cs),
(295,-98,o),
(247,-114,o),
(185,-142,c),
(179,-131,l),
(315,-39,ls),
(546,117,o),
(692,286,o),
(692,480,cs),
(692,621,o),
(613,714,o),
(492,714,cs),
(288,714,o),
(42,447,o),
(42,220,cs),
(42,108,o),
(126,36,o),
(196,36,cs),
(304,36,o),
(429,201,o),
(429,293,cs),
(429,315,o),
(421,340,o),
(400,360,c)
);
}
);
width = 666;
}
);
metricLeft = O;
unicode = 81;
},
{
color = 5;
glyphname = R;
kernLeft = H;
kernRight = R;
lastChange = "2022-07-11 11:00:32 +0000";
layers = (
{
anchors = (
{
name = bottom;
pos = (371,0);
}
);
layerId = m01;
shapes = (
{
closed = 1;
nodes = (
(317,0,l),
(317,27,l),
(266,36,o),
(216,53,o),
(216,140,cs),
(216,311,l),
(245,311,ls),
(282,311,o),
(317,296,o),
(351,246,cs),
(517,0,l),
(681,0,l),
(681,24,l),
(661,30,ls),
(549,64,o),
(482,281,o),
(386,333,c),
(469,356,o),
(548,433,o),
(548,518,cs),
(548,644,o),
(412,700,o),
(250,700,cs),
(30,700,l),
(30,673,l),
(87,662,o),
(118,643,o),
(118,557,cs),
(118,140,ls),
(118,55,o),
(87,38,o),
(30,27,c),
(30,0,l)
);
},
{
closed = 1;
nodes = (
(216,647,l),
(239,647,ls),
(377,647,o),
(448,602,o),
(448,509,cs),
(448,433,o),
(381,364,o),
(254,364,cs),
(216,364,l)
);
}
);
width = 646;
},
{
anchors = (
{
name = bottom;
pos = (391,0);
}
);
layerId = "B693E737-F65C-4B63-97BA-EB353033066E";
shapes = (
{
closed = 1;
nodes = (
(338,0,l),
(338,27,l),
(286,36,o),
(256,53,o),
(256,140,cs),
(256,311,l),
(291,311,ls),
(315,311,o),
(331,295,o),
(345,273,cs),
(524,0,l),
(728,0,l),
(728,24,l),
(710,32,ls),
(659,55,o),
(491,308,o),
(453,345,c),
(526,370,o),
(608,438,o),
(608,514,cs),
(608,632,o),
(492,700,o),
(273,700,cs),
(40,700,l),
(40,673,l),
(87,662,o),
(98,643,o),
(98,557,cs),
(98,140,ls),
(98,55,o),
(87,38,o),
(40,27,c),
(40,0,l)
);
},
{
closed = 1;
nodes = (
(256,647,l),
(269,647,ls),
(374,647,o),
(446,593,o),
(446,508,cs),
(446,422,o),
(377,364,o),
(290,364,cs),
(256,364,l)
);
}
);
width = 693;
},
{
anchors = (
{
name = bottom;
pos = (383,0);
}
);
associatedMasterId = m01;
layerId = "1230E7B2-4C9B-4295-A195-DF3A9F087C47";
shapes = (
{
closed = 1;
nodes = (
(328,0,l),
(328,27,l),
(278,36,o),
(221,53,o),
(221,140,cs),
(221,311,l),
(248,311,ls),
(289,311,o),
(331,296,o),
(371,237,cs),
(533,0,l),
(684,0,l),
(684,24,l),
(663,29,ls),
(531,67,o),
(497,272,o),
(382,329,c),
(468,351,o),
(546,431,o),
(546,519,cs),
(546,648,o),
(404,700,o),
(261,700,cs),
(45,700,l),
(45,673,l),
(105,662,o),
(143,643,o),
(143,557,cs),
(143,140,ls),
(143,55,o),
(105,38,o),
(45,27,c),
(45,0,l)
);
},
{
closed = 1;
nodes = (
(221,647,l),
(247,647,ls),
(396,647,o),
(467,605,o),
(467,509,cs),
(467,437,o),
(401,364,o),
(260,364,cs),
(221,364,l)
);
}
);
width = 670.33333;
},
{
anchors = (
{
name = bottom;
pos = (343,0);
},
{
name = top;
pos = (445,700);
}
);
layerId = "77A919B5-A12B-4FB4-B82B-A665849CE577";
shapes = (
{
closed = 1;
nodes = (
(239,0,l),
(240,18,l),
(150,36,l),
(336,662,l),
(445,656,o),
(505,595,o),
(505,527,cs),
(505,452,o),
(402,358,o),
(214,325,c),
(206,295,l),
(397,316,o),
(603,412,o),
(603,538,cs),
(603,631,o),
(501,700,o),
(330,700,cs),
(180,700,l),
(176,686,l),
(243,664,l),
(56,35,l),
(-30,18,l),
(-31,0,l)
);
},
{
closed = 1;
nodes = (
(555,0,l),
(561,16,l),
(332,340,l),
(286,324,l),
(443,0,l)
);
}
);
width = 612;
},
{
anchors = (
{
name = bottom;
pos = (389,0);
},
{
name = top;
pos = (871,700);
}
);
associatedMasterId = "77A919B5-A12B-4FB4-B82B-A665849CE577";
layerId = "03791516-E0B4-4886-832D-64876BE66042";
name = "25 janv. 22 à 15:26";
shapes = (
{
closed = 1;
nodes = (
(359,656,l),
(474,650,o),
(560,590,o),
(560,518,cs),
(560,445,o),
(449,367,o),
(271,335,c),
(279,295,l),
(441,315,o),
(666,407,o),
(666,527,cs),
(666,626,o),
(527,697,o),
(338,701,cs),
(201,704,l),
(194,676,l),
(262,656,l),
(132,51,l),
(55,30,l),
(55,0,l),
(220,0,l)
);
},
{
closed = 1;
nodes = (
(169,0,l),
(338,0,l),
(338,30,l),
(215,58,l)
);
},
{
closed = 1;
nodes = (
(343,334,l),
(533,43,l),
(484,30,l),
(484,0,l),
(734,0,l),
(734,30,l),
(647,51,l),
(415,353,l)
);
}
);
width = 684;
},
{
anchors = (
{
name = bottom;
pos = (371,0);
},
{
name = top;
pos = (473,700);
}
);
layerId = m004;
shapes = (
{
closed = 1;
nodes = (
(267,0,l),
(268,18,l),
(178,36,l),
(364,662,l),
(468,656,o),
(500,595,o),
(500,538,cs),
(500,462,o),
(430,358,o),
(242,325,c),
(234,295,l),
(425,316,o),
(645,412,o),
(645,538,cs),
(645,631,o),
(529,700,o),
(358,700,cs),
(164,700,l),
(160,686,l),
(227,664,l),
(40,35,l),
(-46,18,l),
(-47,0,l)
);
},
{
closed = 1;
nodes = (
(603,0,l),
(609,16,l),
(350,340,l),
(304,324,l),
(447,0,l)
);
}
);
width = 646;
},
{
anchors = (
{
name = bottom;
pos = (389,0);
},
{
name = top;
pos = (871,700);
}
);
associatedMasterId = m004;
layerId = "EF5FA3B4-5E0E-4CB8-BBDF-979C66BFA412";
name = "25 janv. 22 à 15:26";
shapes = (
{
closed = 1;
nodes = (
(359,656,l),
(474,650,o),
(560,590,o),
(560,518,cs),
(560,445,o),
(449,367,o),
(271,335,c),
(279,295,l),
(441,315,o),
(666,407,o),
(666,527,cs),
(666,626,o),
(527,697,o),
(338,701,cs),
(201,704,l),
(194,676,l),
(262,656,l),
(132,51,l),
(55,30,l),
(55,0,l),
(220,0,l)
);
},
{
closed = 1;
nodes = (
(169,0,l),
(338,0,l),
(338,30,l),
(215,58,l)
);
},
{
closed = 1;
nodes = (
(343,334,l),
(533,43,l),
(484,30,l),
(484,0,l),
(734,0,l),
(734,30,l),
(647,51,l),
(415,353,l)
);
}
);
width = 684;
}
);
metricLeft = H;
unicode = 82;
},
{
color = 5;
glyphname = S;
kernLeft = S;
kernRight = S;
lastChange = "2022-07-11 11:19:01 +0000";
layers = (
{
anchors = (
{
name = bottom;
pos = (291,-9);
}
);
layerId = m01;
shapes = (
{
closed = 1;
nodes = (
(413,-14,o),
(516,61,o),
(516,182,cs),
(516,254,o),
(480,309,o),
(389,362,cs),
(245,446,ls),
(190,478,o),
(165,514,o),
(165,558,cs),
(165,619,o),
(209,658,o),
(272,658,cs),
(353,658,o),
(417,600,o),
(464,479,c),
(488,485,l),
(483,670,l),
(435,690,o),
(375,713,o),
(300,713,cs),
(160,713,o),
(72,634,o),
(72,529,cs),
(72,464,o),
(105,407,o),
(181,364,cs),
(341,273,ls),
(396,242,o),
(424,206,o),
(424,154,cs),
(424,91,o),
(384,47,o),
(314,47,cs),
(226,47,o),
(127,115,o),
(88,264,c),
(63,261,l),
(60,71,l),
(114,17,o),
(187,-14,o),
(275,-14,cs)
);
}
);
width = 561;
},
{
anchors = (
{
name = bottom;
pos = (297,-9);
}
);
layerId = "B693E737-F65C-4B63-97BA-EB353033066E";
shapes = (
{
closed = 1;
nodes = (
(427,-14,o),
(536,72,o),
(536,216,cs),
(536,312,o),
(488,364,o),
(397,405,cs),
(264,465,ls),
(214,488,o),
(181,520,o),
(181,567,cs),
(181,620,o),
(223,658,o),
(274,658,cs),
(339,658,o),
(393,600,o),
(470,479,c),
(494,485,l),
(488,670,l),
(444,701,o),
(376,713,o),
(317,713,cs),
(160,713,o),
(64,627,o),
(64,503,cs),
(64,426,o),
(101,357,o),
(207,308,cs),
(335,249,ls),
(395,221,o),
(423,181,o),
(423,137,cs),
(423,83,o),
(382,47,o),
(329,47,cs),
(245,47,o),
(160,138,o),
(85,264,c),
(60,261,l),
(63,61,l),
(106,20,o),
(180,-14,o),
(275,-14,cs)
);
}
);
width = 576;
},
{
anchors = (
{
name = bottom;
pos = (294,-9);
}
);
associatedMasterId = m01;
layerId = "1230E7B2-4C9B-4295-A195-DF3A9F087C47";
shapes = (
{
closed = 1;
nodes = (
(413,-14,o),
(514,57,o),
(514,176,cs),
(514,234,o),
(482,291,o),
(391,348,cs),
(244,440,ls),
(187,475,o),
(165,512,o),
(165,556,cs),
(165,619,o),
(209,658,o),
(275,658,cs),
(363,658,o),
(430,600,o),
(467,479,c),
(491,485,l),
(485,658,l),
(438,690,o),
(377,713,o),
(305,713,cs),
(163,713,o),
(80,639,o),
(80,532,cs),
(80,478,o),
(111,424,o),
(177,383,cs),
(348,281,ls),
(404,246,o),
(429,210,o),
(429,164,cs),
(429,92,o),
(390,47,o),
(315,47,cs),
(225,47,o),
(121,107,o),
(94,264,c),
(69,261,l),
(64,81,l),
(105,40,o),
(167,-14,o),
(286,-14,cs)
);
}
);
width = 558.33333;
},
{
anchors = (
{
name = bottom;
pos = (233,-9);
}
);
layerId = "77A919B5-A12B-4FB4-B82B-A665849CE577";
shapes = (
{
closed = 1;
nodes = (
(316,-14,o),
(398,88,o),
(398,178,cs),
(398,295,o),
(282,462,o),
(282,542,cs),
(282,607,o),
(323,674,o),
(398,674,cs),
(435,674,o),
(474,659,o),
(498,637,c),
(490,476,l),
(507,473,l),
(577,661,l),
(536,696,o),
(474,714,o),
(417,714,cs),
(294,714,o),
(198,630,o),
(198,523,cs),
(198,398,o),
(316,234,o),
(316,147,cs),
(316,102,o),
(280,30,o),
(193,30,cs),
(146,30,o),
(101,48,o),
(69,73,c),
(78,248,l),
(61,250,l),
(-10,57,l),
(12,29,o),
(81,-14,o),
(174,-14,cs)
);
}
);
width = 520;
},
{
anchors = (
{
name = bottom;
pos = (243,-9);
}
);
layerId = m004;
shapes = (
{
closed = 1;
nodes = (
(316,-9,o),
(428,93,o),
(428,193,cs),
(428,300,o),
(314,465,o),
(314,567,cs),
(314,622,o),
(357,679,o),
(424,679,cs),
(455,679,o),
(484,664,o),
(508,642,c),
(520,481,l),
(537,478,l),
(607,666,l),
(566,701,o),
(504,719,o),
(447,719,cs),
(304,719,o),
(187,635,o),
(187,518,cs),
(187,403,o),
(305,231,o),
(305,131,cs),
(305,85,o),
(260,32,o),
(187,32,cs),
(156,32,o),
(119,40,o),
(89,69,c),
(68,253,l),
(51,255,l),
(-20,62,l),
(2,34,o),
(71,-9,o),
(164,-9,cs)
);
}
);
width = 535;
}
);
unicode = 83;
},
{
color = 5;
glyphname = T;
kernLeft = T;
kernRight = T;
lastChange = "2022-07-11 11:14:40 +0000";
layers = (
{
anchors = (
{
name = bottom;
pos = (345,0);
}
);
layerId = m01;
shapes = (
{
closed = 1;
nodes = (
(488,0,l),
(488,27,l),
(437,38,o),
(393,55,o),
(393,141,c),
(295,141,l),
(295,55,o),
(254,42,o),
(197,31,c),
(197,0,l)
);
},
{
closed = 1;
nodes = (
(393,49,l),
(393,653,l),
(295,653,l),
(295,49,l)
);
},
{
pos = (-11,0);
ref = mi_barre_T;
},
{
pos = (693,0);
ref = mi_barre_T;
scale = (-1,1);
}
);
width = 682;
},
{
anchors = (
{
name = bottom;
pos = (347,0);
}
);
layerId = "B693E737-F65C-4B63-97BA-EB353033066E";
shapes = (
{
closed = 1;
nodes = (
(495,0,l),
(495,27,l),
(459,34,o),
(425,55,o),
(425,141,c),
(267,141,l),
(267,55,o),
(236,34,o),
(195,27,c),
(195,0,l)
);
},
{
closed = 1;
nodes = (
(425,49,l),
(425,665,l),
(267,665,l),
(267,49,l)
);
},
{
pos = (-9,0);
ref = mi_barre_T;
},
{
pos = (695,0);
ref = mi_barre_T;
scale = (-1,1);
}
);
width = 686;
},
{
anchors = (
{
name = bottom;
pos = (348,0);
}
);
associatedMasterId = m01;
layerId = "1230E7B2-4C9B-4295-A195-DF3A9F087C47";
shapes = (
{
closed = 1;
nodes = (
(489,0,l),
(489,27,l),
(433,39,o),
(386,55,o),
(386,141,c),
(308,141,l),
(308,55,o),
(264,45,o),
(201,32,c),
(201,0,l)
);
},
{
closed = 1;
nodes = (
(386,49,l),
(386,649,l),
(308,649,l),
(308,49,l)
);
},
{
alignment = -1;
pos = (-8,0);
ref = mi_barre_T;
},
{
alignment = -1;
pos = (696,0);
ref = mi_barre_T;
scale = (-1,1);
}
);
width = 689;
},
{
anchors = (
{
name = bottom;
pos = (405,0);
},
{
name = top;
pos = (463,700);
}
);
layerId = "77A919B5-A12B-4FB4-B82B-A665849CE577";
shapes = (
{
closed = 1;
nodes = (
(420,0,l),
(422,18,l),
(322,38,l),
(518,700,l),
(424,700,l),
(229,41,l),
(119,16,l),
(118,0,l)
);
},
{
closed = 1;
nodes = (
(717,482,l),
(776,732,l),
(759,739,l),
(706,700,l),
(210,700,l),
(175,730,l),
(157,728,l),
(88,495,l),
(105,489,l),
(208,658,l),
(692,658,l),
(699,482,l)
);
}
);
width = 678;
},
{
anchors = (
{
name = bottom;
pos = (403,0);
},
{
name = top;
pos = (461,700);
}
);
layerId = m004;
shapes = (
{
closed = 1;
nodes = (
(440,0,l),
(442,18,l),
(342,38,l),
(538,700,l),
(400,700,l),
(205,41,l),
(95,16,l),
(94,0,l)
);
},
{
closed = 1;
nodes = (
(715,482,l),
(774,732,l),
(757,739,l),
(674,700,l),
(235,700,l),
(173,730,l),
(155,728,l),
(86,495,l),
(103,489,l),
(236,658,l),
(660,658,l),
(697,482,l)
);
}
);
width = 677;
}
);
unicode = 84;
},
{
color = 5;
glyphname = U;
kernLeft = U;
kernRight = U;
lastChange = "2022-07-11 11:09:03 +0000";
layers = (
{
anchors = (
{
name = bottom;
pos = (381,-14);
},
{
name = top;
pos = (384,700);
}
);
layerId = m01;
shapes = (
{
closed = 1;
nodes = (
(510,-14,o),
(635,88,o),
(635,246,cs),
(635,554,ls),
(635,645,o),
(661,662,o),
(714,673,c),
(714,700,l),
(465,700,l),
(465,673,l),
(532,666,o),
(573,645,o),
(573,554,cs),
(573,249,ls),
(573,126,o),
(491,54,o),
(393,54,cs),
(270,54,o),
(196,138,o),
(196,259,cs),
(196,625,l),
(98,625,l),
(98,244,ls),
(98,78,o),
(226,-14,o),
(372,-14,cs)
);
},
{
closed = 1;
nodes = (
(196,554,l),
(196,635,o),
(239,666,o),
(312,673,c),
(312,700,l),
(10,700,l),
(10,673,l),
(67,662,o),
(98,635,o),
(98,554,c)
);
}
);
width = 724;
},
{
anchors = (
{
name = bottom;
pos = (388,-14);
},
{
name = top;
pos = (389,700);
}
);
layerId = "B693E737-F65C-4B63-97BA-EB353033066E";
shapes = (
{
closed = 1;
nodes = (
(518,-14,o),
(642,88,o),
(642,246,cs),
(642,559,ls),
(642,635,o),
(676,662,o),
(719,673,c),
(719,700,l),
(471,700,l),
(471,673,l),
(528,666,o),
(575,635,o),
(575,559,cs),
(575,245,ls),
(575,131,o),
(508,62,o),
(411,62,cs),
(308,62,o),
(238,138,o),
(238,259,cs),
(238,625,l),
(80,625,l),
(80,250,ls),
(80,69,o),
(214,-14,o),
(371,-14,cs)
);
},
{
closed = 1;
nodes = (
(238,559,l),
(238,635,o),
(288,665,o),
(320,673,c),
(320,700,l),
(15,700,l),
(15,673,l),
(62,662,o),
(80,635,o),
(80,559,c)
);
}
);
width = 734;
},
{
anchors = (
{
name = bottom;
pos = (390,-14);
},
{
name = top;
pos = (394,700);
}
);
associatedMasterId = m01;
layerId = "1230E7B2-4C9B-4295-A195-DF3A9F087C47";
shapes = (
{
closed = 1;
nodes = (
(519,-14,o),
(644,88,o),
(644,246,cs),
(644,552,ls),
(644,648,o),
(668,662,o),
(724,673,c),
(724,700,l),
(475,700,l),
(475,673,l),
(545,666,o),
(584,648,o),
(584,552,cs),
(584,250,ls),
(584,124,o),
(497,51,o),
(399,51,cs),
(269,51,o),
(194,138,o),
(194,259,cs),
(194,625,l),
(116,625,l),
(116,242,ls),
(116,81,o),
(242,-14,o),
(384,-14,cs)
);
},
{
closed = 1;
nodes = (
(194,552,l),
(194,635,o),
(234,666,o),
(321,673,c),
(321,700,l),
(20,700,l),
(20,673,l),
(80,662,o),
(116,635,o),
(116,552,c)
);
}
);
width = 744;
},
{
anchors = (
{
name = bottom;
pos = (322,-14);
},
{
name = top;
pos = (488,700);
}
);
layerId = "77A919B5-A12B-4FB4-B82B-A665849CE577";
shapes = (
{
closed = 1;
nodes = (
(420,-14,o),
(511,49,o),
(561,214,cs),
(696,661,l),
(767,682,l),
(770,700,l),
(556,700,l),
(552,682,l),
(643,661,l),
(516,235,ls),
(473,89,o),
(400,37,o),
(320,37,cs),
(219,37,o),
(141,100,o),
(199,291,cs),
(311,662,l),
(402,682,l),
(406,700,l),
(153,700,l),
(149,686,l),
(218,665,l),
(108,302,ls),
(35,62,o),
(174,-14,o),
(296,-14,cs)
);
}
);
width = 669;
},
{
anchors = (
{
name = bottom;
pos = (334,-14);
},
{
name = top;
pos = (508,700);
}
);
associatedMasterId = "77A919B5-A12B-4FB4-B82B-A665849CE577";
layerId = "AFB58F7C-1F95-4019-B081-B3B28A777FDA";
name = "21 févr. 22 à 11:23";
shapes = (
{
closed = 1;
nodes = (
(445,-18,o),
(532,39,o),
(578,204,cs),
(708,665,l),
(776,682,l),
(779,700,l),
(565,700,l),
(561,682,l),
(655,665,l),
(532,225,ls),
(491,79,o),
(424,33,o),
(344,33,cs),
(243,33,o),
(153,120,o),
(197,276,cs),
(306,662,l),
(402,682,l),
(406,700,l),
(153,700,l),
(149,686,l),
(219,665,l),
(113,287,ls),
(54,77,o),
(199,-18,o),
(331,-18,cs)
);
}
);
width = 698;
},
{
anchors = (
{
name = bottom;
pos = (335,-14);
},
{
name = top;
pos = (501,700);
}
);
layerId = m004;
shapes = (
{
closed = 1;
nodes = (
(433,-14,o),
(524,49,o),
(574,214,cs),
(709,661,l),
(780,682,l),
(783,700,l),
(569,700,l),
(565,682,l),
(656,661,l),
(529,235,ls),
(486,89,o),
(413,37,o),
(333,37,cs),
(232,37,o),
(173,117,o),
(218,264,cs),
(338,662,l),
(429,682,l),
(433,700,l),
(136,700,l),
(132,686,l),
(201,665,l),
(83,275,ls),
(18,62,o),
(187,-14,o),
(309,-14,cs)
);
}
);
width = 674;
},
{
anchors = (
{
name = bottom;
pos = (334,-14);
},
{
name = top;
pos = (508,700);
}
);
associatedMasterId = m004;
layerId = "B084C926-D081-42C0-A85F-917041D98929";
name = "21 févr. 22 à 11:23";
shapes = (
{
closed = 1;
nodes = (
(445,-18,o),
(532,39,o),
(578,204,cs),
(708,665,l),
(776,682,l),
(779,700,l),
(565,700,l),
(561,682,l),
(655,665,l),
(532,225,ls),
(491,79,o),
(424,33,o),
(344,33,cs),
(243,33,o),
(153,120,o),
(197,276,cs),
(306,662,l),
(402,682,l),
(406,700,l),
(153,700,l),
(149,686,l),
(219,665,l),
(113,287,ls),
(54,77,o),
(199,-18,o),
(331,-18,cs)
);
}
);
width = 698;
}
);
metricLeft = "=O-20";
unicode = 85;
},
{
color = 5;
glyphname = V;
kernLeft = V;
kernRight = V;
lastChange = "2022-07-11 12:51:48 +0000";
layers = (
{
anchors = (
{
name = bottom;
pos = (319,0);
}
);
layerId = m01;
shapes = (
{
closed = 1;
nodes = (
(341,0,l),
(563,571,ls),
(585,628,o),
(632,668,o),
(667,671,c),
(667,700,l),
(421,700,l),
(421,672,l),
(495,670,o),
(521,624,o),
(494,554,cs),
(328,126,l),
(359,125,l),
(194,554,ls),
(167,624,o),
(204,669,o),
(271,671,c),
(271,700,l),
(-20,700,l),
(-20,673,l),
(37,660,o),
(59,629,o),
(85,563,cs),
(303,0,l)
);
}
);
width = 642;
},
{
anchors = (
{
name = bottom;
pos = (324,0);
}
);
layerId = "B693E737-F65C-4B63-97BA-EB353033066E";
shapes = (
{
closed = 1;
nodes = (
(352,0,l),
(575,571,ls),
(597,628,o),
(642,668,o),
(667,671,c),
(667,700,l),
(423,700,l),
(423,672,l),
(505,670,o),
(529,624,o),
(502,554,cs),
(336,126,l),
(384,162,l),
(235,559,ls),
(209,628,o),
(225,669,o),
(272,671,c),
(272,700,l),
(-15,700,l),
(-15,673,l),
(22,660,o),
(43,629,o),
(69,563,cs),
(287,0,l)
);
}
);
width = 632;
},
{
anchors = (
{
name = bottom;
pos = (326,0);
}
);
associatedMasterId = m01;
layerId = "1230E7B2-4C9B-4295-A195-DF3A9F087C47";
shapes = (
{
closed = 1;
nodes = (
(346,0,l),
(567,571,ls),
(589,628,o),
(637,668,o),
(675,671,c),
(675,700,l),
(429,700,l),
(429,672,l),
(500,670,o),
(527,624,o),
(500,554,cs),
(334,126,l),
(359,113,l),
(189,552,ls),
(161,623,o),
(205,669,o),
(279,671,c),
(279,700,l),
(-13,700,l),
(-13,673,l),
(50,660,o),
(73,629,o),
(99,563,cs),
(317,0,l)
);
}
);
width = 662;
},
{
anchors = (
{
name = bottom;
pos = (529,0);
},
{
name = top;
pos = (708,700);
}
);
layerId = "77A919B5-A12B-4FB4-B82B-A665849CE577";
shapes = (
{
closed = 1;
nodes = (
(243,0,l),
(742,667,l),
(800,682,l),
(802,700,l),
(557,700,l),
(554,682,l),
(645,666,l),
(245,49,l),
(255,37,l),
(264,665,l),
(374,682,l),
(377,700,l),
(118,700,l),
(116,682,l),
(174,666,l),
(165,0,l)
);
}
);
width = 652;
},
{
anchors = (
{
name = bottom;
pos = (568,0);
},
{
name = top;
pos = (747,700);
}
);
layerId = m004;
shapes = (
{
closed = 1;
nodes = (
(282,0,l),
(800,667,l),
(858,682,l),
(860,700,l),
(582,700,l),
(579,682,l),
(670,666,l),
(284,49,l),
(294,37,l),
(303,665,l),
(413,682,l),
(416,700,l),
(111,700,l),
(109,682,l),
(167,666,l),
(158,0,l)
);
}
);
width = 707;
}
);
metricLeft = "=|A";
unicode = 86;
},
{
color = 5;
glyphname = W;
kernLeft = V;
kernRight = V;
lastChange = "2022-07-11 11:13:44 +0000";
layers = (
{
anchors = (
{
name = top;
pos = (476,700);
}
);
layerId = m01;
shapes = (
{
closed = 1;
nodes = (
(673,0,l),
(883,571,ls),
(904,628,o),
(951,668,o),
(986,671,c),
(986,700,l),
(726,700,l),
(726,672,l),
(806,672,o),
(841,624,o),
(810,540,cs),
(658,126,l),
(694,125,l),
(535,558,ls),
(509,630,o),
(548,671,o),
(621,671,c),
(621,700,l),
(335,700,l),
(335,673,l),
(392,660,o),
(406,630,o),
(430,563,cs),
(635,0,l)
);
},
{
pos = (-15,0);
ref = boutW;
}
);
width = 956;
},
{
anchors = (
{
name = top;
pos = (478,700);
}
);
layerId = "B693E737-F65C-4B63-97BA-EB353033066E";
shapes = (
{
closed = 1;
nodes = (
(679,0,l),
(889,571,ls),
(910,628,o),
(956,668,o),
(981,671,c),
(981,700,l),
(725,700,l),
(725,672,l),
(811,672,o),
(841,624,o),
(811,540,cs),
(663,126,l),
(717,146,l),
(571,558,ls),
(545,630,o),
(553,669,o),
(624,671,c),
(624,700,l),
(337,700,l),
(337,673,l),
(364,662,o),
(385,630,o),
(409,563,cs),
(614,0,l)
);
},
{
pos = (-20,0);
ref = boutW;
}
);
width = 941;
},
{
associatedMasterId = m01;
layerId = "1230E7B2-4C9B-4295-A195-DF3A9F087C47";
shapes = (
{
closed = 1;
nodes = (
(684,0,l),
(894,571,ls),
(915,628,o),
(963,668,o),
(1001,671,c),
(1001,700,l),
(740,700,l),
(740,672,l),
(818,672,o),
(854,624,o),
(823,540,cs),
(670,126,l),
(700,118,l),
(536,558,ls),
(510,630,o),
(560,672,o),
(633,671,c),
(633,700,l),
(348,700,l),
(348,673,l),
(415,659,o),
(426,630,o),
(450,563,cs),
(655,0,l)
);
},
{
closed = 1;
nodes = (
(334,0,l),
(531,535,l),
(484,571,l),
(320,126,l),
(348,119,l),
(182,572,ls),
(160,633,o),
(196,670,o),
(269,671,c),
(269,700,l),
(-13,700,l),
(-13,673,l),
(48,660,o),
(76,630,o),
(100,563,cs),
(305,0,l)
);
}
);
width = 987.66667;
},
{
anchors = (
{
name = bottom;
pos = (524,0);
},
{
name = top;
pos = (613,700);
}
);
layerId = "77A919B5-A12B-4FB4-B82B-A665849CE577";
shapes = (
{
closed = 1;
nodes = (
(563,0,l),
(1022,667,l),
(1083,682,l),
(1085,700,l),
(837,700,l),
(834,682,l),
(927,666,l),
(565,49,l),
(577,37,l),
(616,665,l),
(724,682,l),
(727,700,l),
(468,700,l),
(466,682,l),
(526,666,l),
(487,0,l)
);
},
{
closed = 1;
nodes = (
(238,0,l),
(542,478,l),
(522,548,l),
(240,51,l),
(252,37,l),
(261,665,l),
(349,682,l),
(352,700,l),
(113,700,l),
(111,682,l),
(171,666,l),
(162,0,l)
);
}
);
width = 930;
},
{
anchors = (
{
name = bottom;
pos = (569,0);
},
{
name = top;
pos = (628,700);
}
);
layerId = m004;
shapes = (
{
closed = 1;
nodes = (
(608,0,l),
(1084,667,l),
(1145,682,l),
(1147,700,l),
(867,700,l),
(864,682,l),
(957,666,l),
(610,49,l),
(622,37,l),
(661,665,l),
(769,682,l),
(772,700,l),
(467,700,l),
(465,682,l),
(525,666,l),
(486,0,l)
);
},
{
closed = 1;
nodes = (
(277,0,l),
(613,478,l),
(561,548,l),
(279,51,l),
(291,37,l),
(300,665,l),
(388,682,l),
(391,700,l),
(106,700,l),
(104,682,l),
(164,666,l),
(155,0,l)
);
}
);
width = 989;
}
);
metricLeft = "=V-5";
metricRight = "=V-5";
unicode = 87;
},
{
color = 5;
glyphname = X;
kernLeft = X;
kernRight = X;
lastChange = "2022-07-11 12:47:54 +0000";
layers = (
{
anchors = (
{
name = bottom;
pos = (335,0);
}
);
layerId = m01;
shapes = (
{
closed = 1;
nodes = (
(693,0,l),
(693,28,l),
(636,40,o),
(594,76,o),
(552,137,cs),
(252,576,ls),
(215,630,o),
(240,669,o),
(288,672,c),
(288,700,l),
(7,700,l),
(7,672,l),
(64,660,o),
(98,628,o),
(142,563,cs),
(438,131,ls),
(477,74,o),
(460,32,o),
(409,28,c),
(409,0,l)
);
},
{
closed = 1;
nodes = (
(235,0,l),
(235,28,l),
(184,33,o),
(166,78,o),
(204,133,cs),
(350,343,l),
(315,395,l),
(131,129,ls),
(85,63,o),
(25,32,o),
(-10,28,c),
(-10,0,l)
);
},
{
closed = 1;
nodes = (
(521,571,ls),
(562,630,o),
(621,668,o),
(656,672,c),
(656,700,l),
(426,700,l),
(426,672,l),
(482,667,o),
(484,621,o),
(450,571,cs),
(308,364,l),
(342,312,l)
);
}
);
width = 683;
},
{
anchors = (
{
name = bottom;
pos = (314,0);
}
);
layerId = "B693E737-F65C-4B63-97BA-EB353033066E";
shapes = (
{
closed = 1;
nodes = (
(679,0,l),
(679,28,l),
(636,42,o),
(607,76,o),
(566,137,cs),
(264,590,ls),
(241,625,o),
(245,668,o),
(276,672,c),
(276,700,l),
(-9,700,l),
(-9,672,l),
(31,658,o),
(56,628,o),
(100,563,cs),
(401,112,ls),
(427,74,o),
(428,41,o),
(392,28,c),
(392,0,l)
);
},
{
closed = 1;
nodes = (
(220,0,l),
(220,28,l),
(169,33,o),
(154,78,o),
(192,133,cs),
(338,343,l),
(297,395,l),
(113,129,ls),
(67,63,o),
(10,32,o),
(-15,28,c),
(-15,0,l)
);
},
{
closed = 1;
nodes = (
(508,571,ls),
(549,630,o),
(606,668,o),
(631,672,c),
(631,700,l),
(411,700,l),
(411,672,l),
(467,667,o),
(466,621,o),
(432,571,cs),
(290,364,l),
(328,312,l)
);
}
);
width = 659;
},
{
anchors = (
{
name = bottom;
pos = (337,0);
}
);
associatedMasterId = m01;
layerId = "1230E7B2-4C9B-4295-A195-DF3A9F087C47";
shapes = (
{
closed = 1;
nodes = (
(693,0,l),
(693,28,l),
(631,39,o),
(585,76,o),
(542,137,cs),
(243,571,ls),
(201,632,o),
(233,669,o),
(287,672,c),
(287,700,l),
(7,700,l),
(7,672,l),
(70,661,o),
(107,628,o),
(151,563,cs),
(445,137,ls),
(489,74,o),
(466,29,o),
(410,28,c),
(410,0,l)
);
},
{
closed = 1;
nodes = (
(235,0,l),
(235,28,l),
(184,33,o),
(165,78,o),
(203,133,cs),
(349,343,l),
(316,395,l),
(132,129,ls),
(86,63,o),
(25,32,o),
(-13,28,c),
(-13,0,l)
);
},
{
closed = 1;
nodes = (
(520,571,ls),
(561,630,o),
(621,668,o),
(659,672,c),
(659,700,l),
(426,700,l),
(426,672,l),
(482,667,o),
(485,621,o),
(451,571,cs),
(309,364,l),
(342,312,l)
);
}
);
width = 683;
},
{
anchors = (
{
name = bottom;
pos = (368,0);
}
);
layerId = "77A919B5-A12B-4FB4-B82B-A665849CE577";
shapes = (
{
closed = 1;
nodes = (
(645,0,l),
(647,18,l),
(578,34,l),
(302,666,l),
(397,682,l),
(400,700,l),
(132,700,l),
(128,682,l),
(202,666,l),
(478,34,l),
(389,18,l),
(387,0,l)
);
},
{
closed = 1;
nodes = (
(191,0,l),
(194,18,l),
(126,32,l),
(392,358,l),
(382,381,l),
(23,33,l),
(-55,18,l),
(-58,0,l)
);
},
{
closed = 1;
nodes = (
(726,666,l),
(778,682,l),
(780,700,l),
(561,700,l),
(558,682,l),
(627,666,l),
(372,352,l),
(378,332,l)
);
}
);
width = 700;
},
{
anchors = (
{
name = bottom;
pos = (392,0);
}
);
layerId = m004;
shapes = (
{
closed = 1;
nodes = (
(680,0,l),
(682,18,l),
(613,34,l),
(337,666,l),
(432,682,l),
(435,700,l),
(116,700,l),
(112,682,l),
(186,666,l),
(462,34,l),
(373,18,l),
(371,0,l)
);
},
{
closed = 1;
nodes = (
(215,0,l),
(218,18,l),
(150,32,l),
(396,358,l),
(387,372,l),
(7,33,l),
(-71,18,l),
(-74,0,l)
);
},
{
closed = 1;
nodes = (
(770,666,l),
(822,682,l),
(824,700,l),
(571,700,l),
(568,682,l),
(637,666,l),
(406,352,l),
(412,338,l)
);
}
);
width = 736;
}
);
unicode = 88;
},
{
color = 5;
glyphname = Y;
kernLeft = Y;
kernRight = Y;
lastChange = "2022-07-11 11:20:10 +0000";
layers = (
{
anchors = (
{
name = top;
pos = (324,700);
}
);
layerId = m01;
shapes = (
{
closed = 1;
nodes = (
(332,233,l),
(519,571,ls),
(555,636,o),
(587,668,o),
(622,672,c),
(622,700,l),
(397,700,l),
(397,672,l),
(465,670,o),
(484,628,o),
(452,570,cs),
(310,312,l),
(361,312,l),
(208,571,ls),
(173,630,o),
(196,671,o),
(261,672,c),
(261,700,l),
(-20,700,l),
(-20,672,l),
(34,666,o),
(61,626,o),
(91,576,cs),
(294,233,l)
);
},
{
closed = 1;
nodes = (
(452,0,l),
(452,27,l),
(399,38,o),
(365,55,o),
(365,141,c),
(267,141,l),
(267,55,o),
(236,38,o),
(179,27,c),
(179,0,l)
);
},
{
closed = 1;
nodes = (
(365,49,l),
(365,328,l),
(267,328,l),
(267,49,l)
);
}
);
width = 597;
},
{
anchors = (
{
name = top;
pos = (327,700);
}
);
layerId = "B693E737-F65C-4B63-97BA-EB353033066E";
shapes = (
{
closed = 1;
nodes = (
(338,207,l),
(528,571,ls),
(563,638,o),
(593,668,o),
(628,672,c),
(628,700,l),
(403,700,l),
(403,672,l),
(471,670,o),
(483,629,o),
(455,570,cs),
(319,286,l),
(385,300,l),
(248,571,ls),
(218,630,o),
(202,671,o),
(267,672,c),
(267,700,l),
(-15,700,l),
(-15,672,l),
(24,660,o),
(48,628,o),
(77,576,cs),
(280,207,l)
);
},
{
closed = 1;
nodes = (
(448,0,l),
(448,27,l),
(405,38,o),
(391,55,o),
(391,141,c),
(233,141,l),
(233,55,o),
(222,38,o),
(175,27,c),
(175,0,l)
);
},
{
closed = 1;
nodes = (
(391,49,l),
(391,332,l),
(233,332,l),
(233,49,l)
);
}
);
width = 593;
},
{
associatedMasterId = m01;
layerId = "1230E7B2-4C9B-4295-A195-DF3A9F087C47";
shapes = (
{
closed = 1;
nodes = (
(338,242,l),
(524,571,ls),
(561,635,o),
(593,668,o),
(628,672,c),
(628,700,l),
(403,700,l),
(403,672,l),
(471,670,o),
(493,628,o),
(459,570,cs),
(315,321,l),
(361,316,l),
(203,571,ls),
(166,630,o),
(202,671,o),
(267,672,c),
(267,700,l),
(-13,700,l),
(-13,672,l),
(46,668,o),
(74,625,o),
(104,576,cs),
(307,242,l)
);
},
{
closed = 1;
nodes = (
(462,0,l),
(462,27,l),
(405,38,o),
(365,55,o),
(365,141,c),
(287,141,l),
(287,55,o),
(249,38,o),
(189,27,c),
(189,0,l)
);
},
{
closed = 1;
nodes = (
(365,49,l),
(365,327,l),
(287,327,l),
(287,49,l)
);
}
);
width = 615;
},
{
anchors = (
{
name = bottom;
pos = (272,0);
},
{
name = top;
pos = (464,700);
}
);
layerId = "77A919B5-A12B-4FB4-B82B-A665849CE577";
shapes = (
{
closed = 1;
nodes = (
(387,0,l),
(388,18,l),
(301,38,l),
(396,357,l),
(347,289,l),
(712,665,l),
(772,682,l),
(774,700,l),
(554,700,l),
(551,682,l),
(617,665,l),
(372,356,l),
(384,356,l),
(279,665,l),
(373,682,l),
(376,700,l),
(108,700,l),
(104,682,l),
(181,664,l),
(308,297,l),
(306,372,l),
(206,37,l),
(118,18,l),
(117,0,l)
);
}
);
width = 629;
},
{
anchors = (
{
name = bottom;
pos = (307,0);
},
{
name = top;
pos = (486,700);
}
);
layerId = m004;
shapes = (
{
closed = 1;
nodes = (
(422,0,l),
(423,18,l),
(336,38,l),
(425,338,l),
(376,270,l),
(747,665,l),
(807,682,l),
(809,700,l),
(559,700,l),
(556,682,l),
(622,665,l),
(401,337,l),
(413,337,l),
(314,665,l),
(408,682,l),
(411,700,l),
(96,700,l),
(92,682,l),
(169,664,l),
(294,278,l),
(292,353,l),
(198,37,l),
(110,18,l),
(109,0,l)
);
}
);
width = 661;
}
);
unicode = 89;
},
{
color = 5;
glyphname = Z;
kernLeft = Z;
kernRight = Z;
lastChange = "2022-07-11 11:20:25 +0000";
layers = (
{
layerId = m01;
shapes = (
{
closed = 1;
nodes = (
(566,0,l),
(587,216,l),
(559,220,l),
(522,104,o),
(474,53,o),
(382,53,cs),
(164,53,l),
(560,675,l),
(549,700,l),
(203,700,ls),
(127,700,o),
(104,702,o),
(97,732,c),
(69,732,l),
(38,501,l),
(65,497,l),
(91,584,o),
(141,647,o),
(227,647,cs),
(426,647,l),
(30,26,l),
(43,0,l)
);
}
);
width = 617;
},
{
layerId = "B693E737-F65C-4B63-97BA-EB353033066E";
shapes = (
{
closed = 1;
nodes = (
(566,0,l),
(587,216,l),
(559,220,l),
(502,104,o),
(434,53,o),
(342,53,cs),
(226,53,l),
(570,675,l),
(559,700,l),
(203,700,ls),
(127,700,o),
(104,702,o),
(97,732,c),
(69,732,l),
(38,501,l),
(65,497,l),
(131,594,o),
(181,647,o),
(267,647,cs),
(374,647,l),
(30,26,l),
(43,0,l)
);
}
);
width = 617;
},
{
associatedMasterId = m01;
layerId = "1230E7B2-4C9B-4295-A195-DF3A9F087C47";
shapes = (
{
closed = 1;
nodes = (
(571,0,l),
(592,216,l),
(564,220,l),
(534,104,o),
(492,53,o),
(400,53,cs),
(148,53,l),
(562,675,l),
(551,700,l),
(208,700,ls),
(132,700,o),
(109,702,o),
(102,732,c),
(74,732,l),
(43,501,l),
(70,497,l),
(83,581,o),
(133,647,o),
(219,647,cs),
(448,647,l),
(35,26,l),
(48,0,l)
);
}
);
width = 632;
},
{
layerId = "77A919B5-A12B-4FB4-B82B-A665849CE577";
shapes = (
{
closed = 1;
nodes = (
(501,0,l),
(578,243,l),
(561,249,l),
(437,42,l),
(96,42,l),
(103,17,l),
(692,684,l),
(685,700,l),
(292,700,l),
(261,730,l),
(243,728,l),
(166,495,l),
(182,489,l),
(290,658,l),
(590,658,l),
(581,683,l),
(-6,16,l),
(0,0,l)
);
}
);
width = 638;
},
{
layerId = m004;
shapes = (
{
closed = 1;
nodes = (
(520,0,l),
(597,243,l),
(580,249,l),
(416,42,l),
(95,42,l),
(152,17,l),
(711,684,l),
(704,700,l),
(327,700,l),
(260,730,l),
(242,728,l),
(165,495,l),
(181,489,l),
(329,658,l),
(609,658,l),
(550,683,l),
(-7,16,l),
(-1,0,l)
);
}
);
width = 663;
}
);
unicode = 90;
},
{
category = Letter;
color = 5;
glyphname = AE;
kernLeft = A_E;
kernRight = E;
lastChange = "2022-07-07 09:35:12 +0000";
layers = (
{
layerId = m01;
shapes = (
{
closed = 1;
nodes = (
(221,0,l),
(221,26,l),
(144,34,o),
(129,87,o),
(169,156,cs),
(446,638,l),
(446,49,l),
(544,49,l),
(544,700,l),
(308,700,l),
(308,673,l),
(360,671,o),
(390,651,o),
(361,602,cs),
(84,129,ls),
(51,73,o),
(0,30,o),
(-25,27,c),
(-25,0,l)
);
},
{
closed = 1;
nodes = (
(460,215,l),
(460,268,l),
(192,268,l),
(192,215,l)
);
},
{
closed = 1;
nodes = (
(886,0,l),
(909,173,l),
(883,177,l),
(855,88,o),
(794,53,o),
(665,53,cs),
(571,53,o),
(544,95,o),
(544,141,c),
(446,141,l),
(446,55,o),
(415,36,o),
(368,25,c),
(368,0,l)
);
},
{
closed = 1;
nodes = (
(754,237,l),
(754,485,l),
(727,485,l),
(719,429,o),
(697,388,o),
(611,388,cs),
(529,388,l),
(529,335,l),
(611,335,ls),
(697,335,o),
(718,297,o),
(727,237,c)
);
},
{
closed = 1;
nodes = (
(889,520,l),
(863,700,l),
(509,700,l),
(509,647,l),
(676,647,ls),
(764,647,o),
(822,605,o),
(863,513,c)
);
}
);
width = 929;
},
{
layerId = "B693E737-F65C-4B63-97BA-EB353033066E";
shapes = (
{
closed = 1;
nodes = (
(201,0,l),
(201,29,l),
(137,41,o),
(120,81,o),
(154,140,cs),
(426,606,l),
(426,49,l),
(584,49,l),
(584,700,l),
(328,700,l),
(328,675,l),
(385,667,o),
(388,647,o),
(365,609,cs),
(78,129,ls),
(49,81,o),
(9,42,o),
(-35,29,c),
(-35,0,l)
);
},
{
closed = 1;
nodes = (
(464,215,l),
(464,268,l),
(186,268,l),
(186,215,l)
);
},
{
closed = 1;
nodes = (
(896,0,l),
(920,182,l),
(894,186,l),
(863,114,o),
(790,53,o),
(698,53,cs),
(593,53,o),
(584,95,o),
(584,141,c),
(426,141,l),
(426,55,o),
(415,36,o),
(368,25,c),
(368,0,l)
);
},
{
closed = 1;
nodes = (
(774,227,l),
(774,495,l),
(747,495,l),
(739,430,o),
(697,388,o),
(621,388,cs),
(549,388,l),
(549,335,l),
(621,335,ls),
(697,335,o),
(739,294,o),
(747,227,c)
);
},
{
closed = 1;
nodes = (
(901,510,l),
(873,700,l),
(519,700,l),
(519,647,l),
(673,647,ls),
(764,647,o),
(827,594,o),
(875,503,c)
);
}
);
width = 950;
},
{
associatedMasterId = m01;
layerId = "1230E7B2-4C9B-4295-A195-DF3A9F087C47";
shapes = (
{
closed = 1;
nodes = (
(236,0,l),
(236,25,l),
(155,32,o),
(140,89,o),
(182,161,cs),
(461,649,l),
(461,49,l),
(539,49,l),
(539,700,l),
(310,700,l),
(310,672,l),
(360,672,o),
(399,652,o),
(368,600,cs),
(94,129,ls),
(60,70,o),
(5,26,o),
(-13,26,c),
(-13,0,l)
);
},
{
closed = 1;
nodes = (
(467,215,l),
(467,268,l),
(202,268,l),
(202,215,l)
);
},
{
closed = 1;
nodes = (
(891,0,l),
(914,170,l),
(888,174,l),
(861,79,o),
(804,53,o),
(662,53,cs),
(572,53,o),
(539,95,o),
(539,141,c),
(461,141,l),
(461,55,o),
(423,36,o),
(376,25,c),
(376,0,l)
);
},
{
closed = 1;
nodes = (
(756,240,l),
(756,482,l),
(729,482,l),
(721,429,o),
(705,388,o),
(616,388,cs),
(531,388,l),
(531,335,l),
(616,335,ls),
(705,335,o),
(719,298,o),
(729,240,c)
);
},
{
closed = 1;
nodes = (
(893,523,l),
(868,700,l),
(514,700,l),
(514,647,l),
(685,647,ls),
(772,647,o),
(829,609,o),
(867,516,c)
);
}
);
width = 943.66667;
},
{
layerId = "77A919B5-A12B-4FB4-B82B-A665849CE577";
shapes = (
{
closed = 1;
nodes = (
(158,0,l),
(161,18,l),
(70,31,l),
(644,651,l),
(634,663,l),
(447,37,l),
(336,18,l),
(333,0,l),
(592,0,l),
(594,18,l),
(536,31,l),
(724,700,l),
(646,700,l),
(-27,30,l),
(-85,18,l),
(-87,0,l)
);
},
{
closed = 1;
nodes = (
(529,216,l),
(534,256,l),
(232,256,l),
(216,216,l)
);
},
{
pos = (391,0);
ref = E;
}
);
width = 1024;
},
{
associatedMasterId = "77A919B5-A12B-4FB4-B82B-A665849CE577";
layerId = "6A9B6762-2A4E-418D-AF46-B05A90263E23";
shapes = (
{
closed = 1;
nodes = (
(236,0,l),
(236,25,l),
(155,32,o),
(140,89,o),
(182,161,cs),
(461,649,l),
(461,49,l),
(539,49,l),
(539,700,l),
(310,700,l),
(310,672,l),
(360,672,o),
(399,652,o),
(368,600,cs),
(94,129,ls),
(60,70,o),
(5,26,o),
(-13,26,c),
(-13,0,l)
);
},
{
closed = 1;
nodes = (
(467,215,l),
(467,268,l),
(202,268,l),
(202,215,l)
);
},
{
closed = 1;
nodes = (
(891,0,l),
(914,170,l),
(888,174,l),
(861,79,o),
(804,53,o),
(662,53,cs),
(572,53,o),
(539,95,o),
(539,141,c),
(461,141,l),
(461,55,o),
(423,36,o),
(376,25,c),
(376,0,l)
);
},
{
closed = 1;
nodes = (
(756,240,l),
(756,482,l),
(729,482,l),
(721,429,o),
(705,388,o),
(616,388,cs),
(531,388,l),
(531,335,l),
(616,335,ls),
(705,335,o),
(719,298,o),
(729,240,c)
);
},
{
closed = 1;
nodes = (
(893,523,l),
(868,700,l),
(514,700,l),
(514,647,l),
(685,647,ls),
(772,647,o),
(829,609,o),
(867,516,c)
);
}
);
width = 943.66667;
},
{
layerId = m004;
shapes = (
{
closed = 1;
nodes = (
(177,0,l),
(180,18,l),
(97,34,l),
(629,651,l),
(619,663,l),
(460,34,l),
(350,18,l),
(347,0,l),
(654,0,l),
(656,18,l),
(548,33,l),
(757,700,l),
(631,700,l),
(-37,32,l),
(-96,18,l),
(-98,0,l)
);
},
{
closed = 1;
nodes = (
(508,217,l),
(513,258,l),
(241,258,l),
(225,217,l)
);
},
{
alignment = -1;
pos = (395,0);
ref = E;
}
);
width = 1056;
},
{
associatedMasterId = m004;
layerId = "D61924C4-8C45-4354-BCC5-C71EEDDA002A";
shapes = (
{
closed = 1;
nodes = (
(236,0,l),
(236,25,l),
(155,32,o),
(140,89,o),
(182,161,cs),
(461,649,l),
(461,49,l),
(539,49,l),
(539,700,l),
(310,700,l),
(310,672,l),
(360,672,o),
(399,652,o),
(368,600,cs),
(94,129,ls),
(60,70,o),
(5,26,o),
(-13,26,c),
(-13,0,l)
);
},
{
closed = 1;
nodes = (
(467,215,l),
(467,268,l),
(202,268,l),
(202,215,l)
);
},
{
closed = 1;
nodes = (
(891,0,l),
(914,170,l),
(888,174,l),
(861,79,o),
(804,53,o),
(662,53,cs),
(572,53,o),
(539,95,o),
(539,141,c),
(461,141,l),
(461,55,o),
(423,36,o),
(376,25,c),
(376,0,l)
);
},
{
closed = 1;
nodes = (
(756,240,l),
(756,482,l),
(729,482,l),
(721,429,o),
(705,388,o),
(616,388,cs),
(531,388,l),
(531,335,l),
(616,335,ls),
(705,335,o),
(719,298,o),
(729,240,c)
);
},
{
closed = 1;
nodes = (
(893,523,l),
(868,700,l),
(514,700,l),
(514,647,l),
(685,647,ls),
(772,647,o),
(829,609,o),
(867,516,c)
);
}
);
width = 943.66667;
}
);
metricLeft = A;
metricRight = E;
subCategory = Ligature;
unicode = 198;
},
{
color = 5;
glyphname = W_W_W;
kernLeft = V;
kernRight = V;
lastChange = "2022-07-11 12:39:34 +0000";
layers = (
{
layerId = m01;
shapes = (
{
ref = boutW;
},
{
pos = (360,0);
ref = boutW;
},
{
pos = (720,0);
ref = boutW;
},
{
pos = (1080,0);
ref = W;
}
);
width = 2036;
},
{
layerId = "B693E737-F65C-4B63-97BA-EB353033066E";
shapes = (
{
ref = boutW;
},
{
pos = (357,0);
ref = boutW;
},
{
pos = (714,0);
ref = boutW;
},
{
pos = (1071,0);
ref = W;
}
);
width = 2012;
},
{
associatedMasterId = m01;
layerId = "1230E7B2-4C9B-4295-A195-DF3A9F087C47";
width = 2494.66667;
},
{
layerId = "77A919B5-A12B-4FB4-B82B-A665849CE577";
shapes = (
{
closed = 1;
nodes = (
(1613,0,l),
(2072,667,l),
(2133,682,l),
(2135,700,l),
(1887,700,l),
(1884,682,l),
(1977,666,l),
(1615,49,l),
(1627,37,l),
(1666,665,l),
(1774,682,l),
(1777,700,l),
(1518,700,l),
(1516,682,l),
(1576,666,l),
(1537,0,l)
);
},
{
closed = 1;
nodes = (
(1288,0,l),
(1592,478,l),
(1572,548,l),
(1290,51,l),
(1302,37,l),
(1311,665,l),
(1399,682,l),
(1402,700,l),
(1163,700,l),
(1161,682,l),
(1221,666,l),
(1212,0,l)
);
},
{
closed = 1;
nodes = (
(938,0,l),
(1242,478,l),
(1222,548,l),
(940,51,l),
(952,37,l),
(961,665,l),
(1049,682,l),
(1052,700,l),
(813,700,l),
(811,682,l),
(871,666,l),
(862,0,l)
);
},
{
closed = 1;
nodes = (
(588,1,l),
(892,479,l),
(872,549,l),
(590,52,l),
(602,38,l),
(611,666,l),
(699,683,l),
(702,701,l),
(463,701,l),
(461,683,l),
(521,667,l),
(512,1,l)
);
},
{
closed = 1;
nodes = (
(238,1,l),
(542,479,l),
(522,549,l),
(240,52,l),
(252,38,l),
(261,666,l),
(349,683,l),
(352,701,l),
(113,701,l),
(111,683,l),
(171,667,l),
(162,1,l)
);
}
);
width = 1980;
},
{
layerId = m004;
shapes = (
{
closed = 1;
nodes = (
(1646,0,l),
(2122,667,l),
(2183,682,l),
(2185,700,l),
(1905,700,l),
(1902,682,l),
(1995,666,l),
(1648,49,l),
(1660,37,l),
(1699,665,l),
(1807,682,l),
(1810,700,l),
(1505,700,l),
(1503,682,l),
(1563,666,l),
(1524,0,l)
);
},
{
closed = 1;
nodes = (
(1315,0,l),
(1651,478,l),
(1599,548,l),
(1317,51,l),
(1329,37,l),
(1338,665,l),
(1426,682,l),
(1429,700,l),
(1144,700,l),
(1142,682,l),
(1202,666,l),
(1193,0,l)
);
},
{
closed = 1;
nodes = (
(969,0,l),
(1305,478,l),
(1253,548,l),
(971,51,l),
(983,37,l),
(992,665,l),
(1080,682,l),
(1083,700,l),
(798,700,l),
(796,682,l),
(856,666,l),
(847,0,l)
);
},
{
closed = 1;
nodes = (
(623,0,l),
(959,478,l),
(907,548,l),
(625,51,l),
(637,37,l),
(646,665,l),
(734,682,l),
(737,700,l),
(452,700,l),
(450,682,l),
(510,666,l),
(501,0,l)
);
},
{
closed = 1;
nodes = (
(277,0,l),
(613,478,l),
(561,548,l),
(279,51,l),
(291,37,l),
(300,665,l),
(388,682,l),
(391,700,l),
(106,700,l),
(104,682,l),
(164,666,l),
(155,0,l)
);
}
);
width = 2027;
}
);
metricLeft = W;
metricRight = W;
},
{
color = 5;
glyphname = a;
kernLeft = a;
kernRight = n;
lastChange = "2022-07-11 12:55:03 +0000";
layers = (
{
anchors = (
{
name = bottom;
pos = (260,0);
},
{
name = top;
pos = (239,470);
}
);
layerId = m01;
shapes = (
{
closed = 1;
nodes = (
(413,-14,o),
(453,22,o),
(479,52,c),
(461,73,l),
(448,63,o),
(433,52,o),
(421,52,cs),
(406,52,o),
(397,62,o),
(397,82,cs),
(397,349,ls),
(397,431,o),
(349,484,o),
(274,484,cs),
(182,484,o),
(55,400,o),
(55,338,cs),
(55,315,o),
(63,298,o),
(79,280,c),
(157,313,l),
(149,329,o),
(144,347,o),
(144,361,cs),
(144,398,o),
(187,426,o),
(224,426,cs),
(287,426,o),
(309,389,o),
(309,317,cs),
(309,63,ls),
(309,11,o),
(343,-14,o),
(377,-14,cs)
);
},
{
closed = 1;
nodes = (
(242,-14,o),
(291,34,o),
(327,72,c),
(324,117,l),
(302,86,o),
(261,52,o),
(219,52,cs),
(181,52,o),
(152,76,o),
(152,113,cs),
(152,143,o),
(167,168,o),
(213,183,cs),
(325,220,l),
(325,264,l),
(168,214,ls),
(97,191,o),
(57,158,o),
(57,93,cs),
(57,30,o),
(116,-14,o),
(177,-14,cs)
);
}
);
width = 489;
},
{
anchors = (
{
name = bottom;
pos = (272,0);
},
{
name = top;
pos = (260,470);
}
);
layerId = "B693E737-F65C-4B63-97BA-EB353033066E";
shapes = (
{
closed = 1;
nodes = (
(433,-14,o),
(481,21,o),
(519,55,c),
(504,80,l),
(492,72,o),
(478,66,o),
(466,66,cs),
(454,66,o),
(444,73,o),
(444,93,cs),
(444,359,ls),
(444,441,o),
(383,494,o),
(298,494,cs),
(185,494,o),
(41,418,o),
(41,346,cs),
(41,323,o),
(53,297,o),
(80,279,c),
(206,314,l),
(191,330,o),
(177,354,o),
(177,375,cs),
(177,410,o),
(201,437,o),
(237,437,cs),
(292,437,o),
(296,390,o),
(296,314,cs),
(296,63,ls),
(296,11,o),
(335,-14,o),
(379,-14,cs)
);
},
{
closed = 1;
nodes = (
(245,-14,o),
(303,31,o),
(339,69,c),
(336,115,l),
(314,92,o),
(284,61,o),
(252,61,cs),
(218,61,o),
(195,86,o),
(195,118,cs),
(195,159,o),
(227,182,o),
(276,197,cs),
(337,216,l),
(337,264,l),
(194,225,ls),
(118,204,o),
(40,167,o),
(40,93,cs),
(40,29,o),
(98,-14,o),
(167,-14,cs)
);
}
);
width = 524;
},
{
anchors = (
{
name = bottom;
pos = (251,0);
},
{
name = top;
pos = (227,470);
}
);
associatedMasterId = m01;
layerId = "1230E7B2-4C9B-4295-A195-DF3A9F087C47";
shapes = (
{
closed = 1;
nodes = (
(401,-14,o),
(439,22,o),
(462,52,c),
(442,71,l),
(428,60,o),
(413,47,o),
(401,47,cs),
(385,47,o),
(376,58,o),
(376,78,cs),
(376,346,ls),
(376,428,o),
(333,481,o),
(261,481,cs),
(176,481,o),
(55,394,o),
(55,335,cs),
(55,312,o),
(61,298,o),
(74,280,c),
(136,313,l),
(130,329,o),
(128,345,o),
(128,356,cs),
(128,394,o),
(177,419,o),
(215,419,cs),
(280,419,o),
(308,389,o),
(308,318,cs),
(308,63,ls),
(308,11,o),
(341,-14,o),
(371,-14,cs)
);
},
{
closed = 1;
nodes = (
(236,-14,o),
(282,35,o),
(318,73,c),
(315,119,l),
(293,85,o),
(248,50,o),
(203,50,cs),
(164,50,o),
(133,73,o),
(133,111,cs),
(133,138,o),
(142,165,o),
(187,180,cs),
(316,223,l),
(316,265,l),
(154,211,ls),
(85,188,o),
(58,155,o),
(58,93,cs),
(58,30,o),
(117,-14,o),
(175,-14,cs)
);
}
);
width = 472;
},
{
anchors = (
{
name = bottom;
pos = (140,0);
},
{
name = top;
pos = (300,480);
}
);
guides = (
{
pos = (468,499);
}
);
layerId = "77A919B5-A12B-4FB4-B82B-A665849CE577";
shapes = (
{
closed = 1;
nodes = (
(322,21,o),
(362,67,o),
(430,126,c),
(421,141,l),
(369,110,o),
(346,93,o),
(324,75,c),
(334,115,o),
(344,148,o),
(365,215,cs),
(451,491,l),
(439,499,l),
(365,454,l),
(269,149,ls),
(251,91,o),
(232,45,o),
(234,30,cs),
(238,9,o),
(268,-14,o),
(292,-14,c)
);
},
{
pos = (-52,0);
ref = panse_adq;
}
);
width = 466;
},
{
anchors = (
{
name = bottom;
pos = (179,0);
},
{
name = top;
pos = (339,480);
}
);
guides = (
{
pos = (502,509);
}
);
layerId = m004;
shapes = (
{
closed = 1;
nodes = (
(411,23,o),
(459,77,o),
(518,125,c),
(511,142,l),
(472,123,o),
(443,106,o),
(421,88,c),
(428,122,o),
(432,148,o),
(454,215,cs),
(547,500,l),
(533,509,l),
(406,454,l),
(308,149,ls),
(289,91,o),
(275,49,o),
(277,36,cs),
(279,23,o),
(339,-14,o),
(375,-14,c)
);
},
{
pos = (-13,0);
ref = panse_adq;
}
);
width = 551;
}
);
note = a;
unicode = 97;
},
{
color = 5;
glyphname = b;
kernLeft = h;
kernRight = o;
lastChange = "2022-07-07 08:50:50 +0000";
layers = (
{
layerId = m01;
shapes = (
{
closed = 1;
nodes = (
(156,676,l),
(68,676,l),
(68,178,ls),
(68,111,o),
(67,80,o),
(56,25,c),
(69,10,l),
(97,10,o),
(122,5,o),
(156,-2,c)
);
},
{
pos = (12,4);
ref = empattement_haut;
},
{
pos = (-32,0);
ref = panse;
}
);
width = 517;
},
{
layerId = "B693E737-F65C-4B63-97BA-EB353033066E";
shapes = (
{
closed = 1;
nodes = (
(201,676,l),
(53,676,l),
(53,178,ls),
(53,111,o),
(52,80,o),
(41,25,c),
(54,10,l),
(112,10,o),
(164,-1,o),
(201,-7,c)
);
},
{
pos = (27,4);
ref = empattement_haut;
},
{
pos = (-28,0);
ref = panse;
}
);
width = 552;
},
{
associatedMasterId = m01;
layerId = "1230E7B2-4C9B-4295-A195-DF3A9F087C47";
shapes = (
{
closed = 1;
nodes = (
(171,676,l),
(103,676,l),
(103,178,ls),
(103,111,o),
(102,80,o),
(91,25,c),
(104,10,l),
(122,10,o),
(138,7,o),
(171,0,c)
);
},
{
alignment = -1;
pos = (37,4);
ref = empattement_haut;
},
{
alignment = -1;
pos = (-3,0);
ref = panse;
}
);
width = 535.33333;
},
{
guides = (
{
pos = (458,499);
}
);
layerId = "77A919B5-A12B-4FB4-B82B-A665849CE577";
shapes = (
{
closed = 1;
nodes = (
(303,-14,o),
(419,262,o),
(419,406,cs),
(419,450,o),
(407,499,o),
(368,499,cs),
(305,499,o),
(200,371,o),
(47,113,c),
(86,85,l),
(142,254,o),
(294,403,o),
(323,418,c),
(327,399,o),
(329,378,o),
(329,357,cs),
(329,231,o),
(267,75,o),
(218,37,c),
(176,44,o),
(108,79,o),
(80,108,c),
(10,52,l),
(37,30,o),
(113,-14,o),
(177,-14,cs)
);
},
{
closed = 1;
nodes = (
(58,63,l),
(121,168,l),
(245,609,l),
(177,626,l),
(10,52,l)
);
},
{
alignment = -1;
pos = (-247,-21);
ref = empattement_montante;
scale = (0.918,1.02);
}
);
width = 429;
},
{
associatedMasterId = "77A919B5-A12B-4FB4-B82B-A665849CE577";
layerId = "5B3BE2F6-0696-4C1A-9869-27D873BF9FAA";
name = "27 sept. 21 à 11:06";
shapes = (
{
closed = 1;
nodes = (
(387,138,o),
(498,292,o),
(498,401,cs),
(498,439,o),
(486,484,o),
(435,484,cs),
(379,484,o),
(280,382,o),
(184,232,c),
(168,232,l),
(106,0,l),
(222,249,o),
(347,402,o),
(381,402,cs),
(394,402,o),
(400,392,o),
(400,375,cs),
(400,297,o),
(284,125,o),
(284,47,cs),
(284,8,o),
(303,-15,o),
(334,-15,cs),
(387,-15,o),
(466,64,o),
(516,134,c),
(493,150,l),
(456,100,o),
(412,58,o),
(400,58,cs),
(393,58,o),
(387,62,o),
(387,77,cs)
);
},
{
closed = 1;
nodes = (
(211,357,o),
(223,400,o),
(223,431,cs),
(223,467,o),
(213,487,o),
(181,487,cs),
(130,487,o),
(55,418,o),
(12,354,c),
(34,338,l),
(74,388,o),
(107,421,o),
(118,421,cs),
(127,421,o),
(130,415,o),
(130,400,cs),
(130,377,o),
(117,332,o),
(94,259,cs),
(12,0,l),
(106,0,l),
(196,306,ls)
);
}
);
width = 512;
},
{
associatedMasterId = "77A919B5-A12B-4FB4-B82B-A665849CE577";
layerId = "59C21FDD-395E-45C6-A2ED-3422BE861B15";
name = "29 janv. 22 à 16:56";
shapes = (
{
closed = 1;
nodes = (
(309,-14,o),
(423,245,o),
(423,387,cs),
(423,459,o),
(403,494,o),
(366,494,cs),
(296,494,o),
(243,412,o),
(170,305,c),
(130,309,l),
(55,77,l),
(74,56,l),
(130,237,o),
(286,396,o),
(315,396,cs),
(326,396,o),
(328,378,o),
(328,357,cs),
(328,225,o),
(263,55,o),
(207,55,cs),
(172,55,o),
(131,74,o),
(109,111,c),
(14,64,l),
(57,18,o),
(111,-14,o),
(181,-14,cs)
);
},
{
closed = 1;
nodes = (
(109,100,l),
(235,609,l),
(153,626,l),
(14,64,l)
);
},
{
alignment = -1;
pos = (-256,-21);
ref = empattement_montante;
scale = (0.918,1.02);
}
);
width = 442;
},
{
associatedMasterId = "77A919B5-A12B-4FB4-B82B-A665849CE577";
guides = (
{
pos = (458,499);
}
);
layerId = "D561B60C-EBC4-4E3E-909F-28F39CDCB98C";
name = "16 févr. 22 à 12:39";
shapes = (
{
closed = 1;
nodes = (
(58,63,l),
(121,168,l),
(245,609,l),
(177,626,l),
(14,65,l)
);
},
{
alignment = -1;
pos = (-247,-21);
ref = empattement_montante;
scale = (0.918,1.02);
},
{
angle = 180;
pos = (486,485);
ref = panse_adq;
}
);
width = 432;
},
{
guides = (
{
pos = (437,499);
}
);
layerId = m004;
shapes = (
{
closed = 1;
nodes = (
(380,-14,o),
(508,261,o),
(508,410,cs),
(508,459,o),
(482,509,o),
(440,509,cs),
(377,509,o),
(243,378,o),
(90,120,c),
(129,85,l),
(185,254,o),
(342,412,o),
(368,429,c),
(371,410,o),
(371,379,o),
(371,358,cs),
(371,232,o),
(314,71,o),
(270,33,c),
(233,39,o),
(144,116,o),
(116,146,c),
(6,60,l),
(64,16,o),
(161,-14,o),
(223,-14,cs)
);
},
{
closed = 1;
nodes = (
(52,63,l),
(164,168,l),
(288,609,l),
(171,626,l),
(6,60,l)
);
},
{
alignment = -1;
pos = (-253,-21);
ref = empattement_montante;
scale = (0.918,1.02);
}
);
width = 507;
},
{
associatedMasterId = m004;
layerId = "06935A3A-8FDD-4D77-875F-D76B60EA9C7E";
name = "27 sept. 21 à 11:06";
shapes = (
{
closed = 1;
nodes = (
(387,138,o),
(498,292,o),
(498,401,cs),
(498,439,o),
(486,484,o),
(435,484,cs),
(379,484,o),
(280,382,o),
(184,232,c),
(168,232,l),
(106,0,l),
(222,249,o),
(347,402,o),
(381,402,cs),
(394,402,o),
(400,392,o),
(400,375,cs),
(400,297,o),
(284,125,o),
(284,47,cs),
(284,8,o),
(303,-15,o),
(334,-15,cs),
(387,-15,o),
(466,64,o),
(516,134,c),
(493,150,l),
(456,100,o),
(412,58,o),
(400,58,cs),
(393,58,o),
(387,62,o),
(387,77,cs)
);
},
{
closed = 1;
nodes = (
(211,357,o),
(223,400,o),
(223,431,cs),
(223,467,o),
(213,487,o),
(181,487,cs),
(130,487,o),
(55,418,o),
(12,354,c),
(34,338,l),
(74,388,o),
(107,421,o),
(118,421,cs),
(127,421,o),
(130,415,o),
(130,400,cs),
(130,377,o),
(117,332,o),
(94,259,cs),
(12,0,l),
(106,0,l),
(196,306,ls)
);
}
);
width = 512;
},
{
associatedMasterId = m004;
layerId = "D6CB7938-402A-4D33-A611-4DDF785DEE71";
name = "29 janv. 22 à 16:56";
shapes = (
{
closed = 1;
nodes = (
(309,-14,o),
(423,245,o),
(423,387,cs),
(423,459,o),
(403,494,o),
(366,494,cs),
(296,494,o),
(243,412,o),
(170,305,c),
(130,309,l),
(55,77,l),
(74,56,l),
(130,237,o),
(286,396,o),
(315,396,cs),
(326,396,o),
(328,378,o),
(328,357,cs),
(328,225,o),
(263,55,o),
(207,55,cs),
(172,55,o),
(131,74,o),
(109,111,c),
(14,64,l),
(57,18,o),
(111,-14,o),
(181,-14,cs)
);
},
{
closed = 1;
nodes = (
(109,100,l),
(235,609,l),
(153,626,l),
(14,64,l)
);
},
{
alignment = -1;
pos = (-256,-21);
ref = empattement_montante;
scale = (0.918,1.02);
}
);
width = 442;
},
{
associatedMasterId = m004;
guides = (
{
pos = (458,499);
}
);
layerId = "B7DF82C1-6150-4183-B7E4-4F7E1813A844";
name = "16 févr. 22 à 12:39";
shapes = (
{
closed = 1;
nodes = (
(58,63,l),
(121,168,l),
(245,609,l),
(177,626,l),
(14,65,l)
);
},
{
alignment = -1;
pos = (-247,-21);
ref = empattement_montante;
scale = (0.918,1.02);
},
{
angle = 180;
pos = (486,485);
ref = panse_adq;
}
);
width = 432;
}
);
metricRight = o;
note = b;
unicode = 98;
},
{
color = 5;
glyphname = c;
kernLeft = o;
kernRight = c;
lastChange = "2022-07-11 12:24:36 +0000";
layers = (
{
anchors = (
{
name = bottom;
pos = (234,-9);
}
);
layerId = m01;
shapes = (
{
closed = 1;
nodes = (
(297,-13,o),
(367,38,o),
(405,103,c),
(382,123,l),
(352,90,o),
(316,64,o),
(270,64,cs),
(191,64,o),
(121,160,o),
(121,269,cs),
(121,368,o),
(169,429,o),
(219,429,cs),
(270,429,o),
(308,382,o),
(343,330,c),
(400,421,l),
(370,452,o),
(317,483,o),
(249,483,cs),
(122,483,o),
(30,373,o),
(30,232,cs),
(30,92,o),
(121,-13,o),
(225,-13,cs)
);
}
);
width = 420;
},
{
anchors = (
{
name = bottom;
pos = (242,-9);
}
);
associatedMasterId = m01;
layerId = "7DE72A67-3013-41CC-B150-27D147E55969";
name = "17 mars 21 à 11:51";
shapes = (
{
closed = 1;
nodes = (
(323,-11,o),
(391,48,o),
(437,103,c),
(415,125,l),
(382,95,o),
(338,66,o),
(294,66,cs),
(185,66,o),
(124,167,o),
(124,269,cs),
(124,343,o),
(159,425,o),
(232,425,cs),
(289,425,o),
(333,385,o),
(380,335,c),
(430,408,l),
(422,435,l),
(380,462,o),
(319,484,o),
(266,484,cs),
(124,484,o),
(30,368,o),
(30,224,cs),
(30,91,o),
(127,-11,o),
(245,-11,cs)
);
}
);
width = 452;
},
{
anchors = (
{
name = bottom;
pos = (237,-9);
}
);
layerId = "B693E737-F65C-4B63-97BA-EB353033066E";
shapes = (
{
closed = 1;
nodes = (
(318,-14,o),
(375,32,o),
(427,95,c),
(406,118,l),
(369,90,o),
(337,77,o),
(304,77,cs),
(214,77,o),
(165,175,o),
(165,282,cs),
(165,371,o),
(194,441,o),
(246,441,cs),
(296,441,o),
(331,363,o),
(358,298,c),
(447,411,l),
(411,453,o),
(352,494,o),
(272,494,cs),
(132,494,o),
(25,368,o),
(25,226,cs),
(25,91,o),
(122,-14,o),
(238,-14,cs)
);
}
);
width = 437;
},
{
anchors = (
{
name = bottom;
pos = (227,-9);
}
);
associatedMasterId = m01;
layerId = "1230E7B2-4C9B-4295-A195-DF3A9F087C47";
shapes = (
{
closed = 1;
nodes = (
(302,-13,o),
(368,36,o),
(403,103,c),
(380,122,l),
(357,88,o),
(319,61,o),
(272,61,cs),
(189,61,o),
(110,160,o),
(110,280,cs),
(110,352,o),
(138,427,o),
(206,427,cs),
(248,427,o),
(305,381,o),
(343,328,c),
(403,405,l),
(367,444,o),
(311,481,o),
(244,481,cs),
(107,481,o),
(32,366,o),
(32,222,cs),
(32,89,o),
(119,-13,o),
(229,-13,cs)
);
}
);
width = 428;
},
{
anchors = (
{
name = bottom;
pos = (230,-9);
}
);
associatedMasterId = m01;
layerId = "E0C6C644-B970-455E-A4D2-D5374D9267B1";
name = "16 déc. 21 à 10:33";
shapes = (
{
closed = 1;
nodes = (
(301,-13,o),
(365,40,o),
(401,103,c),
(378,123,l),
(353,90,o),
(312,64,o),
(266,64,cs),
(176,64,o),
(120,170,o),
(120,258,cs),
(120,371,o),
(161,429,o),
(212,429,cs),
(260,429,o),
(304,380,o),
(339,326,c),
(403,411,l),
(364,452,o),
(307,484,o),
(239,484,cs),
(111,484,o),
(30,364,o),
(30,230,cs),
(30,90,o),
(117,-13,o),
(224,-13,cs)
);
}
);
width = 418;
},
{
anchors = (
{
name = bottom;
pos = (196,0);
}
);
guides = (
{
pos = (456,499);
}
);
layerId = "77A919B5-A12B-4FB4-B82B-A665849CE577";
shapes = (
{
closed = 1;
nodes = (
(164,-14,o),
(237,50,o),
(292,139,c),
(279,150,l),
(228,98,o),
(169,56,o),
(137,46,c),
(112,69,o),
(108,108,o),
(108,152,cs),
(108,246,o),
(151,371,o),
(218,433,c),
(262,418,o),
(306,394,o),
(331,379,c),
(368,464,l),
(340,483,o),
(297,499,o),
(273,499,cs),
(171,499,o),
(12,236,o),
(12,114,cs),
(12,48,o),
(61,-14,o),
(104,-14,cs)
);
}
);
width = 336;
},
{
anchors = (
{
name = bottom;
pos = (242,-9);
}
);
associatedMasterId = "77A919B5-A12B-4FB4-B82B-A665849CE577";
layerId = "F2D70B28-5088-472E-9AE2-EDFC41DC539E";
name = "17 mars 21 à 11:51";
shapes = (
{
closed = 1;
nodes = (
(323,-11,o),
(391,48,o),
(437,103,c),
(415,125,l),
(382,95,o),
(338,66,o),
(294,66,cs),
(185,66,o),
(124,167,o),
(124,269,cs),
(124,343,o),
(159,425,o),
(232,425,cs),
(289,425,o),
(333,385,o),
(380,335,c),
(430,408,l),
(422,435,l),
(380,462,o),
(319,484,o),
(266,484,cs),
(124,484,o),
(30,368,o),
(30,224,cs),
(30,91,o),
(127,-11,o),
(245,-11,cs)
);
}
);
width = 452;
},
{
anchors = (
{
name = bottom;
pos = (447,-9);
}
);
associatedMasterId = "77A919B5-A12B-4FB4-B82B-A665849CE577";
layerId = "597166EB-372B-4778-B287-E88EE0062D89";
name = "11 janv. 22 à 20:52";
shapes = (
{
closed = 1;
nodes = (
(201,-13,o),
(272,59,o),
(314,144,c),
(290,162,l),
(257,114,o),
(211,71,o),
(172,71,cs),
(127,71,o),
(100,108,o),
(100,182,cs),
(100,289,o),
(168,421,o),
(233,421,cs),
(275,421,o),
(288,371,o),
(294,318,c),
(374,371,l),
(368,422,o),
(332,484,o),
(266,484,cs),
(138,484,o),
(10,273,o),
(10,138,cs),
(10,55,o),
(50,-13,o),
(115,-13,cs)
);
}
);
width = 360;
},
{
anchors = (
{
name = bottom;
pos = (233,0);
}
);
guides = (
{
pos = (478,509);
}
);
layerId = m004;
shapes = (
{
closed = 1;
nodes = (
(214,-14,o),
(289,51,o),
(336,142,c),
(321,153,l),
(269,100,o),
(209,57,o),
(175,46,c),
(151,71,o),
(147,110,o),
(147,155,cs),
(147,251,o),
(191,379,o),
(255,437,c),
(302,418,o),
(339,388,o),
(364,367,c),
(427,481,l),
(399,498,o),
(348,509,o),
(315,509,cs),
(211,509,o),
(1,252,o),
(1,117,cs),
(1,49,o),
(60,-14,o),
(143,-14,cs)
);
}
);
width = 379;
},
{
anchors = (
{
name = bottom;
pos = (242,-9);
}
);
associatedMasterId = m004;
layerId = "C9F5234C-E7DA-4C66-883D-226DFD4DAA4B";
name = "17 mars 21 à 11:51";
shapes = (
{
closed = 1;
nodes = (
(323,-11,o),
(391,48,o),
(437,103,c),
(415,125,l),
(382,95,o),
(338,66,o),
(294,66,cs),
(185,66,o),
(124,167,o),
(124,269,cs),
(124,343,o),
(159,425,o),
(232,425,cs),
(289,425,o),
(333,385,o),
(380,335,c),
(430,408,l),
(422,435,l),
(380,462,o),
(319,484,o),
(266,484,cs),
(124,484,o),
(30,368,o),
(30,224,cs),
(30,91,o),
(127,-11,o),
(245,-11,cs)
);
}
);
width = 452;
},
{
anchors = (
{
name = bottom;
pos = (447,-9);
}
);
associatedMasterId = m004;
layerId = "A579D4D7-E211-407A-B5A8-006148694B9D";
name = "11 janv. 22 à 20:52";
shapes = (
{
closed = 1;
nodes = (
(201,-13,o),
(272,59,o),
(314,144,c),
(290,162,l),
(257,114,o),
(211,71,o),
(172,71,cs),
(127,71,o),
(100,108,o),
(100,182,cs),
(100,289,o),
(168,421,o),
(233,421,cs),
(275,421,o),
(288,371,o),
(294,318,c),
(374,371,l),
(368,422,o),
(332,484,o),
(266,484,cs),
(138,484,o),
(10,273,o),
(10,138,cs),
(10,55,o),
(50,-13,o),
(115,-13,cs)
);
}
);
width = 360;
}
);
metricLeft = o;
note = c;
unicode = 99;
},
{
color = 5;
glyphname = d;
kernLeft = o;
kernRight = l;
lastChange = "2024-09-02 09:46:32 +0000";
layers = (
{
layerId = m01;
shapes = (
{
angle = 180;
pos = (551,473);
ref = empattement_decale;
},
{
closed = 1;
nodes = (
(448,103,l),
(448,665,l),
(360,665,l),
(360,103,l)
);
},
{
pos = (304,4);
ref = empattement_haut;
},
{
angle = 180;
pos = (549,470);
ref = panse;
}
);
width = 540;
},
{
layerId = "B693E737-F65C-4B63-97BA-EB353033066E";
shapes = (
{
angle = 180;
pos = (566,473);
ref = empattement_decale;
},
{
closed = 1;
nodes = (
(493,81,l),
(493,665,l),
(345,665,l),
(345,61,l)
);
},
{
pos = (319,4);
ref = empattement_haut;
},
{
angle = 180;
pos = (580,480);
ref = panse;
}
);
width = 557;
},
{
associatedMasterId = m01;
layerId = "1230E7B2-4C9B-4295-A195-DF3A9F087C47";
shapes = (
{
alignment = -1;
angle = 180;
pos = (546,473);
ref = empattement_decale;
},
{
closed = 1;
nodes = (
(433,110,l),
(433,665,l),
(365,665,l),
(365,117,l)
);
},
{
alignment = -1;
pos = (299,4);
ref = empattement_haut;
},
{
alignment = -1;
angle = 180;
pos = (539,467);
ref = panse;
}
);
width = 529.33333;
},
{
anchors = (
{
name = bottom;
pos = (207,0);
},
{
name = top;
pos = (210,480);
}
);
guides = (
{
pos = (451,499);
}
);
layerId = "77A919B5-A12B-4FB4-B82B-A665849CE577";
shapes = (
{
alignment = -1;
pos = (226,0);
ref = l;
},
{
pos = (-57,0);
ref = panse_adq;
}
);
width = 471;
},
{
anchors = (
{
name = bottom;
pos = (196,0);
},
{
name = top;
pos = (236,480);
}
);
guides = (
{
pos = (462,499);
}
);
layerId = m004;
shapes = (
{
alignment = -1;
pos = (257,0);
ref = l;
},
{
pos = (-28,0);
ref = panse_adq;
}
);
width = 543;
}
);
metricLeft = o;
note = d;
unicode = 100;
},
{
color = 5;
glyphname = e;
kernLeft = o;
kernRight = e;
lastChange = "2022-07-11 12:55:09 +0000";
layers = (
{
anchors = (
{
name = bottom;
pos = (232,0);
},
{
name = top;
pos = (236,470);
}
);
layerId = m01;
shapes = (
{
closed = 1;
nodes = (
(308,-13,o),
(368,35,o),
(416,99,c),
(395,122,l),
(351,84,o),
(323,65,o),
(275,65,cs),
(180,65,o),
(123,154,o),
(123,267,cs),
(123,362,o),
(163,434,o),
(221,434,cs),
(276,434,o),
(312,370,o),
(312,304,c),
(86,304,l),
(86,259,l),
(413,259,l),
(413,361,o),
(375,484,o),
(245,484,cs),
(118,484,o),
(30,365,o),
(30,228,cs),
(30,80,o),
(132,-13,o),
(234,-13,cs)
);
}
);
width = 436;
},
{
anchors = (
{
name = bottom;
pos = (254,0);
},
{
name = top;
pos = (258,470);
}
);
layerId = "B693E737-F65C-4B63-97BA-EB353033066E";
shapes = (
{
closed = 1;
nodes = (
(327,-13,o),
(394,37,o),
(437,96,c),
(415,119,l),
(383,93,o),
(351,77,o),
(314,77,cs),
(235,77,o),
(167,148,o),
(167,282,cs),
(167,381,o),
(197,441,o),
(241,441,cs),
(288,441,o),
(305,361,o),
(305,304,c),
(124,304,l),
(124,259,l),
(453,259,l),
(453,362,o),
(409,494,o),
(271,494,cs),
(135,494,o),
(25,364,o),
(25,222,cs),
(25,83,o),
(129,-13,o),
(244,-13,cs)
);
}
);
width = 468;
},
{
anchors = (
{
name = bottom;
pos = (227,0);
},
{
name = top;
pos = (231,470);
}
);
associatedMasterId = m01;
layerId = "1230E7B2-4C9B-4295-A195-DF3A9F087C47";
shapes = (
{
closed = 1;
nodes = (
(304,-13,o),
(360,29,o),
(412,100,c),
(391,123,l),
(344,81,o),
(317,61,o),
(273,61,cs),
(175,61,o),
(111,158,o),
(111,261,cs),
(111,363,o),
(158,433,o),
(211,433,cs),
(284,433,o),
(317,362,o),
(317,304,c),
(76,304,l),
(76,259,l),
(402,259,l),
(402,362,o),
(365,481,o),
(242,481,cs),
(115,481,o),
(32,368,o),
(32,227,cs),
(32,85,o),
(136,-13,o),
(231,-13,cs)
);
}
);
width = 433;
},
{
anchors = (
{
name = bottom;
pos = (151,0);
},
{
name = top;
pos = (264,480);
}
);
guides = (
{
pos = (454,499);
},
{
pos = (454,499);
}
);
layerId = "77A919B5-A12B-4FB4-B82B-A665849CE577";
shapes = (
{
closed = 1;
nodes = (
(179,-14,o),
(253,50,o),
(313,139,c),
(300,150,l),
(244,98,o),
(180,56,o),
(145,46,c),
(118,69,o),
(106,108,o),
(106,152,cs),
(106,251,o),
(166,387,o),
(262,460,c),
(278,444,o),
(292,417,o),
(292,384,cs),
(292,314,o),
(197,252,o),
(104,235,c),
(102,207,l),
(243,226,o),
(380,304,o),
(380,410,cs),
(380,451,o),
(327,499,o),
(293,499,cs),
(171,499,o),
(13,246,o),
(13,114,cs),
(13,49,o),
(61,-14,o),
(109,-14,cs)
);
}
);
width = 371;
},
{
anchors = (
{
name = bottom;
pos = (112,0);
},
{
name = top;
pos = (222,470);
}
);
associatedMasterId = "77A919B5-A12B-4FB4-B82B-A665849CE577";
layerId = "45DEFE4C-76B3-48DC-AD1D-7A3B8ABCF331";
name = "11 janv. 22 à 20:14";
shapes = (
{
closed = 1;
nodes = (
(171,-13,o),
(242,69,o),
(286,158,c),
(262,171,l),
(232,123,o),
(183,65,o),
(143,65,cs),
(99,65,o),
(81,114,o),
(81,167,cs),
(81,272,o),
(156,428,o),
(221,428,cs),
(243,428,o),
(258,416,o),
(258,390,cs),
(258,334,o),
(173,256,o),
(70,226,c),
(69,190,l),
(194,206,o),
(342,330,o),
(342,419,cs),
(342,456,o),
(319,484,o),
(267,484,cs),
(119,484,o),
(-7,262,o),
(-7,109,cs),
(-7,42,o),
(36,-13,o),
(100,-13,cs)
);
}
);
width = 322;
},
{
anchors = (
{
name = bottom;
pos = (141,0);
},
{
name = top;
pos = (254,480);
}
);
associatedMasterId = "77A919B5-A12B-4FB4-B82B-A665849CE577";
layerId = "DFF5DF56-CC8C-4CD1-8DBD-943EC97515A8";
name = "29 janv. 22 à 17:01";
shapes = (
{
closed = 1;
nodes = (
(244,126,l),
(215,92,o),
(184,58,o),
(156,58,cs),
(115,58,o),
(108,108,o),
(108,159,cs),
(108,251,o),
(187,433,o),
(252,433,cs),
(263,433,o),
(263,408,o),
(263,400,cs),
(263,301,o),
(210,278,o),
(95,243,c),
(93,203,l),
(222,221,o),
(338,283,o),
(338,426,cs),
(338,460,o),
(326,494,o),
(297,494,cs),
(139,494,o),
(16,240,o),
(16,118,cs),
(16,52,o),
(52,-14,o),
(111,-14,cs),
(173,-14,o),
(228,38,o),
(272,102,c)
);
}
);
width = 334;
},
{
anchors = (
{
name = bottom;
pos = (174,0);
},
{
name = top;
pos = (287,480);
}
);
guides = (
{
pos = (462,509);
}
);
layerId = m004;
shapes = (
{
closed = 1;
nodes = (
(202,-14,o),
(286,52,o),
(339,141,c),
(324,154,l),
(267,101,o),
(204,58,o),
(168,48,c),
(153,72,o),
(140,110,o),
(140,155,cs),
(140,256,o),
(185,395,o),
(283,469,c),
(291,452,o),
(298,433,o),
(298,410,cs),
(298,361,o),
(220,256,o),
(125,231,c),
(123,208,l),
(267,241,o),
(420,310,o),
(420,408,cs),
(420,460,o),
(353,509,o),
(318,509,cs),
(194,509,o),
(3,271,o),
(3,117,cs),
(3,58,o),
(56,-14,o),
(130,-14,cs)
);
}
);
width = 400;
},
{
anchors = (
{
name = bottom;
pos = (112,0);
},
{
name = top;
pos = (222,470);
}
);
associatedMasterId = m004;
layerId = "2EDC71D8-EFD0-44DE-A4BC-A485E25E4751";
name = "11 janv. 22 à 20:14";
shapes = (
{
closed = 1;
nodes = (
(171,-13,o),
(242,69,o),
(286,158,c),
(262,171,l),
(232,123,o),
(183,65,o),
(143,65,cs),
(99,65,o),
(81,114,o),
(81,167,cs),
(81,272,o),
(156,428,o),
(221,428,cs),
(243,428,o),
(258,416,o),
(258,390,cs),
(258,334,o),
(173,256,o),
(70,226,c),
(69,190,l),
(194,206,o),
(342,330,o),
(342,419,cs),
(342,456,o),
(319,484,o),
(267,484,cs),
(119,484,o),
(-7,262,o),
(-7,109,cs),
(-7,42,o),
(36,-13,o),
(100,-13,cs)
);
}
);
width = 322;
},
{
anchors = (
{
name = bottom;
pos = (141,0);
},
{
name = top;
pos = (254,480);
}
);
associatedMasterId = m004;
layerId = "C744E060-E628-48E4-A980-C20EDFA87816";
name = "29 janv. 22 à 17:01";
shapes = (
{
closed = 1;
nodes = (
(244,126,l),
(215,92,o),
(184,58,o),
(156,58,cs),
(115,58,o),
(108,108,o),
(108,159,cs),
(108,251,o),
(187,433,o),
(252,433,cs),
(263,433,o),
(263,408,o),
(263,400,cs),
(263,301,o),
(210,278,o),
(95,243,c),
(93,203,l),
(222,221,o),
(338,283,o),
(338,426,cs),
(338,460,o),
(326,494,o),
(297,494,cs),
(139,494,o),
(16,240,o),
(16,118,cs),
(16,52,o),
(52,-14,o),
(111,-14,cs),
(173,-14,o),
(228,38,o),
(272,102,c)
);
}
);
width = 334;
}
);
metricLeft = o;
metricRight = "=o-10";
note = e;
unicode = 101;
},
{
color = 5;
glyphname = f;
kernLeft = f;
kernRight = f;
lastChange = "2022-07-11 11:32:32 +0000";
layers = (
{
anchors = (
{
name = bottom;
pos = (161,0);
}
);
layerId = m01;
shapes = (
{
pos = (16,250);
ref = empattement_bas_long;
},
{
closed = 1;
nodes = (
(180,413,l),
(305,413,l),
(329,452,l),
(322,470,l),
(164,470,l),
(110,476,l),
(30,446,l),
(30,423,l),
(81,421,o),
(98,404,o),
(98,366,c)
);
},
{
pos = (10,0);
ref = "f-haut";
},
{
closed = 1;
nodes = (
(98,468,l),
(98,24,l),
(186,24,l),
(186,468,l)
);
}
);
width = 341;
},
{
anchors = (
{
name = bottom;
pos = (175,0);
}
);
layerId = "B693E737-F65C-4B63-97BA-EB353033066E";
shapes = (
{
pos = (30,250);
ref = empattement_bas_long;
},
{
closed = 1;
nodes = (
(214,420,l),
(329,420,l),
(353,461,l),
(346,480,l),
(198,480,l),
(95,479,l),
(25,450,l),
(25,430,l),
(56,426,o),
(84,411,o),
(84,373,c)
);
},
{
pos = (20,0);
ref = "f-haut";
},
{
closed = 1;
nodes = (
(84,468,l),
(84,24,l),
(232,24,l),
(232,468,l)
);
}
);
width = 356;
},
{
anchors = (
{
name = bottom;
pos = (155,0);
}
);
associatedMasterId = m01;
layerId = "1230E7B2-4C9B-4295-A195-DF3A9F087C47";
shapes = (
{
closed = 1;
nodes = (
(169,24,l),
(169,577,ls),
(169,652,o),
(198,686,o),
(246,686,cs),
(302,686,o),
(338,653,o),
(368,624,c),
(431,695,l),
(390,727,o),
(352,744,o),
(296,744,cs),
(198,744,o),
(101,659,o),
(101,546,cs),
(101,24,l)
);
},
{
alignment = -1;
pos = (10,250);
ref = empattement_bas_long;
},
{
closed = 1;
nodes = (
(167,410,l),
(295,410,l),
(319,449,l),
(312,467,l),
(151,467,l),
(113,475,l),
(30,445,l),
(30,421,l),
(88,419,o),
(102,402,o),
(102,364,c)
);
}
);
width = 316.33333;
},
{
anchors = (
{
name = bottom;
pos = (180,0);
}
);
associatedMasterId = "B693E737-F65C-4B63-97BA-EB353033066E";
layerId = "86030619-0656-4B6A-9D96-B125ED6E6536";
name = "1 déc. 21 à 14:23";
shapes = (
{
closed = 1;
nodes = (
(237,24,l),
(237,576,ls),
(237,637,o),
(253,669,o),
(289,669,cs),
(318,669,o),
(362,633,o),
(396,585,c),
(470,698,l),
(429,731,o),
(380,744,o),
(324,744,cs),
(199,744,o),
(89,629,o),
(89,496,cs),
(89,24,l)
);
},
{
pos = (35,250);
ref = empattement_bas_long;
},
{
closed = 1;
nodes = (
(219,423,l),
(334,423,l),
(358,461,l),
(351,480,l),
(203,480,l),
(100,479,l),
(30,450,l),
(30,430,l),
(61,426,o),
(89,411,o),
(89,373,c)
);
},
{
pos = (56,250);
ref = c;
}
);
width = 355;
},
{
anchors = (
{
name = bottom;
pos = (52,5);
}
);
guides = (
{
pos = (455,499);
}
);
layerId = "77A919B5-A12B-4FB4-B82B-A665849CE577";
shapes = (
{
closed = 1;
nodes = (
(-69,-262,o),
(45,-107,o),
(71,-22,cs),
(122,145,o),
(187,402,o),
(224,549,cs),
(236,598,o),
(252,643,o),
(261,660,c),
(304,675,o),
(340,663,o),
(398,638,c),
(435,722,l),
(403,737,o),
(377,744,o),
(351,744,cs),
(294,744,o),
(167,649,o),
(143,545,c),
(114,392,o),
(48,155,o),
(2,-7,cs),
(-22,-90,o),
(-54,-154,o),
(-67,-177,c),
(-90,-185,o),
(-124,-179,o),
(-183,-157,c),
(-220,-243,l),
(-194,-253,o),
(-162,-262,o),
(-137,-262,cs)
);
},
{
pos = (-40,28);
ref = barreft;
}
);
width = 232;
},
{
anchors = (
{
name = bottom;
pos = (55,5);
}
);
guides = (
{
pos = (443,499);
}
);
layerId = m004;
shapes = (
{
closed = 1;
nodes = (
(-66,-262,o),
(97,-107,o),
(123,-22,cs),
(174,145,o),
(241,402,o),
(278,549,cs),
(290,598,o),
(306,651,o),
(316,674,c),
(357,668,o),
(408,648,o),
(462,618,c),
(512,726,l),
(480,741,o),
(431,744,o),
(405,744,cs),
(348,744,o),
(172,649,o),
(148,545,c),
(118,392,o),
(51,155,o),
(5,-7,cs),
(-19,-90,o),
(-40,-154,o),
(-59,-182,c),
(-87,-180,o),
(-129,-154,o),
(-180,-117,c),
(-245,-239,l),
(-194,-257,o),
(-159,-262,o),
(-134,-262,cs)
);
},
{
pos = (-40,28);
ref = barreft;
}
);
width = 299;
}
);
note = f;
unicode = 102;
},
{
color = 5;
glyphname = g;
kernLeft = g;
kernRight = g;
lastChange = "2022-07-11 12:10:55 +0000";
layers = (
{
layerId = m01;
shapes = (
{
closed = 1;
nodes = (
(336,-264,o),
(464,-170,o),
(464,-61,cs),
(464,8,o),
(415,45,o),
(333,55,cs),
(189,73,ls),
(158,77,o),
(146,93,o),
(146,112,cs),
(146,132,o),
(162,148,o),
(188,169,c),
(151,188,l),
(103,145,o),
(64,104,o),
(64,71,cs),
(64,38,o),
(84,0,o),
(150,-7,cs),
(290,-21,ls),
(357,-28,o),
(387,-58,o),
(387,-102,cs),
(387,-155,o),
(322,-200,o),
(252,-200,cs),
(176,-200,o),
(113,-158,o),
(113,-111,cs),
(113,-74,o),
(166,-25,o),
(206,6,c),
(165,15,l),
(104,-18,o),
(25,-86,o),
(25,-136,cs),
(25,-216,o),
(111,-264,o),
(212,-264,cs)
);
},
{
closed = 1;
nodes = (
(340,138,o),
(428,222,o),
(428,314,cs),
(428,415,o),
(350,484,o),
(247,484,cs),
(140,484,o),
(61,399,o),
(61,310,cs),
(61,210,o),
(130,138,o),
(233,138,cs)
);
},
{
closed = 1;
nodes = (
(204,188,o),
(153,259,o),
(153,330,cs),
(153,377,o),
(170,438,o),
(224,438,cs),
(288,438,o),
(338,366,o),
(338,299,cs),
(338,236,o),
(315,188,o),
(263,188,cs)
);
},
{
closed = 1;
nodes = (
(463,413,l),
(487,452,l),
(480,470,l),
(320,470,l),
(346,413,l)
);
}
);
width = 502;
},
{
associatedMasterId = m01;
layerId = "CAC98BF1-BDCB-41F4-AB2F-01D9DD9A70DA";
name = "7 févr. 21 à 18:34";
shapes = (
{
closed = 1;
nodes = (
(56,194,o),
(136,129,o),
(234,129,cs),
(335,129,o),
(414,206,o),
(414,295,cs),
(414,391,o),
(335,456,o),
(238,456,cs),
(136,456,o),
(56,378,o),
(56,290,cs)
);
},
{
closed = 1;
nodes = (
(140,364,o),
(164,413,o),
(210,413,cs),
(273,413,o),
(331,350,o),
(331,269,cs),
(331,216,o),
(303,173,o),
(262,173,cs),
(200,173,o),
(140,236,o),
(140,315,cs)
);
},
{
closed = 1;
nodes = (
(133,161,l),
(82,127,o),
(55,104,o),
(55,65,cs),
(55,25,o),
(86,-1,o),
(141,-13,cs),
(303,-49,ls),
(362,-62,o),
(390,-69,o),
(390,-107,cs),
(390,-157,o),
(328,-198,o),
(261,-198,cs),
(177,-198,o),
(108,-160,o),
(108,-102,cs),
(108,-66,o),
(143,-34,o),
(167,-15,c),
(136,-4,l),
(85,-35,o),
(25,-73,o),
(25,-132,cs),
(25,-198,o),
(101,-256,o),
(206,-256,cs),
(324,-256,o),
(461,-184,o),
(461,-79,cs),
(461,-19,o),
(414,9,o),
(328,30,cs),
(174,67,ls),
(148,73,o),
(131,85,o),
(131,101,cs),
(131,117,o),
(142,131,o),
(170,147,c)
);
},
{
closed = 1;
nodes = (
(340,424,l),
(362,399,l),
(480,395,l),
(482,425,o),
(479,450,o),
(468,473,c)
);
}
);
width = 501;
},
{
associatedMasterId = m01;
layerId = "FAA718B6-B972-41F8-9505-EFC309E43A96";
name = "27 févr. 21 à 10:00";
shapes = (
{
closed = 1;
nodes = (
(337,-264,o),
(466,-173,o),
(466,-68,cs),
(466,-13,o),
(417,21,o),
(353,39,cs),
(197,83,ls),
(167,92,o),
(154,100,o),
(154,114,cs),
(154,129,o),
(170,148,o),
(196,169,c),
(159,188,l),
(116,152,o),
(73,104,o),
(73,71,cs),
(73,41,o),
(97,20,o),
(133,10,cs),
(318,-43,ls),
(358,-55,o),
(384,-75,o),
(384,-110,cs),
(384,-159,o),
(328,-200,o),
(259,-200,cs),
(184,-200,o),
(119,-166,o),
(119,-92,cs),
(119,-57,o),
(139,-23,o),
(166,6,c),
(127,15,l),
(72,-27,o),
(30,-72,o),
(30,-124,cs),
(30,-208,o),
(127,-264,o),
(219,-264,cs)
);
},
{
closed = 1;
nodes = (
(341,138,o),
(434,222,o),
(434,314,cs),
(434,415,o),
(351,484,o),
(248,484,cs),
(141,484,o),
(57,399,o),
(57,310,cs),
(57,210,o),
(131,138,o),
(234,138,cs)
);
},
{
closed = 1;
nodes = (
(213,193,o),
(145,262,o),
(145,339,cs),
(145,403,o),
(171,433,o),
(219,433,cs),
(285,433,o),
(348,370,o),
(348,284,cs),
(348,232,o),
(325,193,o),
(272,193,cs)
);
},
{
closed = 1;
nodes = (
(371,450,o),
(397,480,o),
(422,480,cs),
(443,480,o),
(463,468,o),
(476,451,c),
(496,461,l),
(489,484,ls),
(477,525,o),
(463,549,o),
(433,549,cs),
(381,549,o),
(344,484,o),
(324,442,c),
(355,422,l)
);
}
);
width = 501;
},
{
layerId = "B693E737-F65C-4B63-97BA-EB353033066E";
shapes = (
{
closed = 1;
nodes = (
(355,-264,o),
(502,-162,o),
(502,-54,cs),
(502,9,o),
(451,62,o),
(365,69,cs),
(191,84,ls),
(164,86,o),
(150,91,o),
(150,109,cs),
(150,122,o),
(157,137,o),
(183,158,c),
(137,174,l),
(86,138,o),
(54,92,o),
(54,50,cs),
(54,15,o),
(77,-45,o),
(143,-50,cs),
(330,-65,ls),
(379,-69,o),
(412,-85,o),
(412,-117,cs),
(412,-154,o),
(369,-177,o),
(304,-177,cs),
(229,-177,o),
(119,-146,o),
(119,-84,cs),
(119,-63,o),
(132,-50,o),
(153,-36,c),
(140,-10,l),
(76,-42,o),
(15,-76,o),
(15,-137,cs),
(15,-207,o),
(95,-264,o),
(206,-264,cs)
);
},
{
closed = 1;
nodes = (
(361,138,o),
(463,225,o),
(463,324,cs),
(463,417,o),
(372,494,o),
(260,494,cs),
(141,494,o),
(48,407,o),
(48,309,cs),
(48,217,o),
(129,138,o),
(242,138,cs)
);
},
{
closed = 1;
nodes = (
(232,188,o),
(183,264,o),
(183,349,cs),
(183,399,o),
(200,446,o),
(237,446,cs),
(285,446,o),
(330,370,o),
(330,289,cs),
(330,242,o),
(315,188,o),
(277,188,cs)
);
},
{
closed = 1;
nodes = (
(489,423,l),
(513,461,l),
(506,480,l),
(323,480,l),
(339,423,l)
);
}
);
width = 523;
},
{
associatedMasterId = m01;
layerId = "1230E7B2-4C9B-4295-A195-DF3A9F087C47";
shapes = (
{
closed = 1;
nodes = (
(333,-264,o),
(458,-173,o),
(458,-62,cs),
(458,7,o),
(410,39,o),
(329,50,cs),
(195,69,ls),
(163,74,o),
(152,94,o),
(152,113,cs),
(152,135,o),
(171,152,o),
(196,173,c),
(165,193,l),
(118,147,o),
(74,108,o),
(74,78,cs),
(74,45,o),
(94,15,o),
(159,7,cs),
(284,-6,ls),
(356,-14,o),
(386,-49,o),
(386,-97,cs),
(386,-157,o),
(313,-210,o),
(237,-210,cs),
(162,-210,o),
(118,-165,o),
(118,-120,cs),
(118,-78,o),
(183,-17,o),
(229,20,c),
(180,23,l),
(120,-10,o),
(35,-89,o),
(35,-137,cs),
(35,-219,o),
(120,-264,o),
(220,-264,cs)
);
},
{
closed = 1;
nodes = (
(340,138,o),
(423,220,o),
(423,312,cs),
(423,413,o),
(350,481,o),
(250,481,cs),
(147,481,o),
(72,397,o),
(72,308,cs),
(72,208,o),
(137,138,o),
(237,138,cs)
);
},
{
closed = 1;
nodes = (
(202,186,o),
(149,255,o),
(149,326,cs),
(149,370,o),
(166,436,o),
(227,436,cs),
(296,436,o),
(348,365,o),
(348,301,cs),
(348,233,o),
(323,186,o),
(266,186,cs)
);
},
{
closed = 1;
nodes = (
(461,410,l),
(485,449,l),
(478,467,l),
(326,467,l),
(355,410,l)
);
}
);
width = 493.66667;
},
{
guides = (
{
pos = (446,499);
}
);
layerId = "77A919B5-A12B-4FB4-B82B-A665849CE577";
shapes = (
{
closed = 1;
nodes = (
(245,125,o),
(355,298,o),
(355,392,cs),
(355,456,o),
(306,499,o),
(259,499,cs),
(163,499,o),
(43,323,o),
(43,230,cs),
(43,173,o),
(87,125,o),
(142,125,cs)
);
},
{
closed = 1;
nodes = (
(153,181,o),
(131,215,o),
(131,264,cs),
(131,332,o),
(172,423,o),
(213,448,c),
(249,432,o),
(272,396,o),
(272,352,cs),
(272,292,o),
(223,190,o),
(177,166,c)
);
},
{
pos = (97,28);
ref = barreft;
},
{
closed = 1;
nodes = (
(133,141,l),
(100,116,o),
(65,87,o),
(45,62,c),
(45,35,o),
(88,-3,o),
(115,-17,cs),
(194,-59,ls),
(222,-74,o),
(238,-85,o),
(253,-101,c),
(228,-145,o),
(147,-195,o),
(84,-195,cs),
(34,-195,o),
(-28,-153,o),
(-28,-101,c),
(-5,-78,o),
(25,-59,o),
(108,-9,c),
(91,19,l),
(-45,-56,o),
(-75,-86,o),
(-107,-119,c),
(-107,-210,o),
(-43,-264,o),
(30,-264,cs),
(122,-264,o),
(303,-159,o),
(303,-59,cs),
(303,-32,o),
(290,-9,o),
(253,12,cs),
(166,61,ls),
(146,72,o),
(133,86,o),
(129,92,c),
(137,103,o),
(153,120,o),
(168,135,c)
);
}
);
width = 382;
},
{
associatedMasterId = "77A919B5-A12B-4FB4-B82B-A665849CE577";
layerId = "607214CB-B564-4040-A1B6-58B0294D67FB";
name = "7 févr. 21 à 18:34";
shapes = (
{
closed = 1;
nodes = (
(56,194,o),
(136,129,o),
(234,129,cs),
(335,129,o),
(414,206,o),
(414,295,cs),
(414,391,o),
(335,456,o),
(238,456,cs),
(136,456,o),
(56,378,o),
(56,290,cs)
);
},
{
closed = 1;
nodes = (
(140,364,o),
(164,413,o),
(210,413,cs),
(273,413,o),
(331,350,o),
(331,269,cs),
(331,216,o),
(303,173,o),
(262,173,cs),
(200,173,o),
(140,236,o),
(140,315,cs)
);
},
{
closed = 1;
nodes = (
(133,161,l),
(82,127,o),
(55,104,o),
(55,65,cs),
(55,25,o),
(86,-1,o),
(141,-13,cs),
(303,-49,ls),
(362,-62,o),
(390,-69,o),
(390,-107,cs),
(390,-157,o),
(328,-198,o),
(261,-198,cs),
(177,-198,o),
(108,-160,o),
(108,-102,cs),
(108,-66,o),
(143,-34,o),
(167,-15,c),
(136,-4,l),
(85,-35,o),
(25,-73,o),
(25,-132,cs),
(25,-198,o),
(101,-256,o),
(206,-256,cs),
(324,-256,o),
(461,-184,o),
(461,-79,cs),
(461,-19,o),
(414,9,o),
(328,30,cs),
(174,67,ls),
(148,73,o),
(131,85,o),
(131,101,cs),
(131,117,o),
(142,131,o),
(170,147,c)
);
},
{
closed = 1;
nodes = (
(340,424,l),
(362,399,l),
(480,395,l),
(482,425,o),
(479,450,o),
(468,473,c)
);
}
);
width = 501;
},
{
associatedMasterId = "77A919B5-A12B-4FB4-B82B-A665849CE577";
layerId = "1D79854D-A53B-49B8-9760-674277D7E81A";
name = "27 févr. 21 à 10:00";
shapes = (
{
closed = 1;
nodes = (
(337,-264,o),
(466,-173,o),
(466,-68,cs),
(466,-13,o),
(417,21,o),
(353,39,cs),
(197,83,ls),
(167,92,o),
(154,100,o),
(154,114,cs),
(154,129,o),
(170,148,o),
(196,169,c),
(159,188,l),
(116,152,o),
(73,104,o),
(73,71,cs),
(73,41,o),
(97,20,o),
(133,10,cs),
(318,-43,ls),
(358,-55,o),
(384,-75,o),
(384,-110,cs),
(384,-159,o),
(328,-200,o),
(259,-200,cs),
(184,-200,o),
(119,-166,o),
(119,-92,cs),
(119,-57,o),
(139,-23,o),
(166,6,c),
(127,15,l),
(72,-27,o),
(30,-72,o),
(30,-124,cs),
(30,-208,o),
(127,-264,o),
(219,-264,cs)
);
},
{
closed = 1;
nodes = (
(341,138,o),
(434,222,o),
(434,314,cs),
(434,415,o),
(351,484,o),
(248,484,cs),
(141,484,o),
(57,399,o),
(57,310,cs),
(57,210,o),
(131,138,o),
(234,138,cs)
);
},
{
closed = 1;
nodes = (
(213,193,o),
(145,262,o),
(145,339,cs),
(145,403,o),
(171,433,o),
(219,433,cs),
(285,433,o),
(348,370,o),
(348,284,cs),
(348,232,o),
(325,193,o),
(272,193,cs)
);
},
{
closed = 1;
nodes = (
(371,450,o),
(397,480,o),
(422,480,cs),
(443,480,o),
(463,468,o),
(476,451,c),
(496,461,l),
(489,484,ls),
(477,525,o),
(463,549,o),
(433,549,cs),
(381,549,o),
(344,484,o),
(324,442,c),
(355,422,l)
);
}
);
width = 501;
},
{
anchors = (
{
name = bottom;
pos = (148,127);
},
{
name = top;
pos = (207,476);
}
);
associatedMasterId = "77A919B5-A12B-4FB4-B82B-A665849CE577";
layerId = "02BF3090-452F-46DC-925F-4964F5929D44";
name = "11 janv. 22 à 20:22";
shapes = (
{
closed = 1;
nodes = (
(169,-264,o),
(317,-186,o),
(317,-80,cs),
(317,-25,o),
(279,-5,o),
(233,19,cs),
(159,58,ls),
(140,68,o),
(132,75,o),
(132,84,cs),
(132,100,o),
(156,128,o),
(172,146,c),
(146,165,l),
(110,132,o),
(50,77,o),
(50,44,cs),
(50,21,o),
(81,0,o),
(117,-18,cs),
(177,-48,ls),
(217,-68,o),
(241,-87,o),
(241,-120,cs),
(241,-162,o),
(178,-198,o),
(117,-198,cs),
(46,-198,o),
(-16,-166,o),
(-16,-111,cs),
(-16,-64,o),
(45,-25,o),
(88,2,c),
(66,33,l),
(-10,-4,o),
(-102,-74,o),
(-102,-146,cs),
(-102,-205,o),
(-39,-264,o),
(60,-264,cs)
);
},
{
closed = 1;
nodes = (
(214,120,o),
(329,253,o),
(329,366,cs),
(329,428,o),
(295,483,o),
(233,483,cs),
(154,483,o),
(41,351,o),
(41,239,cs),
(41,175,o),
(74,120,o),
(134,120,cs)
);
},
{
closed = 1;
nodes = (
(138,184,o),
(113,211,o),
(113,272,cs),
(113,350,o),
(157,418,o),
(199,418,cs),
(231,418,o),
(255,394,o),
(255,330,cs),
(255,250,o),
(205,184,o),
(170,184,cs)
);
},
{
pos = (78,0);
ref = barreft;
scale = (0.9,1);
}
);
width = 360;
},
{
anchors = (
{
name = bottom;
pos = (157,135);
},
{
name = top;
pos = (217,491);
}
);
associatedMasterId = "77A919B5-A12B-4FB4-B82B-A665849CE577";
layerId = "F8B46C91-3989-47D5-A2FB-A77BB635783E";
name = "29 janv. 22 à 17:09";
shapes = (
{
closed = 1;
nodes = (
(175,-264,o),
(319,-182,o),
(319,-76,cs),
(319,-20,o),
(282,0,o),
(237,25,cs),
(166,64,ls),
(148,75,o),
(139,82,o),
(139,91,cs),
(139,107,o),
(161,136,o),
(176,154,c),
(148,174,l),
(113,140,o),
(60,84,o),
(60,50,cs),
(60,27,o),
(90,5,o),
(125,-13,cs),
(183,-44,ls),
(222,-64,o),
(241,-83,o),
(241,-117,cs),
(241,-158,o),
(184,-195,o),
(125,-195,cs),
(66,-195,o),
(9,-165,o),
(9,-116,cs),
(9,-73,o),
(72,-31,o),
(122,-12,c),
(95,23,l),
(16,-13,o),
(-87,-78,o),
(-87,-150,cs),
(-87,-204,o),
(-7,-264,o),
(70,-264,cs)
);
},
{
closed = 1;
nodes = (
(220,129,o),
(333,274,o),
(333,381,cs),
(333,446,o),
(300,499,o),
(238,499,cs),
(160,499,o),
(49,355,o),
(49,249,cs),
(49,182,o),
(81,129,o),
(140,129,cs)
);
},
{
closed = 1;
nodes = (
(147,203,o),
(122,227,o),
(122,282,cs),
(122,345,o),
(164,430,o),
(204,430,cs),
(234,430,o),
(258,409,o),
(258,350,cs),
(258,286,o),
(210,203,o),
(176,203,cs)
);
},
{
pos = (85,10);
ref = barreft;
scale = (0.918,1.02);
}
);
width = 368;
},
{
anchors = (
{
name = bottom;
pos = (155,135);
},
{
name = top;
pos = (215,491);
}
);
associatedMasterId = "77A919B5-A12B-4FB4-B82B-A665849CE577";
guides = (
{
pos = (451,499);
}
);
layerId = "E4E6DE7E-29DD-4677-ACF0-CA7D4C57874A";
name = "21 févr. 22 à 11:41";
shapes = (
{
closed = 1;
nodes = (
(149,-264,o),
(315,-161,o),
(315,-67,cs),
(315,-35,o),
(304,-5,o),
(263,17,cs),
(174,66,ls),
(154,77,o),
(139,86,o),
(135,92,c),
(144,108,o),
(171,135,o),
(188,152,c),
(170,166,l),
(130,136,o),
(78,95,o),
(51,62,c),
(53,37,o),
(91,-1,o),
(124,-18,cs),
(204,-60,ls),
(239,-79,o),
(253,-89,o),
(253,-106,cs),
(253,-146,o),
(176,-187,o),
(106,-187,cs),
(54,-187,o),
(-14,-164,o),
(-14,-119,cs),
(-14,-89,o),
(15,-67,o),
(58,-40,cs),
(117,-3,l),
(99,19,l),
(27,-21,ls),
(-36,-56,o),
(-96,-100,o),
(-96,-157,cs),
(-96,-217,o),
(-31,-264,o),
(42,-264,cs)
);
},
{
closed = 1;
nodes = (
(248,125,o),
(354,292,o),
(354,387,cs),
(354,454,o),
(299,499,o),
(251,499,cs),
(156,499,o),
(43,327,o),
(43,234,cs),
(43,175,o),
(91,125,o),
(147,125,cs)
);
},
{
closed = 1;
nodes = (
(157,175,o),
(130,207,o),
(130,269,cs),
(130,340,o),
(165,448,o),
(215,448,cs),
(243,448,o),
(266,413,o),
(266,358,cs),
(266,285,o),
(226,175,o),
(181,175,cs)
);
},
{
pos = (82,28);
ref = barreft;
}
);
width = 381;
},
{
anchors = (
{
name = bottom;
pos = (150,135);
},
{
name = top;
pos = (210,491);
}
);
associatedMasterId = "77A919B5-A12B-4FB4-B82B-A665849CE577";
guides = (
{
pos = (446,499);
}
);
layerId = "1CEC6854-BFF4-4E2F-B9BC-74285B1B56BD";
name = "28 févr. 22 à 12:58";
shapes = (
{
closed = 1;
nodes = (
(122,-264,o),
(303,-159,o),
(303,-59,cs),
(303,-32,o),
(290,-10,o),
(253,11,cs),
(166,60,ls),
(146,71,o),
(133,86,o),
(129,92,c),
(140,108,o),
(167,134,o),
(185,151,c),
(166,166,l),
(125,136,o),
(72,95,o),
(45,62,c),
(45,35,o),
(88,-3,o),
(115,-17,cs),
(194,-59,ls),
(224,-75,o),
(240,-87,o),
(240,-104,cs),
(240,-148,o),
(147,-195,o),
(84,-195,cs),
(34,-195,o),
(-28,-153,o),
(-28,-101,c),
(-5,-78,o),
(25,-59,o),
(108,-9,c),
(91,19,l),
(-45,-56,o),
(-75,-86,o),
(-107,-119,c),
(-107,-210,o),
(-43,-264,o),
(30,-264,cs)
);
},
{
closed = 1;
nodes = (
(245,125,o),
(358,298,o),
(358,392,cs),
(358,456,o),
(306,499,o),
(259,499,cs),
(163,499,o),
(42,323,o),
(42,230,cs),
(42,173,o),
(87,125,o),
(142,125,cs)
);
},
{
closed = 1;
nodes = (
(155,171,o),
(130,205,o),
(130,262,cs),
(130,333,o),
(170,448,o),
(222,448,cs),
(249,448,o),
(269,416,o),
(269,365,cs),
(269,292,o),
(224,171,o),
(178,171,cs)
);
},
{
pos = (95,28);
ref = barreft;
}
);
width = 382;
},
{
guides = (
{
pos = (462,509);
}
);
layerId = m004;
shapes = (
{
closed = 1;
nodes = (
(281,131,o),
(435,286,o),
(435,402,cs),
(435,467,o),
(369,509,o),
(295,509,cs),
(198,509,o),
(30,352,o),
(30,237,cs),
(30,180,o),
(101,131,o),
(177,131,cs)
);
},
{
closed = 1;
nodes = (
(188,188,o),
(160,222,o),
(160,272,cs),
(160,341,o),
(207,432,o),
(249,458,c),
(285,441,o),
(309,406,o),
(309,361,cs),
(309,300,o),
(259,197,o),
(212,172,c)
);
},
{
pos = (121,38);
ref = barreft;
},
{
closed = 1;
nodes = (
(169,147,l),
(134,124,o),
(65,78,o),
(42,53,c),
(42,25,o),
(89,-22,o),
(118,-33,cs),
(233,-76,ls),
(264,-88,o),
(299,-102,o),
(315,-118,c),
(287,-155,o),
(204,-170,o),
(160,-170,cs),
(93,-170,o),
(17,-142,o),
(7,-93,c),
(30,-69,o),
(51,-54,o),
(131,-5,c),
(124,21,l),
(-22,-55,o),
(-85,-95,o),
(-121,-130,c),
(-119,-221,o),
(-10,-264,o),
(58,-264,cs),
(157,-264,o),
(394,-157,o),
(394,-56,cs),
(394,-29,o),
(380,4,o),
(339,21,cs),
(205,75,ls),
(183,84,o),
(169,91,o),
(165,97,c),
(174,109,o),
(191,126,o),
(207,141,c)
);
}
);
width = 453;
},
{
associatedMasterId = m004;
layerId = "1F01EB2C-FE98-4CC0-9FE3-39203EFF809C";
name = "7 févr. 21 à 18:34";
shapes = (
{
closed = 1;
nodes = (
(56,194,o),
(136,129,o),
(234,129,cs),
(335,129,o),
(414,206,o),
(414,295,cs),
(414,391,o),
(335,456,o),
(238,456,cs),
(136,456,o),
(56,378,o),
(56,290,cs)
);
},
{
closed = 1;
nodes = (
(140,364,o),
(164,413,o),
(210,413,cs),
(273,413,o),
(331,350,o),
(331,269,cs),
(331,216,o),
(303,173,o),
(262,173,cs),
(200,173,o),
(140,236,o),
(140,315,cs)
);
},
{
closed = 1;
nodes = (
(133,161,l),
(82,127,o),
(55,104,o),
(55,65,cs),
(55,25,o),
(86,-1,o),
(141,-13,cs),
(303,-49,ls),
(362,-62,o),
(390,-69,o),
(390,-107,cs),
(390,-157,o),
(328,-198,o),
(261,-198,cs),
(177,-198,o),
(108,-160,o),
(108,-102,cs),
(108,-66,o),
(143,-34,o),
(167,-15,c),
(136,-4,l),
(85,-35,o),
(25,-73,o),
(25,-132,cs),
(25,-198,o),
(101,-256,o),
(206,-256,cs),
(324,-256,o),
(461,-184,o),
(461,-79,cs),
(461,-19,o),
(414,9,o),
(328,30,cs),
(174,67,ls),
(148,73,o),
(131,85,o),
(131,101,cs),
(131,117,o),
(142,131,o),
(170,147,c)
);
},
{
closed = 1;
nodes = (
(340,424,l),
(362,399,l),
(480,395,l),
(482,425,o),
(479,450,o),
(468,473,c)
);
}
);
width = 501;
},
{
associatedMasterId = m004;
layerId = "87AC0A82-43E9-4A3F-B78C-D2F918077D0F";
name = "27 févr. 21 à 10:00";
shapes = (
{
closed = 1;
nodes = (
(337,-264,o),
(466,-173,o),
(466,-68,cs),
(466,-13,o),
(417,21,o),
(353,39,cs),
(197,83,ls),
(167,92,o),
(154,100,o),
(154,114,cs),
(154,129,o),
(170,148,o),
(196,169,c),
(159,188,l),
(116,152,o),
(73,104,o),
(73,71,cs),
(73,41,o),
(97,20,o),
(133,10,cs),
(318,-43,ls),
(358,-55,o),
(384,-75,o),
(384,-110,cs),
(384,-159,o),
(328,-200,o),
(259,-200,cs),
(184,-200,o),
(119,-166,o),
(119,-92,cs),
(119,-57,o),
(139,-23,o),
(166,6,c),
(127,15,l),
(72,-27,o),
(30,-72,o),
(30,-124,cs),
(30,-208,o),
(127,-264,o),
(219,-264,cs)
);
},
{
closed = 1;
nodes = (
(341,138,o),
(434,222,o),
(434,314,cs),
(434,415,o),
(351,484,o),
(248,484,cs),
(141,484,o),
(57,399,o),
(57,310,cs),
(57,210,o),
(131,138,o),
(234,138,cs)
);
},
{
closed = 1;
nodes = (
(213,193,o),
(145,262,o),
(145,339,cs),
(145,403,o),
(171,433,o),
(219,433,cs),
(285,433,o),
(348,370,o),
(348,284,cs),
(348,232,o),
(325,193,o),
(272,193,cs)
);
},
{
closed = 1;
nodes = (
(371,450,o),
(397,480,o),
(422,480,cs),
(443,480,o),
(463,468,o),
(476,451,c),
(496,461,l),
(489,484,ls),
(477,525,o),
(463,549,o),
(433,549,cs),
(381,549,o),
(344,484,o),
(324,442,c),
(355,422,l)
);
}
);
width = 501;
},
{
anchors = (
{
name = bottom;
pos = (148,127);
},
{
name = top;
pos = (207,476);
}
);
associatedMasterId = m004;
layerId = "366039A0-2073-41ED-B6E8-69AD0F4480E9";
name = "11 janv. 22 à 20:22";
shapes = (
{
closed = 1;
nodes = (
(169,-264,o),
(317,-186,o),
(317,-80,cs),
(317,-25,o),
(279,-5,o),
(233,19,cs),
(159,58,ls),
(140,68,o),
(132,75,o),
(132,84,cs),
(132,100,o),
(156,128,o),
(172,146,c),
(146,165,l),
(110,132,o),
(50,77,o),
(50,44,cs),
(50,21,o),
(81,0,o),
(117,-18,cs),
(177,-48,ls),
(217,-68,o),
(241,-87,o),
(241,-120,cs),
(241,-162,o),
(178,-198,o),
(117,-198,cs),
(46,-198,o),
(-16,-166,o),
(-16,-111,cs),
(-16,-64,o),
(45,-25,o),
(88,2,c),
(66,33,l),
(-10,-4,o),
(-102,-74,o),
(-102,-146,cs),
(-102,-205,o),
(-39,-264,o),
(60,-264,cs)
);
},
{
closed = 1;
nodes = (
(214,120,o),
(329,253,o),
(329,366,cs),
(329,428,o),
(295,483,o),
(233,483,cs),
(154,483,o),
(41,351,o),
(41,239,cs),
(41,175,o),
(74,120,o),
(134,120,cs)
);
},
{
closed = 1;
nodes = (
(138,184,o),
(113,211,o),
(113,272,cs),
(113,350,o),
(157,418,o),
(199,418,cs),
(231,418,o),
(255,394,o),
(255,330,cs),
(255,250,o),
(205,184,o),
(170,184,cs)
);
},
{
pos = (78,0);
ref = barreft;
scale = (0.9,1);
}
);
width = 360;
},
{
anchors = (
{
name = bottom;
pos = (157,135);
},
{
name = top;
pos = (217,491);
}
);
associatedMasterId = m004;
layerId = "0EAACE2C-1D29-4A1A-8CD5-B012877231C7";
name = "29 janv. 22 à 17:09";
shapes = (
{
closed = 1;
nodes = (
(175,-264,o),
(319,-182,o),
(319,-76,cs),
(319,-20,o),
(282,0,o),
(237,25,cs),
(166,64,ls),
(148,75,o),
(139,82,o),
(139,91,cs),
(139,107,o),
(161,136,o),
(176,154,c),
(148,174,l),
(113,140,o),
(60,84,o),
(60,50,cs),
(60,27,o),
(90,5,o),
(125,-13,cs),
(183,-44,ls),
(222,-64,o),
(241,-83,o),
(241,-117,cs),
(241,-158,o),
(184,-195,o),
(125,-195,cs),
(66,-195,o),
(9,-165,o),
(9,-116,cs),
(9,-73,o),
(72,-31,o),
(122,-12,c),
(95,23,l),
(16,-13,o),
(-87,-78,o),
(-87,-150,cs),
(-87,-204,o),
(-7,-264,o),
(70,-264,cs)
);
},
{
closed = 1;
nodes = (
(220,129,o),
(333,274,o),
(333,381,cs),
(333,446,o),
(300,499,o),
(238,499,cs),
(160,499,o),
(49,355,o),
(49,249,cs),
(49,182,o),
(81,129,o),
(140,129,cs)
);
},
{
closed = 1;
nodes = (
(147,203,o),
(122,227,o),
(122,282,cs),
(122,345,o),
(164,430,o),
(204,430,cs),
(234,430,o),
(258,409,o),
(258,350,cs),
(258,286,o),
(210,203,o),
(176,203,cs)
);
},
{
pos = (85,10);
ref = barreft;
scale = (0.918,1.02);
}
);
width = 368;
},
{
anchors = (
{
name = bottom;
pos = (155,135);
},
{
name = top;
pos = (215,491);
}
);
associatedMasterId = m004;
guides = (
{
pos = (451,499);
}
);
layerId = "506012EE-2593-4485-BC69-68D252E7EACD";
name = "21 févr. 22 à 11:41";
shapes = (
{
closed = 1;
nodes = (
(149,-264,o),
(315,-161,o),
(315,-67,cs),
(315,-35,o),
(304,-5,o),
(263,17,cs),
(174,66,ls),
(154,77,o),
(139,86,o),
(135,92,c),
(144,108,o),
(171,135,o),
(188,152,c),
(170,166,l),
(130,136,o),
(78,95,o),
(51,62,c),
(53,37,o),
(91,-1,o),
(124,-18,cs),
(204,-60,ls),
(239,-79,o),
(253,-89,o),
(253,-106,cs),
(253,-146,o),
(176,-187,o),
(106,-187,cs),
(54,-187,o),
(-14,-164,o),
(-14,-119,cs),
(-14,-89,o),
(15,-67,o),
(58,-40,cs),
(117,-3,l),
(99,19,l),
(27,-21,ls),
(-36,-56,o),
(-96,-100,o),
(-96,-157,cs),
(-96,-217,o),
(-31,-264,o),
(42,-264,cs)
);
},
{
closed = 1;
nodes = (
(248,125,o),
(354,292,o),
(354,387,cs),
(354,454,o),
(299,499,o),
(251,499,cs),
(156,499,o),
(43,327,o),
(43,234,cs),
(43,175,o),
(91,125,o),
(147,125,cs)
);
},
{
closed = 1;
nodes = (
(157,175,o),
(130,207,o),
(130,269,cs),
(130,340,o),
(165,448,o),
(215,448,cs),
(243,448,o),
(266,413,o),
(266,358,cs),
(266,285,o),
(226,175,o),
(181,175,cs)
);
},
{
pos = (82,28);
ref = barreft;
}
);
width = 381;
},
{
anchors = (
{
name = bottom;
pos = (150,135);
},
{
name = top;
pos = (210,491);
}
);
associatedMasterId = m004;
guides = (
{
pos = (446,499);
}
);
layerId = "E14978EA-25AD-405B-8A22-478A5D1B0969";
name = "28 févr. 22 à 12:58";
shapes = (
{
closed = 1;
nodes = (
(122,-264,o),
(303,-159,o),
(303,-59,cs),
(303,-32,o),
(290,-10,o),
(253,11,cs),
(166,60,ls),
(146,71,o),
(133,86,o),
(129,92,c),
(140,108,o),
(167,134,o),
(185,151,c),
(166,166,l),
(125,136,o),
(72,95,o),
(45,62,c),
(45,35,o),
(88,-3,o),
(115,-17,cs),
(194,-59,ls),
(224,-75,o),
(240,-87,o),
(240,-104,cs),
(240,-148,o),
(147,-195,o),
(84,-195,cs),
(34,-195,o),
(-28,-153,o),
(-28,-101,c),
(-5,-78,o),
(25,-59,o),
(108,-9,c),
(91,19,l),
(-45,-56,o),
(-75,-86,o),
(-107,-119,c),
(-107,-210,o),
(-43,-264,o),
(30,-264,cs)
);
},
{
closed = 1;
nodes = (
(245,125,o),
(358,298,o),
(358,392,cs),
(358,456,o),
(306,499,o),
(259,499,cs),
(163,499,o),
(42,323,o),
(42,230,cs),
(42,173,o),
(87,125,o),
(142,125,cs)
);
},
{
closed = 1;
nodes = (
(155,171,o),
(130,205,o),
(130,262,cs),
(130,333,o),
(170,448,o),
(222,448,cs),
(249,448,o),
(269,416,o),
(269,365,cs),
(269,292,o),
(224,171,o),
(178,171,cs)
);
},
{
pos = (95,28);
ref = barreft;
}
);
width = 382;
}
);
note = g;
unicode = 103;
},
{
color = 5;
glyphname = h;
kernLeft = h;
kernRight = n;
lastChange = "2024-09-02 09:43:47 +0000";
layers = (
{
anchors = (
{
name = bottom;
pos = (269,0);
}
);
layerId = m01;
shapes = (
{
alignment = -1;
pos = (550,0);
ref = empattement_bas;
scale = (-1,1);
},
{
ref = l;
},
{
alignment = -1;
pos = (-29,0);
ref = epaule;
}
);
width = 536;
},
{
anchors = (
{
name = bottom;
pos = (282,0);
}
);
layerId = "B693E737-F65C-4B63-97BA-EB353033066E";
shapes = (
{
alignment = -1;
pos = (566,0);
ref = empattement_bas;
scale = (-1,1);
},
{
alignment = -1;
ref = l;
},
{
alignment = -1;
pos = (-24,0);
ref = epaule;
}
);
width = 567;
},
{
anchors = (
{
name = bottom;
pos = (284,0);
}
);
associatedMasterId = "B693E737-F65C-4B63-97BA-EB353033066E";
layerId = "1CDB458B-F963-4578-BA9E-EE045C589662";
name = "28 mars 21 à 16:08";
shapes = (
{
closed = 1;
nodes = (
(352,38,l),
(352,337,ls),
(352,429,o),
(295,484,o),
(203,484,cs),
(119,484,o),
(55,422,o),
(17,368,c),
(17,297,l),
(46,335,o),
(98,378,o),
(144,378,cs),
(188,378,o),
(204,352,o),
(204,298,cs),
(204,38,l)
);
}
);
width = 271;
},
{
anchors = (
{
name = bottom;
pos = (290,0);
}
);
associatedMasterId = m01;
layerId = "1230E7B2-4C9B-4295-A195-DF3A9F087C47";
shapes = (
{
alignment = -1;
pos = (564,0);
ref = empattement_bas;
scale = (-1,1);
},
{
alignment = -1;
ref = l;
},
{
alignment = -1;
pos = (-12,0);
ref = epaule;
}
);
width = 545;
},
{
anchors = (
{
name = bottom;
pos = (209,1);
}
);
guides = (
{
pos = (463,499);
}
);
layerId = "77A919B5-A12B-4FB4-B82B-A665849CE577";
shapes = (
{
alignment = -1;
pos = (-242,-21);
ref = empattement_montante;
scale = (0.918,1.02);
},
{
pos = (-9,0);
ref = "fut-long";
},
{
pos = (-44,0);
ref = "epaule-n";
}
);
width = 496;
},
{
anchors = (
{
name = bottom;
pos = (195,0);
}
);
associatedMasterId = "77A919B5-A12B-4FB4-B82B-A665849CE577";
layerId = "14617B26-9C3E-4195-B0FC-E29EC0DBAC7C";
name = "16 janv. 22 à 14:06";
shapes = (
{
closed = 1;
nodes = (
(29,-26,l),
(86,0,l),
(237,607,l),
(154,615,l),
(5,0,l)
);
},
{
pos = (-1,0);
ref = hpont;
scale = (0.9,1);
},
{
alignment = -1;
pos = (-242,0);
ref = empattement_montante;
scale = (0.9,1);
}
);
width = 414;
},
{
anchors = (
{
name = bottom;
pos = (198,1);
}
);
guides = (
{
pos = (447,499);
}
);
layerId = m004;
shapes = (
{
alignment = -1;
pos = (-243,-21);
ref = empattement_montante;
scale = (0.918,1.02);
},
{
pos = (-10,0);
ref = "fut-long";
},
{
pos = (-2,0);
ref = "epaule-n";
}
);
width = 559;
},
{
anchors = (
{
name = bottom;
pos = (195,0);
}
);
associatedMasterId = m004;
layerId = "A6A00B20-85B6-4D90-B471-A58ABA547397";
name = "16 janv. 22 à 14:06";
shapes = (
{
closed = 1;
nodes = (
(29,-26,l),
(86,0,l),
(237,607,l),
(154,615,l),
(5,0,l)
);
},
{
pos = (-1,0);
ref = hpont;
scale = (0.9,1);
},
{
alignment = -1;
pos = (-242,0);
ref = empattement_montante;
scale = (0.9,1);
}
);
width = 414;
}
);
metricLeft = l;
metricRight = n;
note = h;
unicode = 104;
},
{
color = 5;
glyphname = i;
kernLeft = i;
kernRight = i;
lastChange = "2022-07-11 12:49:07 +0000";
layers = (
{
layerId = m01;
shapes = (
{
closed = 1;
nodes = (
(186,27,l),
(186,345,l),
(98,345,l),
(98,27,l)
);
},
{
pos = (278,0);
ref = empattement_bas;
scale = (-1,1);
},
{
pos = (42,-256);
ref = empattement_haut;
},
{
pos = (19,0);
ref = point_ij;
}
);
width = 269;
},
{
associatedMasterId = m01;
layerId = "429B0166-45D1-4460-802D-40A54EA35A31";
name = "17 mars 21 à 11:26";
shapes = (
{
closed = 1;
nodes = (
(197,27,l),
(197,345,l),
(109,345,l),
(109,27,l)
);
},
{
pos = (289,0);
ref = empattement_bas;
scale = (-1,1);
},
{
pos = (53,-256);
ref = empattement_haut;
},
{
closed = 1;
nodes = (
(184,605,o),
(221,641,o),
(221,686,cs),
(221,720,o),
(196,744,o),
(161,744,cs),
(123,744,o),
(87,711,o),
(87,664,cs),
(87,625,o),
(116,605,o),
(148,605,cs)
);
}
);
width = 285;
},
{
layerId = "B693E737-F65C-4B63-97BA-EB353033066E";
shapes = (
{
closed = 1;
nodes = (
(227,27,l),
(227,345,l),
(79,345,l),
(79,27,l)
);
},
{
pos = (289,0);
ref = empattement_bas;
scale = (-1,1);
},
{
pos = (53,-246);
ref = empattement_haut;
},
{
pos = (-10,5);
ref = point_ij;
}
);
width = 290;
},
{
associatedMasterId = m01;
layerId = "1230E7B2-4C9B-4295-A195-DF3A9F087C47";
shapes = (
{
closed = 1;
nodes = (
(182,27,l),
(182,345,l),
(114,345,l),
(114,27,l)
);
},
{
alignment = -1;
pos = (284,0);
ref = empattement_bas;
scale = (-1,1);
},
{
alignment = -1;
pos = (48,-259);
ref = empattement_haut;
},
{
alignment = -1;
pos = (39,0);
ref = point_ij;
}
);
width = 280.33333;
},
{
guides = (
{
pos = (461,499);
}
);
layerId = "77A919B5-A12B-4FB4-B82B-A665849CE577";
shapes = (
{
alignment = -1;
pos = (67,-20);
ref = pointij;
scale = (1.02,1.02);
},
{
ref = idotless;
}
);
width = 276;
},
{
associatedMasterId = "77A919B5-A12B-4FB4-B82B-A665849CE577";
layerId = "D713EA72-A511-499C-B8C7-BD6BCE8035F2";
name = "17 mars 21 à 11:26";
shapes = (
{
closed = 1;
nodes = (
(197,27,l),
(197,345,l),
(109,345,l),
(109,27,l)
);
},
{
pos = (289,0);
ref = empattement_bas;
scale = (-1,1);
},
{
pos = (53,-256);
ref = empattement_haut;
},
{
closed = 1;
nodes = (
(184,605,o),
(221,641,o),
(221,686,cs),
(221,720,o),
(196,744,o),
(161,744,cs),
(123,744,o),
(87,711,o),
(87,664,cs),
(87,625,o),
(116,605,o),
(148,605,cs)
);
}
);
width = 285;
},
{
associatedMasterId = "77A919B5-A12B-4FB4-B82B-A665849CE577";
layerId = "267139E3-81D2-4E7A-B49C-285412FC4865";
name = "20 oct. 21 à 14:40";
shapes = (
{
closed = 1;
nodes = (
(226,306,cs),
(243,357,o),
(253,400,o),
(253,431,cs),
(253,467,o),
(243,487,o),
(211,487,cs),
(160,487,o),
(82,418,o),
(42,354,c),
(65,338,l),
(105,388,o),
(136,421,o),
(148,421,cs),
(156,421,o),
(160,415,o),
(160,402,cs),
(160,377,o),
(149,332,o),
(124,259,cs),
(75,114,o),
(65,70,o),
(65,39,cs),
(65,3,o),
(75,-17,o),
(107,-17,cs),
(158,-17,o),
(233,52,o),
(276,116,c),
(254,132,l),
(214,82,o),
(181,49,o),
(170,49,cs),
(161,49,o),
(158,55,o),
(158,70,cs),
(158,93,o),
(171,140,o)
);
},
{
ref = pointij;
}
);
width = 250;
},
{
guides = (
{
pos = (441,499);
}
);
layerId = m004;
shapes = (
{
alignment = -1;
pos = (73,-20);
ref = pointij;
scale = (1.02,1.02);
},
{
ref = idotless;
}
);
width = 319;
},
{
associatedMasterId = m004;
layerId = "DB8E31E7-8CC3-479B-9BAF-7B86D3E81FE4";
name = "17 mars 21 à 11:26";
shapes = (
{
closed = 1;
nodes = (
(197,27,l),
(197,345,l),
(109,345,l),
(109,27,l)
);
},
{
pos = (289,0);
ref = empattement_bas;
scale = (-1,1);
},
{
pos = (53,-256);
ref = empattement_haut;
},
{
closed = 1;
nodes = (
(184,605,o),
(221,641,o),
(221,686,cs),
(221,720,o),
(196,744,o),
(161,744,cs),
(123,744,o),
(87,711,o),
(87,664,cs),
(87,625,o),
(116,605,o),
(148,605,cs)
);
}
);
width = 285;
},
{
associatedMasterId = m004;
layerId = "E88F5B5E-012C-4D85-B3B2-960D450C91C6";
name = "20 oct. 21 à 14:40";
shapes = (
{
closed = 1;
nodes = (
(226,306,cs),
(243,357,o),
(253,400,o),
(253,431,cs),
(253,467,o),
(243,487,o),
(211,487,cs),
(160,487,o),
(82,418,o),
(42,354,c),
(65,338,l),
(105,388,o),
(136,421,o),
(148,421,cs),
(156,421,o),
(160,415,o),
(160,402,cs),
(160,377,o),
(149,332,o),
(124,259,cs),
(75,114,o),
(65,70,o),
(65,39,cs),
(65,3,o),
(75,-17,o),
(107,-17,cs),
(158,-17,o),
(233,52,o),
(276,116,c),
(254,132,l),
(214,82,o),
(181,49,o),
(170,49,cs),
(161,49,o),
(158,55,o),
(158,70,cs),
(158,93,o),
(171,140,o)
);
},
{
ref = pointij;
}
);
width = 250;
}
);
metricLeft = n;
note = i;
unicode = 105;
},
{
color = 5;
glyphname = idotless;
kernLeft = n;
kernRight = i;
lastChange = "2022-07-11 12:33:13 +0000";
layers = (
{
anchors = (
{
name = top;
pos = (127,470);
}
);
layerId = m01;
shapes = (
{
closed = 1;
nodes = (
(186,27,l),
(186,345,l),
(98,345,l),
(98,27,l)
);
},
{
pos = (278,0);
ref = empattement_bas;
scale = (-1,1);
},
{
pos = (42,-256);
ref = empattement_haut;
}
);
width = 269;
},
{
anchors = (
{
name = top;
pos = (143,470);
}
);
layerId = "B693E737-F65C-4B63-97BA-EB353033066E";
shapes = (
{
closed = 1;
nodes = (
(227,27,l),
(227,345,l),
(79,345,l),
(79,27,l)
);
},
{
pos = (289,0);
ref = empattement_bas;
scale = (-1,1);
},
{
pos = (53,-246);
ref = empattement_haut;
}
);
width = 290;
},
{
anchors = (
{
name = top;
pos = (132,470);
}
);
associatedMasterId = m01;
layerId = "1230E7B2-4C9B-4295-A195-DF3A9F087C47";
shapes = (
{
closed = 1;
nodes = (
(182,27,l),
(182,345,l),
(114,345,l),
(114,27,l)
);
},
{
alignment = -1;
pos = (284,0);
ref = empattement_bas;
scale = (-1,1);
},
{
alignment = -1;
pos = (48,-259);
ref = empattement_haut;
}
);
width = 280.33333;
},
{
anchors = (
{
name = top;
pos = (197,480);
}
);
guides = (
{
pos = (468,499);
}
);
layerId = "77A919B5-A12B-4FB4-B82B-A665849CE577";
shapes = (
{
closed = 1;
nodes = (
(126,20,o),
(169,62,o),
(225,110,c),
(216,124,l),
(172,102,o),
(146,87,o),
(118,65,c),
(130,116,o),
(168,234,o),
(194,319,cs),
(210,370,o),
(232,450,o),
(236,475,c),
(183,499,l),
(147,465,o),
(109,430,o),
(46,376,c),
(57,357,l),
(92,382,o),
(120,398,o),
(148,418,c),
(144,391,o),
(121,323,o),
(92,227,cs),
(80,188,o),
(27,31,o),
(30,19,cs),
(34,3,o),
(66,-14,o),
(95,-14,c)
);
}
);
width = 276;
},
{
anchors = (
{
name = top;
pos = (194,480);
}
);
guides = (
{
pos = (450,509);
}
);
layerId = m004;
shapes = (
{
closed = 1;
nodes = (
(169,21,o),
(216,64,o),
(273,112,c),
(264,127,l),
(219,104,o),
(192,89,o),
(164,67,c),
(176,119,o),
(215,239,o),
(241,326,cs),
(258,378,o),
(278,450,o),
(282,476,c),
(188,509,l),
(148,474,o),
(108,435,o),
(47,384,c),
(59,364,l),
(94,385,o),
(120,404,o),
(154,425,c),
(144,392,o),
(124,330,o),
(92,232,cs),
(79,192,o),
(22,39,o),
(25,27,cs),
(29,10,o),
(102,-14,o),
(131,-14,c)
);
}
);
width = 319;
}
);
metricLeft = n;
metricRight = i;
unicode = 305;
},
{
color = 5;
glyphname = j;
kernLeft = j;
kernRight = j;
lastChange = "2022-07-11 11:38:11 +0000";
layers = (
{
layerId = m01;
shapes = (
{
closed = 1;
nodes = (
(62,-177,o),
(179,-59,o),
(179,40,cs),
(179,371,l),
(91,371,l),
(91,31,ls),
(91,-65,o),
(34,-149,o),
(-35,-226,c),
(-17,-247,l)
);
},
{
pos = (35,-256);
ref = empattement_haut;
},
{
pos = (13,0);
ref = point_ij;
}
);
width = 252;
},
{
layerId = "B693E737-F65C-4B63-97BA-EB353033066E";
shapes = (
{
closed = 1;
nodes = (
(73,-179,o),
(213,-56,o),
(213,42,cs),
(213,371,l),
(65,371,l),
(65,31,ls),
(65,-65,o),
(39,-147,o),
(-25,-226,c),
(-6,-247,l)
);
},
{
pos = (39,-246);
ref = empattement_haut;
},
{
pos = (-11,5);
ref = point_ij;
}
);
width = 275;
},
{
associatedMasterId = m01;
layerId = "1230E7B2-4C9B-4295-A195-DF3A9F087C47";
shapes = (
{
closed = 1;
nodes = (
(65,-176,o),
(174,-60,o),
(174,39,cs),
(174,371,l),
(106,371,l),
(106,31,ls),
(106,-65,o),
(39,-150,o),
(-32,-226,c),
(-14,-247,l)
);
},
{
alignment = -1;
pos = (40,-259);
ref = empattement_haut;
},
{
alignment = -1;
pos = (27,0);
ref = point_ij;
}
);
width = 253.66667;
},
{
anchors = (
{
name = top;
pos = (180,485);
}
);
guides = (
{
pos = (458,499);
}
);
layerId = "77A919B5-A12B-4FB4-B82B-A665849CE577";
shapes = (
{
closed = 1;
nodes = (
(-51,-191,o),
(73,-64,o),
(126,68,c),
(140,130,o),
(232,450,o),
(236,475,c),
(183,499,l),
(147,465,o),
(109,430,o),
(46,376,c),
(57,357,l),
(92,382,o),
(120,398,o),
(148,418,c),
(144,391,o),
(69,138,o),
(51,65,c),
(0,-59,o),
(-82,-165,o),
(-157,-249,c),
(-147,-264,l)
);
},
{
alignment = -1;
pos = (79,-20);
ref = pointij;
scale = (1.02,1.02);
}
);
width = 250;
},
{
anchors = (
{
name = top;
pos = (208,485);
}
);
guides = (
{
pos = (471,509);
}
);
layerId = m004;
shapes = (
{
closed = 1;
nodes = (
(-62,-191,o),
(100,-47,o),
(153,68,c),
(177,130,o),
(268,445,o),
(272,476,c),
(170,509,l),
(132,475,o),
(74,421,o),
(29,384,c),
(41,364,l),
(76,386,o),
(109,408,o),
(136,425,c),
(129,395,o),
(55,138,o),
(30,65,c),
(-21,-59,o),
(-93,-165,o),
(-178,-249,c),
(-168,-264,l)
);
},
{
alignment = -1;
pos = (60,-20);
ref = pointij;
scale = (1.02,1.02);
}
);
width = 276;
}
);
note = j;
unicode = 106;
},
{
color = 5;
glyphname = k;
kernLeft = l;
kernRight = k;
lastChange = "2022-07-11 11:40:24 +0000";
layers = (
{
layerId = m01;
shapes = (
{
ref = l;
},
{
pos = (249,0);
ref = boutk;
}
);
width = 485;
},
{
layerId = "B693E737-F65C-4B63-97BA-EB353033066E";
shapes = (
{
ref = l;
},
{
pos = (285,0);
ref = boutk;
}
);
width = 538;
},
{
associatedMasterId = m01;
layerId = "1230E7B2-4C9B-4295-A195-DF3A9F087C47";
shapes = (
{
closed = 1;
nodes = (
(512,0,l),
(512,27,l),
(446,41,o),
(416,72,o),
(375,128,cs),
(245,298,l),
(236,232,l),
(304,310,ls),
(359,373,o),
(419,417,o),
(496,439,c),
(496,466,l),
(266,466,l),
(266,439,l),
(323,429,o),
(319,395,o),
(272,344,cs),
(192,254,l),
(375,0,l)
);
},
{
alignment = -1;
ref = l;
}
);
width = 517.33333;
},
{
anchors = (
{
name = bottom;
pos = (210,1);
}
);
guides = (
{
pos = (463,499);
}
);
layerId = "77A919B5-A12B-4FB4-B82B-A665849CE577";
shapes = (
{
closed = 1;
nodes = (
(321,21,o),
(364,69,o),
(434,128,c),
(422,146,l),
(380,118,o),
(347,98,o),
(330,86,c),
(307,100,o),
(268,157,o),
(250,205,c),
(347,245,o),
(462,324,o),
(462,381,cs),
(462,430,o),
(420,499,o),
(379,499,cs),
(333,499,o),
(232,374,o),
(134,233,c),
(107,154,l),
(212,293,o),
(310,396,o),
(340,424,c),
(353,419,o),
(374,389,o),
(374,357,cs),
(374,311,o),
(282,248,o),
(181,215,c),
(196,99,o),
(224,42,o),
(287,-14,c)
);
},
{
pos = (-9,0);
ref = "fut-long";
},
{
alignment = -1;
pos = (-242,-21);
ref = empattement_montante;
scale = (0.918,1.02);
}
);
width = 480;
},
{
anchors = (
{
name = bottom;
pos = (201,0);
}
);
associatedMasterId = "77A919B5-A12B-4FB4-B82B-A665849CE577";
layerId = "B0490FAA-7EA2-4081-9375-C1664FBAEC69";
name = "16 janv. 22 à 14:15";
shapes = (
{
closed = 1;
nodes = (
(343,-9,o),
(404,77,o),
(424,114,c),
(407,130,l),
(387,102,o),
(358,72,o),
(339,72,cs),
(318,72,o),
(276,154,o),
(263,197,c),
(367,247,o),
(455,325,o),
(455,418,cs),
(455,458,o),
(436,484,o),
(393,484,cs),
(330,484,o),
(243,412,o),
(159,242,c),
(147,242,l),
(90,1,l),
(197,291,o),
(321,410,o),
(356,410,cs),
(369,410,o),
(376,402,o),
(376,380,cs),
(376,314,o),
(293,240,o),
(186,207,c),
(217,91,o),
(265,-9,o),
(299,-9,cs)
);
},
{
closed = 1;
nodes = (
(89,0,l),
(239,595,l),
(158,615,l),
(9,0,l)
);
},
{
alignment = -1;
pos = (-237,0);
ref = empattement_montante;
scale = (0.9,1);
}
);
width = 462;
},
{
anchors = (
{
name = bottom;
pos = (196,1);
}
);
associatedMasterId = "77A919B5-A12B-4FB4-B82B-A665849CE577";
layerId = "381C5798-8D4C-4DBC-BEE5-F3DE7950696F";
name = "29 janv. 22 à 17:13";
shapes = (
{
closed = 1;
nodes = (
(316,94,o),
(274,151,o),
(256,198,c),
(352,227,o),
(447,298,o),
(447,363,cs),
(447,403,o),
(423,494,o),
(381,494,cs),
(335,494,o),
(237,380,o),
(140,249,c),
(113,151,l),
(217,287,o),
(317,406,o),
(341,406,cs),
(354,406,o),
(369,369,o),
(369,336,cs),
(369,300,o),
(287,243,o),
(186,212,c),
(180,195,l),
(207,97,o),
(249,30,o),
(291,-14,c),
(325,20,o),
(368,58,o),
(437,115,c),
(420,144,l),
(379,116,o),
(356,92,o),
(339,80,c)
);
},
{
alignment = -1;
pos = (-256,-21);
ref = empattement_montante;
scale = (0.918,1.02);
},
{
closed = 1;
nodes = (
(25,-26,l),
(83,1,l),
(237,617,l),
(153,627,l),
(0,1,l)
);
}
);
width = 465;
},
{
anchors = (
{
name = bottom;
pos = (209,1);
}
);
guides = (
{
pos = (447,509);
}
);
layerId = m004;
shapes = (
{
closed = 1;
nodes = (
(380,22,o),
(434,71,o),
(506,131,c),
(493,149,l),
(450,121,o),
(423,107,o),
(405,95,c),
(379,110,o),
(342,169,o),
(322,233,c),
(425,263,o),
(542,331,o),
(542,389,cs),
(542,439,o),
(451,509,o),
(409,509,cs),
(363,509,o),
(273,382,o),
(174,236,c),
(147,160,l),
(254,302,o),
(328,392,o),
(359,421,c),
(372,416,o),
(404,397,o),
(404,364,cs),
(404,318,o),
(311,253,o),
(216,216,c),
(237,101,o),
(270,44,o),
(346,-14,c)
);
},
{
pos = (-10,0);
ref = "fut-long";
},
{
alignment = -1;
pos = (-243,-21);
ref = empattement_montante;
scale = (0.918,1.02);
}
);
width = 537;
},
{
anchors = (
{
name = bottom;
pos = (201,0);
}
);
associatedMasterId = m004;
layerId = "435319E3-3754-4006-B7A0-CCD344F605B9";
name = "16 janv. 22 à 14:15";
shapes = (
{
closed = 1;
nodes = (
(343,-9,o),
(404,77,o),
(424,114,c),
(407,130,l),
(387,102,o),
(358,72,o),
(339,72,cs),
(318,72,o),
(276,154,o),
(263,197,c),
(367,247,o),
(455,325,o),
(455,418,cs),
(455,458,o),
(436,484,o),
(393,484,cs),
(330,484,o),
(243,412,o),
(159,242,c),
(147,242,l),
(90,1,l),
(197,291,o),
(321,410,o),
(356,410,cs),
(369,410,o),
(376,402,o),
(376,380,cs),
(376,314,o),
(293,240,o),
(186,207,c),
(217,91,o),
(265,-9,o),
(299,-9,cs)
);
},
{
closed = 1;
nodes = (
(89,0,l),
(239,595,l),
(158,615,l),
(9,0,l)
);
},
{
alignment = -1;
pos = (-237,0);
ref = empattement_montante;
scale = (0.9,1);
}
);
width = 462;
},
{
anchors = (
{
name = bottom;
pos = (196,1);
}
);
associatedMasterId = m004;
layerId = "2D7356A2-2D6C-492E-8D46-8720E97C1C07";
name = "29 janv. 22 à 17:13";
shapes = (
{
closed = 1;
nodes = (
(316,94,o),
(274,151,o),
(256,198,c),
(352,227,o),
(447,298,o),
(447,363,cs),
(447,403,o),
(423,494,o),
(381,494,cs),
(335,494,o),
(237,380,o),
(140,249,c),
(113,151,l),
(217,287,o),
(317,406,o),
(341,406,cs),
(354,406,o),
(369,369,o),
(369,336,cs),
(369,300,o),
(287,243,o),
(186,212,c),
(180,195,l),
(207,97,o),
(249,30,o),
(291,-14,c),
(325,20,o),
(368,58,o),
(437,115,c),
(420,144,l),
(379,116,o),
(356,92,o),
(339,80,c)
);
},
{
alignment = -1;
pos = (-256,-21);
ref = empattement_montante;
scale = (0.918,1.02);
},
{
closed = 1;
nodes = (
(25,-26,l),
(83,1,l),
(237,617,l),
(153,627,l),
(0,1,l)
);
}
);
width = 465;
}
);
metricLeft = l;
note = k;
unicode = 107;
},
{
color = 5;
glyphname = l;
kernLeft = h;
kernRight = l;
lastChange = "2022-07-11 12:27:30 +0000";
layers = (
{
anchors = (
{
name = bottom;
pos = (130,0);
}
);
layerId = m01;
shapes = (
{
closed = 1;
nodes = (
(166,39,l),
(166,645,l),
(78,645,l),
(78,39,l)
);
},
{
pos = (-14,0);
ref = empattement_bas;
},
{
pos = (22,4);
ref = empattement_haut;
}
);
width = 249;
},
{
anchors = (
{
name = bottom;
pos = (135,0);
}
);
layerId = "B693E737-F65C-4B63-97BA-EB353033066E";
shapes = (
{
closed = 1;
nodes = (
(211,39,l),
(211,645,l),
(63,645,l),
(63,39,l)
);
},
{
alignment = -1;
pos = (1,0);
ref = empattement_bas;
},
{
alignment = -1;
pos = (37,4);
ref = empattement_haut;
}
);
width = 285;
},
{
anchors = (
{
name = bottom;
pos = (145,0);
}
);
associatedMasterId = m01;
layerId = "1230E7B2-4C9B-4295-A195-DF3A9F087C47";
shapes = (
{
closed = 1;
nodes = (
(168,39,l),
(168,645,l),
(100,645,l),
(100,39,l)
);
},
{
alignment = -1;
pos = (-4,0);
ref = empattement_bas;
},
{
alignment = -1;
pos = (34,4);
ref = empattement_haut;
}
);
width = 263.66667;
},
{
anchors = (
{
name = bottom;
pos = (57,0);
}
);
layerId = "77A919B5-A12B-4FB4-B82B-A665849CE577";
shapes = (
{
closed = 1;
nodes = (
(122,23,o),
(163,62,o),
(224,116,c),
(216,131,l),
(165,104,o),
(128,81,o),
(103,64,c),
(109,103,o),
(120,147,o),
(139,215,cs),
(244,585,l),
(171,589,l),
(44,149,ls),
(27,91,o),
(19,50,o),
(22,37,cs),
(26,19,o),
(47,0,o),
(85,-14,c)
);
},
{
pos = (-242,-21);
ref = empattement_montante;
scale = (0.918,1.02);
}
);
width = 258;
},
{
anchors = (
{
name = bottom;
pos = (56,0);
}
);
layerId = m004;
shapes = (
{
closed = 1;
nodes = (
(169,26,o),
(198,56,o),
(271,116,c),
(264,131,l),
(212,109,o),
(175,85,o),
(154,66,c),
(157,106,o),
(167,147,o),
(186,215,cs),
(291,585,l),
(170,589,l),
(43,149,ls),
(26,91,o),
(23,49,o),
(26,36,cs),
(30,18,o),
(94,-9,o),
(132,-14,c)
);
},
{
pos = (-243,-21);
ref = empattement_montante;
scale = (0.918,1.02);
}
);
width = 306;
}
);
note = l;
unicode = 108;
},
{
color = 5;
glyphname = m;
kernLeft = n;
kernRight = n;
lastChange = "2022-07-11 12:23:09 +0000";
layers = (
{
layerId = m01;
shapes = (
{
ref = n;
},
{
alignment = -1;
pos = (866,0);
ref = empattement_bas;
scale = (-1,1);
},
{
alignment = -1;
pos = (287,0);
ref = epaule;
}
);
width = 852;
},
{
layerId = "B693E737-F65C-4B63-97BA-EB353033066E";
shapes = (
{
ref = n;
},
{
alignment = -1;
pos = (905,0);
ref = empattement_bas;
scale = (-1,1);
},
{
alignment = -1;
pos = (315,0);
ref = epaule;
}
);
width = 906;
},
{
associatedMasterId = m01;
layerId = "1230E7B2-4C9B-4295-A195-DF3A9F087C47";
shapes = (
{
alignment = -1;
ref = n;
},
{
alignment = -1;
pos = (864,0);
ref = empattement_bas;
scale = (-1,1);
},
{
alignment = -1;
pos = (288,0);
ref = epaule;
}
);
width = 844.66667;
},
{
anchors = (
{
name = bottom;
pos = (218,1);
}
);
guides = (
{
pos = (466,499);
}
);
layerId = "77A919B5-A12B-4FB4-B82B-A665849CE577";
shapes = (
{
closed = 1;
nodes = (
(351,16,l),
(389,149,ls),
(419,253,o),
(482,410,o),
(482,458,cs),
(482,481,o),
(474,499,o),
(452,499,cs),
(389,499,o),
(253,351,o),
(126,161,c),
(135,127,l),
(175,185,o),
(325,371,o),
(400,409,c),
(391,370,o),
(344,247,o),
(311,146,cs),
(268,14,l),
(295,-14,l)
);
},
{
pos = (12,0);
ref = fut;
},
{
pos = (221,0);
ref = "epaule-n";
}
);
width = 761;
},
{
anchors = (
{
name = bottom;
pos = (203,0);
}
);
associatedMasterId = "77A919B5-A12B-4FB4-B82B-A665849CE577";
layerId = "27C295EE-C990-4635-B4F3-B8E679CD53A6";
name = "11 janv. 22 à 20:10";
shapes = (
{
closed = 1;
nodes = (
(613,-17,o),
(673,52,o),
(712,116,c),
(692,132,l),
(656,82,o),
(627,59,o),
(617,59,cs),
(609,59,o),
(607,64,o),
(607,72,cs),
(607,133,o),
(716,298,o),
(716,401,cs),
(716,439,o),
(705,484,o),
(659,484,cs),
(617,484,o),
(511,394,o),
(432,242,c),
(419,242,l),
(362,0,l),
(461,262,o),
(590,400,o),
(613,400,cs),
(623,400,o),
(627,394,o),
(627,377,cs),
(627,309,o),
(520,117,o),
(520,39,cs),
(520,5,o),
(532,-17,o),
(561,-17,cs)
);
},
{
closed = 1;
nodes = (
(110,0,l),
(191,306,ls),
(203,354,o),
(215,399,o),
(215,428,cs),
(215,464,o),
(206,484,o),
(177,484,cs),
(135,484,o),
(77,437,o),
(30,360,c),
(50,342,l),
(86,392,o),
(113,414,o),
(122,414,cs),
(131,414,o),
(133,409,o),
(133,394,cs),
(133,374,o),
(121,329,o),
(101,259,cs),
(27,0,l)
);
},
{
closed = 1;
nodes = (
(218,269,o),
(338,398,o),
(360,398,cs),
(374,398,o),
(374,381,o),
(374,367,cs),
(374,349,o),
(371,319,o),
(354,259,cs),
(278,0,l),
(362,0,l),
(457,357,o),
(463,380,o),
(463,407,cs),
(463,439,o),
(452,484,o),
(406,484,cs),
(365,484,o),
(261,394,o),
(182,242,c),
(167,242,l),
(110,0,l)
);
}
);
width = 741;
},
{
anchors = (
{
name = bottom;
pos = (219,1);
}
);
guides = (
{
pos = (452,509);
}
);
layerId = m004;
shapes = (
{
closed = 1;
nodes = (
(419,15,l),
(458,149,ls),
(488,253,o),
(561,420,o),
(561,468,cs),
(561,491,o),
(539,509,o),
(512,509,cs),
(421,509,o),
(249,308,o),
(140,157,c),
(149,127,l),
(189,185,o),
(349,381,o),
(424,419,c),
(415,380,o),
(364,248,o),
(329,148,cs),
(282,14,l),
(319,-14,l)
);
},
{
pos = (13,0);
ref = fut;
},
{
pos = (287,0);
ref = "epaule-n";
}
);
width = 848;
},
{
anchors = (
{
name = bottom;
pos = (203,0);
}
);
associatedMasterId = m004;
layerId = "CE5F3274-2454-4F27-A83F-CD866691711D";
name = "11 janv. 22 à 20:10";
shapes = (
{
closed = 1;
nodes = (
(613,-17,o),
(673,52,o),
(712,116,c),
(692,132,l),
(656,82,o),
(627,59,o),
(617,59,cs),
(609,59,o),
(607,64,o),
(607,72,cs),
(607,133,o),
(716,298,o),
(716,401,cs),
(716,439,o),
(705,484,o),
(659,484,cs),
(617,484,o),
(511,394,o),
(432,242,c),
(419,242,l),
(362,0,l),
(461,262,o),
(590,400,o),
(613,400,cs),
(623,400,o),
(627,394,o),
(627,377,cs),
(627,309,o),
(520,117,o),
(520,39,cs),
(520,5,o),
(532,-17,o),
(561,-17,cs)
);
},
{
closed = 1;
nodes = (
(110,0,l),
(191,306,ls),
(203,354,o),
(215,399,o),
(215,428,cs),
(215,464,o),
(206,484,o),
(177,484,cs),
(135,484,o),
(77,437,o),
(30,360,c),
(50,342,l),
(86,392,o),
(113,414,o),
(122,414,cs),
(131,414,o),
(133,409,o),
(133,394,cs),
(133,374,o),
(121,329,o),
(101,259,cs),
(27,0,l)
);
},
{
closed = 1;
nodes = (
(218,269,o),
(338,398,o),
(360,398,cs),
(374,398,o),
(374,381,o),
(374,367,cs),
(374,349,o),
(371,319,o),
(354,259,cs),
(278,0,l),
(362,0,l),
(457,357,o),
(463,380,o),
(463,407,cs),
(463,439,o),
(452,484,o),
(406,484,cs),
(365,484,o),
(261,394,o),
(182,242,c),
(167,242,l),
(110,0,l)
);
}
);
width = 741;
}
);
metricLeft = n;
metricRight = n;
note = m;
unicode = 109;
},
{
color = 5;
glyphname = n;
kernLeft = n;
kernRight = n;
lastChange = "2022-07-11 12:14:23 +0000";
layers = (
{
anchors = (
{
name = bottom;
pos = (295,0);
},
{
name = top;
pos = (298,470);
}
);
layerId = m01;
shapes = (
{
closed = 1;
nodes = (
(190,27,l),
(190,354,l),
(102,354,l),
(102,27,l)
);
},
{
pos = (10,0);
ref = empattement_bas;
},
{
pos = (-1,-3);
ref = empattement_decale;
},
{
pos = (574,0);
ref = empattement_bas;
scale = (-1,1);
},
{
pos = (-5,0);
ref = epaule;
}
);
width = 560;
},
{
anchors = (
{
name = bottom;
pos = (315,0);
},
{
name = top;
pos = (316,470);
}
);
layerId = "B693E737-F65C-4B63-97BA-EB353033066E";
shapes = (
{
closed = 1;
nodes = (
(237,27,l),
(237,354,l),
(89,354,l),
(89,27,l)
);
},
{
pos = (27,0);
ref = empattement_bas;
},
{
pos = (16,10);
ref = empattement_decale;
},
{
pos = (602,0);
ref = empattement_bas;
scale = (-1,1);
},
{
pos = (12,0);
ref = epaule;
}
);
width = 603;
},
{
anchors = (
{
name = bottom;
pos = (297,0);
}
);
associatedMasterId = m01;
layerId = "1230E7B2-4C9B-4295-A195-DF3A9F087C47";
shapes = (
{
closed = 1;
nodes = (
(179,27,l),
(179,354,l),
(111,354,l),
(111,27,l)
);
},
{
alignment = -1;
pos = (9,0);
ref = empattement_bas;
},
{
alignment = -1;
pos = (-2,-3);
ref = empattement_decale;
},
{
alignment = -1;
pos = (570,0);
ref = empattement_bas;
scale = (-1,1);
},
{
alignment = -1;
pos = (-6,0);
ref = epaule;
}
);
width = 550.66667;
},
{
anchors = (
{
name = bottom;
pos = (214,1);
},
{
name = top;
pos = (338,485);
}
);
layerId = "77A919B5-A12B-4FB4-B82B-A665849CE577";
shapes = (
{
alignment = -1;
pos = (12,0);
ref = fut;
},
{
pos = (-18,0);
ref = "epaule-n";
}
);
width = 522;
},
{
anchors = (
{
name = bottom;
pos = (215,1);
},
{
name = top;
pos = (381,485);
}
);
guides = (
{
pos = (488,509);
}
);
layerId = m004;
shapes = (
{
alignment = -1;
pos = (13,0);
ref = fut;
},
{
pos = (23,0);
ref = "epaule-n";
}
);
width = 584;
}
);
note = n;
unicode = 110;
},
{
color = 5;
glyphname = o;
kernLeft = o;
kernRight = o;
lastChange = "2022-07-11 12:36:50 +0000";
layers = (
{
anchors = (
{
name = bottom;
pos = (277,0);
},
{
name = top;
pos = (238,470);
}
);
layerId = m01;
shapes = (
{
closed = 1;
nodes = (
(385,-14,o),
(476,108,o),
(476,239,cs),
(476,377,o),
(373,484,o),
(251,484,cs),
(120,484,o),
(30,364,o),
(30,234,cs),
(30,97,o),
(132,-14,o),
(256,-14,cs)
);
},
{
closed = 1;
nodes = (
(195,40,o),
(130,149,o),
(130,271,cs),
(130,362,o),
(165,430,o),
(230,430,cs),
(313,430,o),
(377,320,o),
(377,197,cs),
(377,107,o),
(343,40,o),
(278,40,cs)
);
}
);
width = 506;
},
{
anchors = (
{
name = bottom;
pos = (300,0);
},
{
name = top;
pos = (261,470);
}
);
layerId = "B693E737-F65C-4B63-97BA-EB353033066E";
shapes = (
{
closed = 1;
nodes = (
(426,-14,o),
(527,113,o),
(527,244,cs),
(527,382,o),
(413,494,o),
(274,494,cs),
(125,494,o),
(25,369,o),
(25,239,cs),
(25,102,o),
(138,-14,o),
(279,-14,cs)
);
},
{
closed = 1;
nodes = (
(234,40,o),
(170,160,o),
(170,295,cs),
(170,379,o),
(192,440,o),
(247,440,cs),
(315,440,o),
(382,324,o),
(382,197,cs),
(382,112,o),
(359,40,o),
(306,40,cs)
);
}
);
width = 552;
},
{
anchors = (
{
name = bottom;
pos = (268,0);
},
{
name = top;
pos = (229,470);
}
);
associatedMasterId = m01;
layerId = "1230E7B2-4C9B-4295-A195-DF3A9F087C47";
shapes = (
{
closed = 1;
nodes = (
(367,-14,o),
(456,106,o),
(456,237,cs),
(456,375,o),
(356,481,o),
(242,481,cs),
(120,481,o),
(32,362,o),
(32,232,cs),
(32,95,o),
(131,-14,o),
(247,-14,cs)
);
},
{
closed = 1;
nodes = (
(179,39,o),
(115,151,o),
(115,255,cs),
(115,356,o),
(155,427,o),
(221,427,cs),
(311,427,o),
(374,316,o),
(374,202,cs),
(374,105,o),
(336,39,o),
(268,39,cs)
);
}
);
width = 488;
},
{
anchors = (
{
name = bottom;
pos = (165,0);
},
{
name = top;
pos = (256,480);
}
);
guides = (
{
pos = (459,499);
}
);
layerId = "77A919B5-A12B-4FB4-B82B-A665849CE577";
shapes = (
{
closed = 1;
nodes = (
(235,-15,o),
(405,231,o),
(405,370,cs),
(405,428,o),
(352,499,o),
(288,499,cs),
(183,499,o),
(15,250,o),
(15,127,cs),
(15,50,o),
(78,-15,o),
(133,-15,cs)
);
},
{
closed = 1;
nodes = (
(137,44,o),
(110,95,o),
(110,169,cs),
(110,254,o),
(191,413,o),
(250,451,c),
(279,442,o),
(310,394,o),
(310,332,cs),
(310,223,o),
(223,65,o),
(167,31,c)
);
}
);
width = 419;
},
{
anchors = (
{
name = bottom;
pos = (165,0);
},
{
name = top;
pos = (256,480);
}
);
associatedMasterId = "77A919B5-A12B-4FB4-B82B-A665849CE577";
guides = (
{
pos = (459,499);
}
);
layerId = "F129D75D-C464-4F5A-9EBC-D4FE120914B4";
name = "28 févr. 22 à 12:53";
shapes = (
{
closed = 1;
nodes = (
(235,-15,o),
(405,231,o),
(405,370,cs),
(405,428,o),
(352,499,o),
(288,499,cs),
(183,499,o),
(15,250,o),
(15,127,cs),
(15,50,o),
(69,-15,o),
(133,-15,cs)
);
},
{
closed = 1;
nodes = (
(139,40,o),
(112,85,o),
(112,169,cs),
(112,254,o),
(191,445,o),
(252,445,cs),
(279,445,o),
(308,404,o),
(308,332,cs),
(308,223,o),
(227,40,o),
(169,40,cs)
);
}
);
width = 419;
},
{
anchors = (
{
name = bottom;
pos = (196,0);
},
{
name = top;
pos = (287,480);
}
);
guides = (
{
pos = (519,509);
}
);
layerId = m004;
shapes = (
{
closed = 1;
nodes = (
(267,-15,o),
(474,206,o),
(474,374,cs),
(474,437,o),
(416,509,o),
(321,509,cs),
(213,509,o),
(6,285,o),
(6,130,cs),
(6,51,o),
(77,-15,o),
(162,-15,cs)
);
},
{
closed = 1;
nodes = (
(170,54,o),
(144,97,o),
(144,173,cs),
(144,259,o),
(222,424,o),
(282,462,c),
(311,441,o),
(336,402,o),
(336,339,cs),
(336,228,o),
(254,65,o),
(197,30,c)
);
}
);
width = 478;
},
{
anchors = (
{
name = bottom;
pos = (165,0);
},
{
name = top;
pos = (256,480);
}
);
associatedMasterId = m004;
guides = (
{
pos = (459,499);
}
);
layerId = "C4823212-5FE7-4E99-B899-C3DDEBCE0FD8";
name = "28 févr. 22 à 12:53";
shapes = (
{
closed = 1;
nodes = (
(235,-15,o),
(405,231,o),
(405,370,cs),
(405,428,o),
(352,499,o),
(288,499,cs),
(183,499,o),
(15,250,o),
(15,127,cs),
(15,50,o),
(69,-15,o),
(133,-15,cs)
);
},
{
closed = 1;
nodes = (
(139,40,o),
(112,85,o),
(112,169,cs),
(112,254,o),
(191,445,o),
(252,445,cs),
(279,445,o),
(308,404,o),
(308,332,cs),
(308,223,o),
(227,40,o),
(169,40,cs)
);
}
);
width = 419;
}
);
note = o;
unicode = 111;
},
{
color = 5;
glyphname = oe;
kernLeft = o;
kernRight = e;
lastChange = "2022-07-07 08:50:50 +0000";
layers = (
{
layerId = m01;
shapes = (
{
closed = 1;
nodes = (
(356,-14,o),
(434,52,o),
(469,140,c),
(464,347,l),
(424,429,o),
(343,484,o),
(257,484,cs),
(128,484,o),
(30,364,o),
(30,234,cs),
(30,97,o),
(140,-14,o),
(262,-14,cs)
);
},
{
closed = 1;
nodes = (
(213,40,o),
(128,133,o),
(128,264,cs),
(128,360,o),
(163,430,o),
(227,430,cs),
(307,430,o),
(390,341,o),
(390,204,cs),
(390,111,o),
(357,40,o),
(291,40,cs)
);
},
{
alignment = -1;
pos = (360,0);
ref = e;
}
);
width = 796;
},
{
layerId = "B693E737-F65C-4B63-97BA-EB353033066E";
shapes = (
{
closed = 1;
nodes = (
(375,-14,o),
(452,45,o),
(491,123,c),
(492,357,l),
(452,438,o),
(368,494,o),
(270,494,cs),
(121,494,o),
(25,369,o),
(25,239,cs),
(25,102,o),
(134,-14,o),
(275,-14,cs)
);
},
{
closed = 1;
nodes = (
(243,42,o),
(175,163,o),
(175,294,cs),
(175,376,o),
(196,440,o),
(244,440,cs),
(303,440,o),
(369,323,o),
(369,199,cs),
(369,117,o),
(348,42,o),
(301,42,cs)
);
},
{
pos = (339,0);
ref = e;
}
);
width = 807;
},
{
associatedMasterId = m01;
layerId = "1230E7B2-4C9B-4295-A195-DF3A9F087C47";
shapes = (
{
closed = 1;
nodes = (
(350,-14,o),
(428,54,o),
(462,146,c),
(455,344,l),
(415,426,o),
(335,481,o),
(253,481,cs),
(130,481,o),
(32,362,o),
(32,232,cs),
(32,95,o),
(142,-14,o),
(258,-14,cs)
);
},
{
closed = 1;
nodes = (
(203,39,o),
(112,123,o),
(112,254,cs),
(112,355,o),
(152,427,o),
(221,427,cs),
(308,427,o),
(397,347,o),
(397,206,cs),
(397,109,o),
(360,39,o),
(288,39,cs)
);
},
{
alignment = -1;
pos = (367,0);
ref = e;
}
);
width = 800;
},
{
layerId = "77A919B5-A12B-4FB4-B82B-A665849CE577";
shapes = (
{
alignment = -1;
ref = o;
},
{
alignment = -1;
pos = (253,0);
ref = e;
}
);
width = 624;
},
{
layerId = m004;
shapes = (
{
alignment = -1;
ref = o;
},
{
alignment = -1;
pos = (298,0);
ref = e;
}
);
width = 698;
}
);
metricLeft = o;
metricRight = e;
unicode = 339;
},
{
color = 5;
glyphname = p;
kernLeft = p;
kernRight = o;
lastChange = "2022-07-11 12:32:29 +0000";
layers = (
{
layerId = m01;
shapes = (
{
pos = (19,0);
ref = empattement_bas_long;
},
{
closed = 1;
nodes = (
(189,-138,l),
(189,353,l),
(101,353,l),
(101,-138,l)
);
},
{
pos = (-1,0);
ref = empattement_decale;
},
{
pos = (-1,0);
ref = panse;
}
);
width = 548;
},
{
layerId = "B693E737-F65C-4B63-97BA-EB353033066E";
shapes = (
{
pos = (35,0);
ref = empattement_bas_long;
},
{
closed = 1;
nodes = (
(237,-138,l),
(237,393,l),
(89,393,l),
(89,-138,l)
);
},
{
pos = (16,10);
ref = empattement_decale;
},
{
ref = panse;
}
);
width = 580;
},
{
associatedMasterId = m01;
layerId = "1230E7B2-4C9B-4295-A195-DF3A9F087C47";
shapes = (
{
alignment = -1;
pos = (15,0);
ref = empattement_bas_long;
},
{
closed = 1;
nodes = (
(174,-138,l),
(174,340,l),
(106,340,l),
(106,-138,l)
);
},
{
alignment = -1;
pos = (-5,0);
ref = empattement_decale;
},
{
alignment = -1;
ref = panse;
}
);
width = 538.66667;
},
{
guides = (
{
pos = (463,499);
}
);
layerId = "77A919B5-A12B-4FB4-B82B-A665849CE577";
shapes = (
{
closed = 1;
nodes = (
(146,-250,l),
(150,-234,l),
(47,-209,l),
(111,3,o),
(206,347,o),
(265,547,c),
(255,560,l),
(173,514,l),
(125,335,o),
(35,-7,o),
(-33,-207,c),
(-133,-234,l),
(-133,-250,l)
);
},
{
closed = 1;
nodes = (
(304,-14,o),
(444,210,o),
(444,358,cs),
(444,422,o),
(414,492,o),
(373,492,cs),
(307,492,o),
(139,418,o),
(41,336,c),
(53,315,l),
(125,364,o),
(275,429,o),
(323,433,c),
(339,417,o),
(349,364,o),
(349,320,cs),
(349,235,o),
(306,101,o),
(232,34,c),
(190,43,o),
(149,64,o),
(119,86,c),
(76,19,l),
(102,3,o),
(141,-14,o),
(186,-14,cs)
);
}
);
width = 463;
},
{
associatedMasterId = "77A919B5-A12B-4FB4-B82B-A665849CE577";
layerId = "6F8DA8B4-FDAE-4A88-A534-BF078D663A58";
name = "3 févr. 22 à 10:19";
shapes = (
{
closed = 1;
nodes = (
(161,-250,l),
(167,-218,l),
(55,-192,l),
(104,3,o),
(197,345,o),
(256,545,c),
(241,565,l),
(159,523,l),
(111,333,o),
(22,-10,o),
(-31,-193,c),
(-110,-218,l),
(-112,-250,l)
);
},
{
closed = 1;
nodes = (
(284,-14,o),
(407,187,o),
(407,355,cs),
(407,448,o),
(367,504,o),
(328,504,cs),
(280,504,o),
(128,433,o),
(35,359,c),
(49,322,l),
(115,370,o),
(236,429,o),
(272,429,cs),
(301,429,o),
(319,389,o),
(319,313,cs),
(319,224,o),
(277,59,o),
(211,59,cs),
(187,59,o),
(153,69,o),
(125,92,c),
(81,22,l),
(99,1,o),
(140,-14,o),
(174,-14,cs)
);
}
);
width = 426;
},
{
guides = (
{
pos = (474,509);
}
);
layerId = m004;
shapes = (
{
closed = 1;
nodes = (
(195,-250,l),
(199,-234,l),
(76,-209,l),
(140,3,o),
(239,357,o),
(298,557,c),
(288,570,l),
(161,524,l),
(113,345,o),
(17,-7,o),
(-49,-207,c),
(-149,-234,l),
(-149,-250,l)
);
},
{
closed = 1;
nodes = (
(347,-14,o),
(515,211,o),
(515,355,cs),
(515,437,o),
(461,502,o),
(404,502,cs),
(339,502,o),
(133,415,o),
(27,333,c),
(39,312,l),
(123,362,o),
(306,438,o),
(355,442,c),
(367,421,o),
(373,379,o),
(373,335,cs),
(373,264,o),
(330,103,o),
(268,39,c),
(223,45,o),
(177,83,o),
(147,108,c),
(101,6,l),
(125,-2,o),
(173,-14,o),
(206,-14,cs)
);
}
);
width = 524;
},
{
associatedMasterId = m004;
layerId = "5F3C7467-1104-4010-A8F3-2137C23A7AD3";
name = "3 févr. 22 à 10:19";
shapes = (
{
closed = 1;
nodes = (
(161,-250,l),
(167,-218,l),
(55,-192,l),
(104,3,o),
(197,345,o),
(256,545,c),
(241,565,l),
(159,523,l),
(111,333,o),
(22,-10,o),
(-31,-193,c),
(-110,-218,l),
(-112,-250,l)
);
},
{
closed = 1;
nodes = (
(284,-14,o),
(407,187,o),
(407,355,cs),
(407,448,o),
(367,504,o),
(328,504,cs),
(280,504,o),
(128,433,o),
(35,359,c),
(49,322,l),
(115,370,o),
(236,429,o),
(272,429,cs),
(301,429,o),
(319,389,o),
(319,313,cs),
(319,224,o),
(277,59,o),
(211,59,cs),
(187,59,o),
(153,69,o),
(125,92,c),
(81,22,l),
(99,1,o),
(140,-14,o),
(174,-14,cs)
);
}
);
width = 426;
}
);
metricRight = o;
note = p;
unicode = 112;
},
{
color = 5;
glyphname = q;
kernLeft = o;
kernRight = q;
lastChange = "2022-07-10 15:37:29 +0000";
layers = (
{
anchors = (
{
name = top;
pos = (280,470);
}
);
layerId = m01;
shapes = (
{
pos = (521,0);
ref = empattement_bas_long;
scale = (-1,1);
},
{
closed = 1;
nodes = (
(351,395,l),
(351,-191,l),
(439,-191,l),
(439,298,ls),
(439,359,o),
(444,393,o),
(452,428,c),
(439,449,l),
(399,460,l)
);
},
{
angle = 180;
pos = (549,470);
ref = panse;
}
);
width = 504;
},
{
anchors = (
{
name = top;
pos = (334,468);
}
);
layerId = "B693E737-F65C-4B63-97BA-EB353033066E";
shapes = (
{
pos = (548,0);
ref = empattement_bas_long;
scale = (-1,1);
},
{
closed = 1;
nodes = (
(346,405,l),
(346,-191,l),
(494,-191,l),
(494,298,ls),
(494,359,o),
(499,384,o),
(507,419,c),
(494,440,l),
(411,460,l)
);
},
{
angle = 180;
pos = (580,470);
ref = panse;
}
);
width = 546;
},
{
associatedMasterId = "B693E737-F65C-4B63-97BA-EB353033066E";
layerId = "B657A8B7-2843-4389-818E-7664A88639B3";
name = "28 mars 21 à 16:59";
shapes = (
{
closed = 1;
nodes = (
(206,-14,o),
(235,-7,o),
(297,25,cs),
(344,49,l),
(339,125,l),
(299,92,o),
(273,75,o),
(233,75,cs),
(172,75,o),
(132,142,o),
(132,249,cs),
(132,350,o),
(183,417,o),
(240,417,cs),
(280,417,o),
(297,407,o),
(343,375,c),
(394,450,l),
(360,469,o),
(297,484,o),
(248,484,cs),
(118,484,o),
(-14,380,o),
(-14,204,cs),
(-14,70,o),
(80,-14,o),
(162,-14,cs)
);
},
{
closed = 1;
nodes = (
(454,-149,l),
(454,435,l),
(306,435,l),
(306,-169,l)
);
}
);
width = 539;
},
{
anchors = (
{
name = top;
pos = (268,470);
}
);
associatedMasterId = m01;
layerId = "1230E7B2-4C9B-4295-A195-DF3A9F087C47";
shapes = (
{
alignment = -1;
pos = (512,0);
ref = empattement_bas_long;
scale = (-1,1);
},
{
closed = 1;
nodes = (
(353,392,l),
(353,-191,l),
(421,-191,l),
(421,298,ls),
(421,359,o),
(426,396,o),
(434,431,c),
(421,452,l),
(390,462,l)
);
},
{
alignment = -1;
angle = 180;
pos = (539,470);
ref = panse;
}
);
width = 502.66667;
},
{
anchors = (
{
name = top;
pos = (293,484);
}
);
guides = (
{
pos = (464,499);
}
);
layerId = "77A919B5-A12B-4FB4-B82B-A665849CE577";
shapes = (
{
closed = 1;
nodes = (
(294,-250,l),
(300,-236,l),
(244,-209,l),
(306,-4,o),
(386,296,o),
(448,496,c),
(436,504,l),
(357,451,l),
(300,262,o),
(231,-5,o),
(166,-203,c),
(39,-232,l),
(37,-250,l)
);
},
{
pos = (-57,0);
ref = panse_adq;
}
);
width = 443;
},
{
anchors = (
{
name = top;
pos = (322,484);
}
);
guides = (
{
pos = (478,509);
}
);
layerId = m004;
shapes = (
{
closed = 1;
nodes = (
(370,-250,l),
(376,-236,l),
(320,-209,l),
(382,-4,o),
(464,301,o),
(526,501,c),
(514,509,l),
(388,456,l),
(331,267,o),
(260,-5,o),
(195,-203,c),
(68,-232,l),
(66,-250,l)
);
},
{
pos = (-28,0);
ref = panse_adq;
}
);
width = 506;
}
);
metricLeft = o;
note = q;
unicode = 113;
},
{
color = 5;
glyphname = r;
kernLeft = n;
kernRight = r;
lastChange = "2022-07-11 12:32:42 +0000";
layers = (
{
anchors = (
{
name = bottom;
pos = (152,0);
}
);
layerId = m01;
shapes = (
{
closed = 1;
nodes = (
(200,328,o),
(236,388,o),
(285,388,cs),
(310,388,o),
(340,371,o),
(362,350,c),
(401,441,l),
(388,457,o),
(353,478,o),
(315,478,cs),
(246,478,o),
(194,380,o),
(171,313,c),
(180,273,l)
);
},
{
pos = (20,250);
ref = empattement_bas_long;
},
{
closed = 1;
nodes = (
(190,51,l),
(190,347,l),
(102,347,l),
(102,51,l)
);
},
{
pos = (-1,0);
ref = empattement_decale;
}
);
width = 396;
},
{
anchors = (
{
name = bottom;
pos = (153,0);
}
);
associatedMasterId = m01;
layerId = "A641D9A4-0033-4064-A6FF-F378A23683F0";
name = "17 mars 21 à 11:02";
shapes = (
{
closed = 1;
nodes = (
(219,352,o),
(256,391,o),
(301,391,cs),
(337,391,o),
(358,360,o),
(363,323,c),
(384,321,l),
(400,373,ls),
(424,450,o),
(380,484,o),
(338,484,cs),
(272,484,o),
(214,408,o),
(180,348,c),
(181,292,l)
);
},
{
pos = (21,250);
ref = empattement_bas_long;
},
{
closed = 1;
nodes = (
(191,51,l),
(191,367,l),
(103,367,l),
(103,51,l)
);
},
{
pos = (47,-256);
ref = empattement_haut;
}
);
width = 421;
},
{
anchors = (
{
name = bottom;
pos = (169,0);
}
);
layerId = "B693E737-F65C-4B63-97BA-EB353033066E";
shapes = (
{
closed = 1;
nodes = (
(252,346,o),
(288,359,o),
(320,359,cs),
(358,359,o),
(382,335,o),
(402,315,c),
(452,430,l),
(441,451,o),
(407,488,o),
(363,488,cs),
(306,488,o),
(238,392,o),
(212,329,c),
(221,297,l)
);
},
{
pos = (35,250);
ref = empattement_bas_long;
},
{
closed = 1;
nodes = (
(237,51,l),
(237,347,l),
(89,347,l),
(89,51,l)
);
},
{
pos = (16,10);
ref = empattement_decale;
}
);
width = 442;
},
{
anchors = (
{
name = bottom;
pos = (151,0);
}
);
associatedMasterId = m01;
layerId = "1230E7B2-4C9B-4295-A195-DF3A9F087C47";
shapes = (
{
closed = 1;
nodes = (
(188,324,o),
(228,396,o),
(276,396,cs),
(296,396,o),
(324,384,o),
(344,367,c),
(398,435,l),
(375,459,o),
(340,475,o),
(304,475,cs),
(231,475,o),
(184,376,o),
(162,308,c),
(171,267,l)
);
},
{
alignment = -1;
pos = (20,250);
ref = empattement_bas_long;
},
{
closed = 1;
nodes = (
(179,51,l),
(179,347,l),
(111,347,l),
(111,51,l)
);
},
{
alignment = -1;
pos = (-2,-3);
ref = empattement_decale;
}
);
width = 387.33333;
},
{
anchors = (
{
name = bottom;
pos = (152,0);
}
);
associatedMasterId = m01;
layerId = "C469BB3B-1D3A-47E3-9ACA-30366E3998D8";
name = "16 déc. 21 à 10:24";
shapes = (
{
closed = 1;
nodes = (
(200,328,o),
(239,387,o),
(283,387,cs),
(308,387,o),
(335,372,o),
(356,354,c),
(408,434,l),
(388,457,o),
(353,478,o),
(315,478,cs),
(246,478,o),
(194,380,o),
(171,313,c),
(180,273,l)
);
},
{
pos = (20,250);
ref = empattement_bas_long;
},
{
closed = 1;
nodes = (
(190,51,l),
(190,347,l),
(102,347,l),
(102,51,l)
);
},
{
pos = (-1,0);
ref = empattement_decale;
}
);
width = 398;
},
{
anchors = (
{
name = bottom;
pos = (132,1);
}
);
guides = (
{
pos = (468,499);
}
);
layerId = "77A919B5-A12B-4FB4-B82B-A665849CE577";
shapes = (
{
closed = 1;
nodes = (
(206,258,o),
(291,384,o),
(316,403,c),
(337,402,o),
(358,392,o),
(375,383,c),
(422,478,l),
(407,489,o),
(376,499,o),
(362,499,cs),
(313,499,o),
(215,332,o),
(133,163,c),
(144,144,l)
);
},
{
pos = (12,0);
ref = fut;
}
);
width = 364;
},
{
anchors = (
{
name = bottom;
pos = (153,0);
}
);
associatedMasterId = "77A919B5-A12B-4FB4-B82B-A665849CE577";
layerId = "A35E8ECC-50E0-45EA-94C5-A4715EFD72F3";
name = "17 mars 21 à 11:02";
shapes = (
{
closed = 1;
nodes = (
(219,352,o),
(256,391,o),
(301,391,cs),
(337,391,o),
(358,360,o),
(363,323,c),
(384,321,l),
(400,373,ls),
(424,450,o),
(380,484,o),
(338,484,cs),
(272,484,o),
(214,408,o),
(180,348,c),
(181,292,l)
);
},
{
pos = (21,250);
ref = empattement_bas_long;
},
{
closed = 1;
nodes = (
(191,51,l),
(191,367,l),
(103,367,l),
(103,51,l)
);
},
{
pos = (47,-256);
ref = empattement_haut;
}
);
width = 421;
},
{
anchors = (
{
name = bottom;
pos = (176,0);
}
);
associatedMasterId = "77A919B5-A12B-4FB4-B82B-A665849CE577";
layerId = "B2912B44-AEF1-4DCF-A04C-7F07BF98BD9A";
name = "20 oct. 21 à 15:08";
shapes = (
{
closed = 1;
nodes = (
(364,484,o),
(283,382,o),
(221,232,c),
(200,232,l),
(157,0,l),
(252,249,o),
(345,403,o),
(374,403,cs),
(383,403,o),
(392,392,o),
(392,370,cs),
(392,341,o),
(383,296,o),
(362,256,c),
(380,241,l),
(421,284,o),
(510,398,o),
(510,423,cs),
(510,454,o),
(472,484,o),
(435,484,cs)
);
},
{
closed = 1;
nodes = (
(240,357,o),
(250,400,o),
(250,440,cs),
(250,467,o),
(240,487,o),
(208,487,cs),
(157,487,o),
(87,418,o),
(42,354,c),
(64,340,l),
(104,390,o),
(136,421,o),
(149,421,cs),
(156,421,o),
(160,415,o),
(160,400,cs),
(160,377,o),
(147,334,o),
(129,259,cs),
(66,0,l),
(157,0,l),
(228,306,ls)
);
}
);
width = 470;
},
{
anchors = (
{
name = bottom;
pos = (149,0);
}
);
associatedMasterId = "77A919B5-A12B-4FB4-B82B-A665849CE577";
layerId = "F36851C4-E3A7-4057-93AE-7277E6F970F8";
name = "11 janv. 22 à 20:27";
shapes = (
{
closed = 1;
nodes = (
(218,240,o),
(275,371,o),
(319,371,cs),
(338,371,o),
(352,356,o),
(363,336,c),
(435,424,l),
(422,455,o),
(401,484,o),
(367,484,cs),
(308,484,o),
(246,392,o),
(190,242,c),
(171,242,l),
(131,0,l)
);
},
{
closed = 1;
nodes = (
(131,0,l),
(196,306,ls),
(207,357,o),
(215,396,o),
(215,428,cs),
(215,464,o),
(206,484,o),
(177,484,cs),
(135,484,o),
(77,437,o),
(30,360,c),
(50,342,l),
(86,392,o),
(113,414,o),
(122,414,cs),
(131,414,o),
(133,409,o),
(133,394,cs),
(133,371,o),
(125,334,o),
(108,259,cs),
(50,0,l)
);
}
);
width = 371;
},
{
anchors = (
{
name = bottom;
pos = (133,1);
}
);
guides = (
{
pos = (454,509);
}
);
layerId = m004;
shapes = (
{
closed = 1;
nodes = (
(248,260,o),
(318,362,o),
(343,381,c),
(365,371,o),
(403,344,o),
(425,325,c),
(498,487,l),
(472,497,o),
(422,506,o),
(408,506,cs),
(358,506,o),
(258,336,o),
(174,163,c),
(185,144,l)
);
},
{
pos = (13,0);
ref = fut;
}
);
width = 429;
},
{
anchors = (
{
name = bottom;
pos = (153,0);
}
);
associatedMasterId = m004;
layerId = "E2517AB8-1197-4F69-8298-4643FA5098BE";
name = "17 mars 21 à 11:02";
shapes = (
{
closed = 1;
nodes = (
(219,352,o),
(256,391,o),
(301,391,cs),
(337,391,o),
(358,360,o),
(363,323,c),
(384,321,l),
(400,373,ls),
(424,450,o),
(380,484,o),
(338,484,cs),
(272,484,o),
(214,408,o),
(180,348,c),
(181,292,l)
);
},
{
pos = (21,250);
ref = empattement_bas_long;
},
{
closed = 1;
nodes = (
(191,51,l),
(191,367,l),
(103,367,l),
(103,51,l)
);
},
{
pos = (47,-256);
ref = empattement_haut;
}
);
width = 421;
},
{
anchors = (
{
name = bottom;
pos = (176,0);
}
);
associatedMasterId = m004;
layerId = "6578FBB9-DC70-49DA-8A9D-A2E071988576";
name = "20 oct. 21 à 15:08";
shapes = (
{
closed = 1;
nodes = (
(364,484,o),
(283,382,o),
(221,232,c),
(200,232,l),
(157,0,l),
(252,249,o),
(345,403,o),
(374,403,cs),
(383,403,o),
(392,392,o),
(392,370,cs),
(392,341,o),
(383,296,o),
(362,256,c),
(380,241,l),
(421,284,o),
(510,398,o),
(510,423,cs),
(510,454,o),
(472,484,o),
(435,484,cs)
);
},
{
closed = 1;
nodes = (
(240,357,o),
(250,400,o),
(250,440,cs),
(250,467,o),
(240,487,o),
(208,487,cs),
(157,487,o),
(87,418,o),
(42,354,c),
(64,340,l),
(104,390,o),
(136,421,o),
(149,421,cs),
(156,421,o),
(160,415,o),
(160,400,cs),
(160,377,o),
(147,334,o),
(129,259,cs),
(66,0,l),
(157,0,l),
(228,306,ls)
);
}
);
width = 470;
},
{
anchors = (
{
name = bottom;
pos = (149,0);
}
);
associatedMasterId = m004;
layerId = "C8CE34A5-8D1C-4743-9368-6A2262822231";
name = "11 janv. 22 à 20:27";
shapes = (
{
closed = 1;
nodes = (
(218,240,o),
(275,371,o),
(319,371,cs),
(338,371,o),
(352,356,o),
(363,336,c),
(435,424,l),
(422,455,o),
(401,484,o),
(367,484,cs),
(308,484,o),
(246,392,o),
(190,242,c),
(171,242,l),
(131,0,l)
);
},
{
closed = 1;
nodes = (
(131,0,l),
(196,306,ls),
(207,357,o),
(215,396,o),
(215,428,cs),
(215,464,o),
(206,484,o),
(177,484,cs),
(135,484,o),
(77,437,o),
(30,360,c),
(50,342,l),
(86,392,o),
(113,414,o),
(122,414,cs),
(131,414,o),
(133,409,o),
(133,394,cs),
(133,371,o),
(125,334,o),
(108,259,cs),
(50,0,l)
);
}
);
width = 371;
}
);
metricLeft = n;
note = r;
unicode = 114;
},
